<?xml version="1.0" standalone="no"?>
<!DOCTYPE svg PUBLIC "-//W3C//DTD SVG 20010904//EN"
 "http://www.w3.org/TR/2001/REC-SVG-20010904/DTD/svg10.dtd">
<svg version="1.0" xmlns="http://www.w3.org/2000/svg"
 width="980.000000pt" height="950.000000pt" viewBox="0 0 980.000000 950.000000"
 preserveAspectRatio="xMidYMid meet">
<metadata>
Created by potrace 1.15, written by Peter Selinger 2001-2017
</metadata>
<g transform="translate(0.000000,950.000000) scale(0.100000,-0.100000)"
fill="lightseagreen" stroke="none">
<path d="M4666 9490 c-552 -67 -985 -231 -1401 -528 -274 -196 -547 -485 -731
-774 -204 -320 -367 -769 -409 -1130 -4 -32 -12 -61 -19 -66 -6 -5 -101 -39
-211 -76 -384 -130 -713 -277 -973 -434 -488 -297 -779 -620 -888 -987 -24
-79 -27 -108 -27 -235 -1 -160 13 -229 73 -373 201 -483 818 -933 1711 -1247
666 -235 1456 -388 2359 -457 321 -24 1160 -24 1490 0 1184 88 2183 324 2945
697 310 151 526 293 726 477 251 230 365 389 439 611 99 299 46 607 -155 887
-306 429 -871 783 -1690 1061 -110 37 -205 71 -211 76 -6 4 -16 47 -23 95 -88
639 -423 1265 -903 1691 -396 351 -887 593 -1361 671 -208 34 -612 57 -741 41z
m415 -700 c671 -67 1236 -416 1594 -985 100 -159 210 -407 253 -570 43 -162
66 -367 74 -664 l3 -105 -60 -34 c-108 -62 -291 -150 -392 -191 -170 -67 -538
-171 -609 -171 -24 0 -25 2 -18 33 3 17 22 71 40 120 98 256 126 413 128 712
1 179 -2 236 -17 305 -23 105 -85 265 -134 347 -146 240 -410 429 -720 514
-112 30 -374 38 -532 15 -280 -41 -517 -160 -697 -349 -137 -144 -217 -302
-265 -527 -20 -90 -23 -135 -23 -310 0 -294 24 -429 128 -708 25 -68 46 -129
46 -137 0 -20 -32 -19 -137 5 -251 59 -503 146 -691 238 -109 54 -251 132
-256 141 -6 9 11 330 24 461 59 573 373 1115 850 1466 394 291 934 441 1411
394z m-793 -1949 c96 -33 197 -98 293 -189 100 -95 139 -160 139 -232 0 -56
-20 -86 -74 -111 -110 -50 -309 1 -473 122 -183 135 -275 294 -217 378 36 51
71 62 174 58 63 -2 116 -11 158 -26z m1496 15 c119 -50 97 -185 -54 -337 -210
-211 -512 -295 -625 -173 -103 111 135 405 403 500 79 28 221 33 276 10z
m-3744 -1266 c96 -16 165 -53 246 -134 107 -108 154 -219 154 -372 0 -142 -50
-259 -156 -368 -108 -109 -239 -156 -403 -143 -377 30 -595 419 -419 749 59
111 204 234 310 262 63 17 179 20 268 6z m5955 0 c168 -27 319 -167 381 -350
27 -82 25 -225 -4 -312 -45 -131 -139 -242 -258 -305 -140 -74 -347 -72 -488
5 -164 89 -289 315 -272 490 22 212 206 435 390 472 59 11 181 12 251 0z
m-2975 -700 c93 -15 163 -53 239 -129 208 -207 216 -516 19 -726 -110 -118
-217 -165 -378 -165 -160 0 -268 47 -378 164 -160 172 -189 421 -71 603 48 74
171 194 230 223 75 39 209 50 339 30z"/>
<path d="M8140 2639 c-167 -66 -306 -122 -308 -124 -10 -10 128 -303 509
-1075 357 -723 438 -880 454 -880 19 0 564 273 594 297 l23 19 -359 715 c-368
730 -577 1135 -597 1156 -8 9 -80 -15 -316 -108z"/>
<path d="M1312 2688 c-69 -111 -248 -458 -588 -1143 -246 -496 -330 -673 -322
-682 13 -17 584 -303 603 -303 9 0 117 204 288 547 306 612 687 1386 687 1396
0 4 -12 13 -27 20 -41 21 -578 227 -591 227 -5 0 -28 -28 -50 -62z"/>
<path d="M4550 1055 l0 -1055 350 0 350 0 0 1055 0 1055 -350 0 -350 0 0
-1055z"/>
</g>
</svg>
