<?xml version="1.0" standalone="no"?>
<!DOCTYPE svg PUBLIC "-//W3C//DTD SVG 20010904//EN"
 "http://www.w3.org/TR/2001/REC-SVG-20010904/DTD/svg10.dtd">
<svg version="1.0" xmlns="http://www.w3.org/2000/svg"
 width="626.000000pt" height="626.000000pt" viewBox="0 0 626.000000 626.000000"
 preserveAspectRatio="xMidYMid meet">
<g transform="translate(0.000000,626.000000) scale(0.100000,-0.100000)"
fill="steelblue" stroke="none">
<path d="M3210 6073 c-122 -16 -229 -71 -325 -168 -110 -111 -165 -245 -165
-401 0 -164 50 -284 166 -402 57 -57 90 -81 157 -112 l85 -40 7 -83 c3 -45 5
-161 3 -257 l-3 -175 -100 -7 c-445 -31 -858 -162 -1187 -374 -151 -98 -259
-185 -381 -308 -339 -341 -547 -786 -547 -1167 l0 -79 65 -48 c67 -49 206
-123 310 -165 211 -86 613 -176 940 -211 364 -39 413 -41 940 -41 542 0 577 2
925 46 589 74 1063 243 1295 463 l58 55 -6 108 c-17 283 -166 634 -388 910
-349 437 -850 712 -1435 789 -71 9 -132 19 -135 23 -4 3 -10 123 -14 267 l-7
261 53 23 c313 134 437 506 271 809 -64 115 -206 228 -335 265 -60 17 -187 27
-247 19z"/>
<path d="M930 3420 c-198 -72 -341 -137 -475 -218 -303 -181 -467 -423 -453
-667 20 -341 340 -623 952 -839 23 -8 23 -11 -54 -216 -34 -91 -72 -194 -85
-230 -13 -36 -35 -96 -50 -135 -49 -131 -97 -260 -110 -300 -7 -22 -38 -107
-69 -188 -31 -81 -56 -152 -56 -158 0 -5 82 -9 203 -9 l202 0 29 78 c16 42 39
104 52 137 12 33 54 148 93 255 40 107 78 211 85 230 8 19 45 118 82 220 37
102 71 189 74 193 4 4 36 1 71 -7 258 -59 613 -114 909 -140 138 -13 509 -35
578 -36 9 0 12 -128 12 -605 l0 -605 195 0 195 0 0 605 c0 477 3 605 13 605
55 0 455 22 547 30 382 33 701 82 997 152 72 17 138 28 145 25 8 -3 37 -72 65
-153 28 -82 90 -261 138 -399 48 -137 112 -324 143 -415 l57 -165 203 -3 c220
-3 214 -4 191 55 -10 24 -43 119 -206 588 -19 55 -43 125 -53 155 -10 30 -49
146 -88 257 -50 145 -67 205 -58 211 6 4 43 21 81 37 147 60 385 189 445 242
8 7 33 28 55 46 112 90 203 216 246 337 20 54 24 84 23 175 0 95 -4 120 -28
184 -15 40 -43 97 -61 126 -118 184 -362 356 -700 494 l-94 39 12 -27 c7 -14
38 -78 69 -141 32 -63 76 -172 98 -241 l41 -127 57 -35 c130 -81 222 -193 222
-272 0 -77 -86 -184 -221 -276 -134 -90 -388 -202 -604 -265 -577 -168 -1171
-244 -1910 -243 -582 0 -982 36 -1459 130 -659 130 -1152 354 -1261 573 -30
59 -31 97 -6 152 39 86 163 191 324 274 54 28 89 53 93 65 26 92 144 343 194
415 9 14 22 35 29 48 16 30 8 29 -119 -18z"/>
</g>
</svg>
