<?xml version="1.0" standalone="no"?>
<!DOCTYPE svg PUBLIC "-//W3C//DTD SVG 20010904//EN"
 "http://www.w3.org/TR/2001/REC-SVG-20010904/DTD/svg10.dtd">
<svg version="1.0" xmlns="http://www.w3.org/2000/svg"
 width="981.000000pt" height="986.000000pt" viewBox="0 0 981.000000 986.000000" transform="rotate(180)" fill="pink"
 preserveAspectRatio="xMidYMid meet">
<g transform="translate(0.000000,986.000000) scale(0.100000,-0.100000)" stroke="none">
<path d="M2378 9839 c-21 -5 -64 -22 -95 -38 -239 -121 -334 -418 -208 -650
61 -112 219 -216 368 -243 l69 -13 159 -370 c88 -203 173 -414 190 -467 l31
-97 -85 -108 c-213 -273 -375 -577 -480 -908 -53 -167 -76 -269 -87 -390 -12
-135 -28 -1248 -38 -2596 l-7 -1005 -69 -140 c-64 -128 -77 -146 -160 -230
-52 -52 -119 -107 -156 -128 -199 -116 -457 -182 -880 -226 -330 -34 -443 -57
-577 -120 -177 -83 -297 -191 -329 -296 -46 -152 25 -332 173 -443 122 -91
213 -117 393 -108 144 7 191 21 528 154 738 290 1073 395 1674 523 l231 49 34
-27 c71 -56 94 -132 60 -198 -24 -47 -124 -134 -218 -188 -277 -163 -428 -315
-536 -542 -30 -62 -37 -91 -41 -155 -6 -96 16 -147 87 -212 116 -103 240 -134
496 -124 154 7 236 24 305 64 25 14 164 144 310 287 413 407 809 770 824 755
2 -2 16 -121 30 -265 54 -539 139 -944 242 -1161 79 -166 228 -245 376 -201
55 16 132 88 162 151 65 134 100 321 181 976 63 504 65 515 86 519 43 8 488
-389 924 -825 233 -232 270 -259 415 -289 98 -20 312 -21 406 -1 134 29 266
116 305 202 51 110 0 290 -132 464 -101 135 -211 228 -403 342 -171 101 -256
194 -256 281 0 44 43 106 86 124 43 18 87 12 390 -57 498 -111 905 -242 1543
-494 353 -139 386 -148 556 -149 118 -1 151 3 210 21 88 28 148 67 221 146
118 128 152 272 92 400 -67 143 -265 283 -478 338 -41 11 -210 35 -375 54
-165 19 -340 41 -390 50 -529 93 -801 308 -904 715 -34 133 -40 369 -45 1810
-7 1577 -14 1768 -81 2023 -92 355 -295 758 -525 1042 -40 50 -74 95 -76 100
-6 14 288 689 372 856 31 63 37 69 76 79 117 31 151 44 205 79 122 79 216 216
233 338 13 101 -11 216 -65 309 -32 55 -141 156 -201 185 -45 22 -61 24 -204
24 -153 0 -156 0 -210 -30 -80 -44 -171 -138 -208 -215 -62 -128 -66 -244 -12
-401 l32 -91 -233 -349 c-128 -192 -238 -354 -245 -360 -8 -7 -44 10 -126 59
-216 132 -429 227 -665 297 -189 55 -285 74 -458 86 -198 14 -642 5 -771 -16
-255 -41 -726 -224 -951 -370 -40 -26 -80 -45 -89 -43 -26 5 -105 113 -310
420 l-185 277 29 93 c38 119 46 190 32 270 -32 175 -165 317 -349 372 -58 17
-162 20 -223 5z m2657 -2185 c207 -53 366 -216 420 -429 8 -32 15 -102 15
-155 0 -177 -56 -317 -174 -435 -188 -187 -450 -225 -706 -101 -95 45 -216
168 -263 267 -121 250 -79 499 117 694 102 101 213 158 351 179 49 7 177 -3
240 -20z m-1316 -1494 c87 -31 202 -110 258 -178 85 -105 142 -260 143 -390 0
-29 -7 -87 -16 -129 -70 -341 -382 -541 -729 -468 -274 58 -465 306 -465 605
0 163 51 280 175 406 86 87 181 143 287 170 82 21 267 12 347 -16z m2632 16
c227 -41 399 -207 460 -444 51 -199 -4 -411 -145 -557 -123 -126 -245 -184
-412 -192 -192 -10 -306 34 -461 181 -128 121 -178 242 -176 426 2 234 138
447 349 547 38 18 90 37 115 42 67 13 185 12 270 -3z"/>
<path d="M4749 7302 c-53 -34 -106 -93 -125 -138 -35 -84 -5 -211 66 -282 139
-139 356 -80 431 118 24 63 24 76 -2 146 -43 115 -140 184 -259 184 -55 0 -73
-5 -111 -28z"/>
<path d="M3430 5835 c-104 -33 -170 -128 -170 -245 1 -231 255 -352 428 -204
82 70 115 198 73 289 -22 49 -100 127 -149 151 -49 23 -126 27 -182 9z"/>
<path d="M6125 5831 c-48 -22 -117 -89 -139 -135 -39 -83 -26 -191 32 -272 41
-56 141 -108 207 -108 177 0 313 218 235 379 -59 122 -222 188 -335 136z"/>
</g>
</svg>
