<?xml version="1.0" encoding="utf-8"?>
<!-- Generator: Adobe Illustrator 16.0.0, SVG Export Plug-In . SVG Version: 6.00 Build 0)  -->
<!DOCTYPE svg PUBLIC "-//W3C//DTD SVG 1.1//EN" "http://www.w3.org/Graphics/SVG/1.1/DTD/svg11.dtd">
<svg version="1.1" id="Layer_1" xmlns="http://www.w3.org/2000/svg" xmlns:xlink="http://www.w3.org/1999/xlink" x="0px" y="0px"
	 width="200px" height="201.02px" viewBox="400 399.49 200 201.02" enable-background="new 400 399.49 200 201.02"
	 xml:space="preserve">
<g id="Layer_2">
	<g id="XMLID_1_">
		<g>
			<rect x="400" y="506.666" fill="#00FF00" width="6.666" height="6.668"/>
			<rect x="426.667" y="493.334" fill="#00FF00" width="6.666" height="6.666"/>
			<rect x="593.332" y="520" fill="#00FF00" width="6.668" height="6.666"/>
			<rect x="593.332" y="513.334" fill="#00FF00" width="6.668" height="6.666"/>
			<rect x="593.332" y="506.666" fill="#00FF00" width="6.668" height="6.668"/>
			<rect x="586.666" y="533.334" fill="#00FF00" width="6.666" height="6.666"/>
			<rect x="586.666" y="526.666" fill="#00FF00" width="6.666" height="6.668"/>
			<rect x="586.666" y="520" fill="#00FF00" width="6.666" height="6.666"/>
			<rect x="586.666" y="513.334" fill="#00FF00" width="6.666" height="6.666"/>
			<rect x="586.666" y="506.666" fill="#00FF00" width="6.666" height="6.668"/>
			<rect x="586.666" y="500" fill="#00FF00" width="6.666" height="6.666"/>
			<rect x="586.666" y="493.334" fill="#00FF00" width="6.666" height="6.666"/>
			<rect x="580" y="533.334" fill="#00FF00" width="6.666" height="6.666"/>
			<rect x="580" y="526.666" fill="#00FF00" width="6.666" height="6.668"/>
			<rect x="580" y="500" fill="#00FF00" width="6.666" height="6.666"/>
			<rect x="580" y="493.334" fill="#00FF00" width="6.666" height="6.666"/>
			<rect x="573.332" y="580" fill="#00FF00" width="6.668" height="6.666"/>
			<rect x="573.332" y="573.334" fill="#00FF00" width="6.668" height="6.666"/>
			<rect x="573.332" y="566.666" fill="#00FF00" width="6.668" height="6.668"/>
			<rect x="573.332" y="560" fill="#00FF00" width="6.668" height="6.666"/>
			<rect x="573.332" y="533.334" fill="#00FF00" width="6.668" height="6.666"/>
			<rect x="573.332" y="526.666" fill="#00FF00" width="6.668" height="6.668"/>
			<rect x="573.332" y="493.334" fill="#00FF00" width="6.668" height="6.666"/>
			<rect x="566.666" y="580" fill="#00FF00" width="6.666" height="6.666"/>
			<rect x="566.666" y="573.334" fill="#00FF00" width="6.666" height="6.666"/>
			<rect x="566.666" y="566.666" fill="#00FF00" width="6.666" height="6.668"/>
			<rect x="566.666" y="560" fill="#00FF00" width="6.666" height="6.666"/>
			<rect x="566.666" y="553.334" fill="#00FF00" width="6.666" height="6.666"/>
			<rect x="566.666" y="546.666" fill="#00FF00" width="6.666" height="6.668"/>
			<rect x="566.666" y="540" fill="#00FF00" width="6.666" height="6.666"/>
			<rect x="566.666" y="533.334" fill="#00FF00" width="6.666" height="6.666"/>
			<rect x="566.666" y="513.334" fill="#00FF00" width="6.666" height="6.666"/>
			<rect x="566.666" y="506.666" fill="#00FF00" width="6.666" height="6.668"/>
			<rect x="566.666" y="500" fill="#00FF00" width="6.666" height="6.666"/>
			<rect x="560" y="560" fill="#00FF00" width="6.666" height="6.666"/>
			<rect x="560" y="553.334" fill="#00FF00" width="6.666" height="6.666"/>
			<rect x="560" y="546.666" fill="#00FF00" width="6.666" height="6.668"/>
			<rect x="560" y="540" fill="#00FF00" width="6.666" height="6.666"/>
			<rect x="560" y="520" fill="#00FF00" width="6.666" height="6.666"/>
			<rect x="560" y="513.334" fill="#00FF00" width="6.666" height="6.666"/>
			<rect x="560" y="506.666" fill="#00FF00" width="6.666" height="6.668"/>
			<rect x="560" y="500" fill="#00FF00" width="6.666" height="6.666"/>
			<rect x="560" y="493.334" fill="#00FF00" width="6.666" height="6.666"/>
			<rect x="560" y="486.666" fill="#00FF00" width="6.666" height="6.668"/>
			<rect x="553.332" y="546.666" fill="#00FF00" width="6.668" height="6.668"/>
			<rect x="553.332" y="540" fill="#00FF00" width="6.668" height="6.666"/>
			<rect x="553.332" y="520" fill="#00FF00" width="6.668" height="6.666"/>
			<rect x="553.332" y="513.334" fill="#00FF00" width="6.668" height="6.666"/>
			<rect x="553.332" y="506.666" fill="#00FF00" width="6.668" height="6.668"/>
			<rect x="553.332" y="500" fill="#00FF00" width="6.668" height="6.666"/>
			<rect x="553.332" y="493.334" fill="#00FF00" width="6.668" height="6.666"/>
			<rect x="553.332" y="486.666" fill="#00FF00" width="6.668" height="6.668"/>
			<rect x="553.332" y="480" fill="#00FF00" width="6.668" height="6.666"/>
			<rect x="546.666" y="546.666" fill="#00FF00" width="6.666" height="6.668"/>
			<rect x="546.666" y="540" fill="#00FF00" width="6.666" height="6.666"/>
			<rect x="546.666" y="520" fill="#00FF00" width="6.666" height="6.666"/>
			<rect x="546.666" y="513.334" fill="#00FF00" width="6.666" height="6.666"/>
			<rect x="546.666" y="506.666" fill="#00FF00" width="6.666" height="6.668"/>
			<rect x="546.666" y="500" fill="#00FF00" width="6.666" height="6.666"/>
			<rect x="546.666" y="493.334" fill="#00FF00" width="6.666" height="6.666"/>
			<rect x="546.666" y="486.666" fill="#00FF00" width="6.666" height="6.668"/>
			<rect x="546.666" y="480" fill="#00FF00" width="6.666" height="6.666"/>
			<rect x="546.666" y="473.334" fill="#00FF00" width="6.666" height="6.666"/>
			<rect x="540" y="546.666" fill="#00FF00" width="6.666" height="6.668"/>
			<rect x="540" y="540" fill="#00FF00" width="6.666" height="6.666"/>
			<rect x="540" y="526.666" fill="#00FF00" width="6.666" height="6.668"/>
			<rect x="540" y="520" fill="#00FF00" width="6.666" height="6.666"/>
			<rect x="540" y="513.334" fill="#00FF00" width="6.666" height="6.666"/>
			<rect x="540" y="506.666" fill="#00FF00" width="6.666" height="6.668"/>
			<rect x="540" y="500" fill="#00FF00" width="6.666" height="6.666"/>
			<rect x="540" y="493.334" fill="#00FF00" width="6.666" height="6.666"/>
			<rect x="540" y="486.666" fill="#00FF00" width="6.666" height="6.668"/>
			<rect x="540" y="480" fill="#00FF00" width="6.666" height="6.666"/>
			<rect x="540" y="473.334" fill="#00FF00" width="6.666" height="6.666"/>
			<rect x="540" y="466.666" fill="#00FF00" width="6.666" height="6.668"/>
			<rect x="533.332" y="546.666" fill="#00FF00" width="6.668" height="6.668"/>
			<rect x="533.332" y="540" fill="#00FF00" width="6.668" height="6.666"/>
			<rect x="533.332" y="526.666" fill="#00FF00" width="6.668" height="6.668"/>
			<rect x="533.332" y="520" fill="#00FF00" width="6.668" height="6.666"/>
			<rect x="533.332" y="513.334" fill="#00FF00" width="6.668" height="6.666"/>
			<rect x="533.332" y="506.666" fill="#00FF00" width="6.668" height="6.668"/>
			<rect x="533.332" y="500" fill="#00FF00" width="6.668" height="6.666"/>
			<rect x="533.332" y="493.334" fill="#00FF00" width="6.668" height="6.666"/>
			<rect x="533.332" y="486.666" fill="#00FF00" width="6.668" height="6.668"/>
			<rect x="533.332" y="480" fill="#00FF00" width="6.668" height="6.666"/>
			<rect x="533.332" y="473.334" fill="#00FF00" width="6.668" height="6.666"/>
			<rect x="533.332" y="466.666" fill="#00FF00" width="6.668" height="6.668"/>
			<rect x="526.666" y="546.666" fill="#00FF00" width="6.666" height="6.668"/>
			<rect x="526.666" y="540" fill="#00FF00" width="6.666" height="6.666"/>
			<rect x="526.666" y="526.666" fill="#00FF00" width="6.666" height="6.668"/>
			<rect x="526.666" y="520" fill="#00FF00" width="6.666" height="6.666"/>
			<rect x="526.666" y="513.334" fill="#00FF00" width="6.666" height="6.666"/>
			<rect x="526.666" y="506.666" fill="#00FF00" width="6.666" height="6.668"/>
			<rect x="526.666" y="500" fill="#00FF00" width="6.666" height="6.666"/>
			<rect x="526.666" y="493.334" fill="#00FF00" width="6.666" height="6.666"/>
			<rect x="526.666" y="486.666" fill="#00FF00" width="6.666" height="6.668"/>
			<rect x="526.666" y="480" fill="#00FF00" width="6.666" height="6.666"/>
			<rect x="526.666" y="473.334" fill="#00FF00" width="6.666" height="6.666"/>
			<rect x="526.666" y="466.666" fill="#00FF00" width="6.666" height="6.668"/>
			<rect x="526.666" y="460" fill="#00FF00" width="6.666" height="6.666"/>
			<rect x="520" y="546.666" fill="#00FF00" width="6.666" height="6.668"/>
			<rect x="520" y="540" fill="#00FF00" width="6.666" height="6.666"/>
			<rect x="520" y="526.666" fill="#00FF00" width="6.666" height="6.668"/>
			<rect x="520" y="520" fill="#00FF00" width="6.666" height="6.666"/>
			<rect x="520" y="513.334" fill="#00FF00" width="6.666" height="6.666"/>
			<rect x="520" y="506.666" fill="#00FF00" width="6.666" height="6.668"/>
			<rect x="520" y="500" fill="#00FF00" width="6.666" height="6.666"/>
			<rect x="520" y="493.334" fill="#00FF00" width="6.666" height="6.666"/>
			<rect x="520" y="486.666" fill="#00FF00" width="6.666" height="6.668"/>
			<rect x="520" y="480" fill="#00FF00" width="6.666" height="6.666"/>
			<rect x="520" y="473.334" fill="#00FF00" width="6.666" height="6.666"/>
			<rect x="520" y="466.666" fill="#00FF00" width="6.666" height="6.668"/>
			<rect x="520" y="460" fill="#00FF00" width="6.666" height="6.666"/>
			<rect x="520" y="426.666" fill="#00FF00" width="6.666" height="6.668"/>
			<rect x="520" y="420" fill="#00FF00" width="6.666" height="6.666"/>
			<rect x="513.332" y="546.666" fill="#00FF00" width="6.668" height="6.668"/>
			<rect x="513.332" y="540" fill="#00FF00" width="6.668" height="6.666"/>
			<rect x="513.332" y="526.666" fill="#00FF00" width="6.668" height="6.668"/>
			<rect x="513.332" y="520" fill="#00FF00" width="6.668" height="6.666"/>
			<rect x="513.332" y="513.334" fill="#00FF00" width="6.668" height="6.666"/>
			<rect x="513.332" y="506.666" fill="#00FF00" width="6.668" height="6.668"/>
			<rect x="513.332" y="500" fill="#00FF00" width="6.668" height="6.666"/>
			<rect x="513.332" y="493.334" fill="#00FF00" width="6.668" height="6.666"/>
			<rect x="513.332" y="486.666" fill="#00FF00" width="6.668" height="6.668"/>
			<rect x="513.332" y="480" fill="#00FF00" width="6.668" height="6.666"/>
			<rect x="513.332" y="473.334" fill="#00FF00" width="6.668" height="6.666"/>
			<rect x="513.332" y="466.666" fill="#00FF00" width="6.668" height="6.668"/>
			<rect x="513.332" y="460" fill="#00FF00" width="6.668" height="6.666"/>
			<rect x="513.332" y="433.334" fill="#00FF00" width="6.668" height="6.666"/>
			<rect x="513.332" y="426.666" fill="#00FF00" width="6.668" height="6.668"/>
			<rect x="513.332" y="420" fill="#00FF00" width="6.668" height="6.666"/>
			<rect x="513.332" y="413.334" fill="#00FF00" width="6.668" height="6.666"/>
			<rect x="506.666" y="553.334" fill="#00FF00" width="6.666" height="6.666"/>
			<rect x="506.666" y="546.666" fill="#00FF00" width="6.666" height="6.668"/>
			<rect x="506.666" y="526.666" fill="#00FF00" width="6.666" height="6.668"/>
			<rect x="506.666" y="520" fill="#00FF00" width="6.666" height="6.666"/>
			<rect x="506.666" y="513.334" fill="#00FF00" width="6.666" height="6.666"/>
			<rect x="506.666" y="506.666" fill="#00FF00" width="6.666" height="6.668"/>
			<rect x="506.666" y="500" fill="#00FF00" width="6.666" height="6.666"/>
			<rect x="506.666" y="493.334" fill="#00FF00" width="6.666" height="6.666"/>
			<rect x="506.666" y="486.666" fill="#00FF00" width="6.666" height="6.668"/>
			<rect x="506.666" y="480" fill="#00FF00" width="6.666" height="6.666"/>
			<rect x="506.666" y="473.334" fill="#00FF00" width="6.666" height="6.666"/>
			<rect x="506.666" y="466.666" fill="#00FF00" width="6.666" height="6.668"/>
			<rect x="506.666" y="460" fill="#00FF00" width="6.666" height="6.666"/>
			<rect x="506.666" y="453.334" fill="#00FF00" width="6.666" height="6.666"/>
			<rect x="506.666" y="446.666" fill="#00FF00" width="6.666" height="6.668"/>
			<rect x="506.666" y="440" fill="#00FF00" width="6.666" height="6.666"/>
			<rect x="506.666" y="433.334" fill="#00FF00" width="6.666" height="6.666"/>
			<rect x="506.666" y="426.666" fill="#00FF00" width="6.666" height="6.668"/>
			<rect x="506.666" y="420" fill="#00FF00" width="6.666" height="6.666"/>
			<rect x="506.666" y="413.334" fill="#00FF00" width="6.666" height="6.666"/>
			<rect x="506.666" y="406.666" fill="#00FF00" width="6.666" height="6.668"/>
			<rect x="500" y="586.666" fill="#00FF00" width="6.666" height="6.668"/>
			<rect x="500" y="580" fill="#00FF00" width="6.666" height="6.666"/>
			<rect x="500" y="573.334" fill="#00FF00" width="6.666" height="6.666"/>
			<rect x="500" y="566.666" fill="#00FF00" width="6.666" height="6.668"/>
			<rect x="500" y="560" fill="#00FF00" width="6.666" height="6.666"/>
			<rect x="500" y="553.334" fill="#00FF00" width="6.666" height="6.666"/>
			<rect x="500" y="546.666" fill="#00FF00" width="6.666" height="6.668"/>
			<rect x="500" y="526.666" fill="#00FF00" width="6.666" height="6.668"/>
			<rect x="500" y="520" fill="#00FF00" width="6.666" height="6.666"/>
			<rect x="500" y="513.334" fill="#00FF00" width="6.666" height="6.666"/>
			<rect x="500" y="506.666" fill="#00FF00" width="6.666" height="6.668"/>
			<rect x="500" y="500" fill="#00FF00" width="6.666" height="6.666"/>
			<rect x="500" y="493.334" fill="#00FF00" width="6.666" height="6.666"/>
			<rect x="500" y="486.666" fill="#00FF00" width="6.666" height="6.668"/>
			<rect x="500" y="480" fill="#00FF00" width="6.666" height="6.666"/>
			<rect x="500" y="473.334" fill="#00FF00" width="6.666" height="6.666"/>
			<rect x="500" y="466.666" fill="#00FF00" width="6.666" height="6.668"/>
			<rect x="500" y="460" fill="#00FF00" width="6.666" height="6.666"/>
			<rect x="500" y="453.334" fill="#00FF00" width="6.666" height="6.666"/>
			<rect x="500" y="446.666" fill="#00FF00" width="6.666" height="6.668"/>
			<rect x="500" y="440" fill="#00FF00" width="6.666" height="6.666"/>
			<rect x="500" y="433.334" fill="#00FF00" width="6.666" height="6.666"/>
			<rect x="500" y="426.666" fill="#00FF00" width="6.666" height="6.668"/>
			<rect x="500" y="420" fill="#00FF00" width="6.666" height="6.666"/>
			<rect x="500" y="413.334" fill="#00FF00" width="6.666" height="6.666"/>
			<rect x="500" y="406.666" fill="#00FF00" width="6.666" height="6.668"/>
			<rect x="493.333" y="586.666" fill="#00FF00" width="6.667" height="6.668"/>
			<rect x="493.333" y="580" fill="#00FF00" width="6.667" height="6.666"/>
			<rect x="493.333" y="573.334" fill="#00FF00" width="6.667" height="6.666"/>
			<rect x="493.333" y="566.666" fill="#00FF00" width="6.667" height="6.668"/>
			<rect x="493.333" y="560" fill="#00FF00" width="6.667" height="6.666"/>
			<rect x="493.333" y="553.334" fill="#00FF00" width="6.667" height="6.666"/>
			<rect x="493.333" y="546.666" fill="#00FF00" width="6.667" height="6.668"/>
			<rect x="493.333" y="526.666" fill="#00FF00" width="6.667" height="6.668"/>
			<rect x="493.333" y="520" fill="#00FF00" width="6.667" height="6.666"/>
			<rect x="493.333" y="513.334" fill="#00FF00" width="6.667" height="6.666"/>
			<rect x="493.333" y="506.666" fill="#00FF00" width="6.667" height="6.668"/>
			<rect x="493.333" y="500" fill="#00FF00" width="6.667" height="6.666"/>
			<rect x="493.333" y="493.334" fill="#00FF00" width="6.667" height="6.666"/>
			<rect x="493.333" y="486.666" fill="#00FF00" width="6.667" height="6.668"/>
			<rect x="493.333" y="480" fill="#00FF00" width="6.667" height="6.666"/>
			<rect x="493.333" y="473.334" fill="#00FF00" width="6.667" height="6.666"/>
			<rect x="493.333" y="466.666" fill="#00FF00" width="6.667" height="6.668"/>
			<rect x="493.333" y="460" fill="#00FF00" width="6.667" height="6.666"/>
			<rect x="493.333" y="433.334" fill="#00FF00" width="6.667" height="6.666"/>
			<rect x="493.333" y="426.666" fill="#00FF00" width="6.667" height="6.668"/>
			<rect x="493.333" y="420" fill="#00FF00" width="6.667" height="6.666"/>
			<rect x="493.333" y="413.334" fill="#00FF00" width="6.667" height="6.666"/>
			<rect x="486.667" y="553.334" fill="#00FF00" width="6.666" height="6.666"/>
			<rect x="486.667" y="546.666" fill="#00FF00" width="6.666" height="6.668"/>
			<rect x="486.667" y="526.666" fill="#00FF00" width="6.666" height="6.668"/>
			<rect x="486.667" y="520" fill="#00FF00" width="6.666" height="6.666"/>
			<rect x="486.667" y="513.334" fill="#00FF00" width="6.666" height="6.666"/>
			<rect x="486.667" y="506.666" fill="#00FF00" width="6.666" height="6.668"/>
			<rect x="486.667" y="500" fill="#00FF00" width="6.666" height="6.666"/>
			<rect x="486.667" y="493.334" fill="#00FF00" width="6.666" height="6.666"/>
			<rect x="486.667" y="486.666" fill="#00FF00" width="6.666" height="6.668"/>
			<rect x="486.667" y="480" fill="#00FF00" width="6.666" height="6.666"/>
			<rect x="486.667" y="473.334" fill="#00FF00" width="6.666" height="6.666"/>
			<rect x="486.667" y="466.666" fill="#00FF00" width="6.666" height="6.668"/>
			<rect x="486.667" y="460" fill="#00FF00" width="6.666" height="6.666"/>
			<rect x="486.667" y="426.666" fill="#00FF00" width="6.666" height="6.668"/>
			<rect x="486.667" y="420" fill="#00FF00" width="6.666" height="6.666"/>
			<rect x="480" y="553.334" fill="#00FF00" width="6.666" height="6.666"/>
			<rect x="480" y="546.666" fill="#00FF00" width="6.666" height="6.668"/>
			<rect x="480" y="526.666" fill="#00FF00" width="6.666" height="6.668"/>
			<rect x="480" y="520" fill="#00FF00" width="6.666" height="6.666"/>
			<rect x="480" y="513.334" fill="#00FF00" width="6.666" height="6.666"/>
			<rect x="480" y="506.666" fill="#00FF00" width="6.666" height="6.668"/>
			<rect x="480" y="500" fill="#00FF00" width="6.666" height="6.666"/>
			<rect x="480" y="493.334" fill="#00FF00" width="6.666" height="6.666"/>
			<rect x="480" y="486.666" fill="#00FF00" width="6.666" height="6.668"/>
			<rect x="480" y="480" fill="#00FF00" width="6.666" height="6.666"/>
			<rect x="480" y="473.334" fill="#00FF00" width="6.666" height="6.666"/>
			<rect x="480" y="466.666" fill="#00FF00" width="6.666" height="6.668"/>
			<rect x="480" y="460" fill="#00FF00" width="6.666" height="6.666"/>
			<rect x="473.333" y="546.666" fill="#00FF00" width="6.668" height="6.668"/>
			<rect x="473.333" y="540" fill="#00FF00" width="6.668" height="6.666"/>
			<rect x="473.333" y="526.666" fill="#00FF00" width="6.668" height="6.668"/>
			<rect x="473.333" y="520" fill="#00FF00" width="6.668" height="6.666"/>
			<rect x="473.333" y="513.334" fill="#00FF00" width="6.668" height="6.666"/>
			<rect x="473.333" y="506.666" fill="#00FF00" width="6.668" height="6.668"/>
			<rect x="473.333" y="500" fill="#00FF00" width="6.668" height="6.666"/>
			<rect x="473.333" y="493.334" fill="#00FF00" width="6.668" height="6.666"/>
			<rect x="473.333" y="486.666" fill="#00FF00" width="6.668" height="6.668"/>
			<rect x="473.333" y="480" fill="#00FF00" width="6.668" height="6.666"/>
			<rect x="473.333" y="473.334" fill="#00FF00" width="6.668" height="6.666"/>
			<rect x="473.333" y="466.666" fill="#00FF00" width="6.668" height="6.668"/>
			<rect x="473.333" y="460" fill="#00FF00" width="6.668" height="6.666"/>
			<rect x="466.667" y="546.666" fill="#00FF00" width="6.666" height="6.668"/>
			<rect x="466.667" y="540" fill="#00FF00" width="6.666" height="6.666"/>
			<rect x="466.667" y="526.666" fill="#00FF00" width="6.666" height="6.668"/>
			<rect x="466.667" y="520" fill="#00FF00" width="6.666" height="6.666"/>
			<rect x="466.667" y="513.334" fill="#00FF00" width="6.666" height="6.666"/>
			<rect x="466.667" y="506.666" fill="#00FF00" width="6.666" height="6.668"/>
			<rect x="466.667" y="500" fill="#00FF00" width="6.666" height="6.666"/>
			<rect x="466.667" y="493.334" fill="#00FF00" width="6.666" height="6.666"/>
			<rect x="466.667" y="486.666" fill="#00FF00" width="6.666" height="6.668"/>
			<rect x="466.667" y="480" fill="#00FF00" width="6.666" height="6.666"/>
			<rect x="466.667" y="473.334" fill="#00FF00" width="6.666" height="6.666"/>
			<rect x="466.667" y="466.666" fill="#00FF00" width="6.666" height="6.668"/>
			<rect x="460" y="546.666" fill="#00FF00" width="6.666" height="6.668"/>
			<rect x="460" y="540" fill="#00FF00" width="6.666" height="6.666"/>
			<rect x="460" y="526.666" fill="#00FF00" width="6.666" height="6.668"/>
			<rect x="460" y="520" fill="#00FF00" width="6.666" height="6.666"/>
			<rect x="460" y="513.334" fill="#00FF00" width="6.666" height="6.666"/>
			<rect x="460" y="506.666" fill="#00FF00" width="6.666" height="6.668"/>
			<rect x="460" y="500" fill="#00FF00" width="6.666" height="6.666"/>
			<rect x="460" y="493.334" fill="#00FF00" width="6.666" height="6.666"/>
			<rect x="460" y="486.666" fill="#00FF00" width="6.666" height="6.668"/>
			<rect x="460" y="480" fill="#00FF00" width="6.666" height="6.666"/>
			<rect x="460" y="473.334" fill="#00FF00" width="6.666" height="6.666"/>
			<rect x="460" y="466.666" fill="#00FF00" width="6.666" height="6.668"/>
			<rect x="453.333" y="546.666" fill="#00FF00" width="6.668" height="6.668"/>
			<rect x="453.333" y="540" fill="#00FF00" width="6.668" height="6.666"/>
			<rect x="453.333" y="520" fill="#00FF00" width="6.668" height="6.666"/>
			<rect x="453.333" y="513.334" fill="#00FF00" width="6.668" height="6.666"/>
			<rect x="453.333" y="506.666" fill="#00FF00" width="6.668" height="6.668"/>
			<rect x="453.333" y="500" fill="#00FF00" width="6.668" height="6.666"/>
			<rect x="453.333" y="493.334" fill="#00FF00" width="6.668" height="6.666"/>
			<rect x="453.333" y="486.666" fill="#00FF00" width="6.668" height="6.668"/>
			<rect x="453.333" y="480" fill="#00FF00" width="6.668" height="6.666"/>
			<rect x="453.333" y="473.334" fill="#00FF00" width="6.668" height="6.666"/>
			<rect x="446.667" y="546.666" fill="#00FF00" width="6.666" height="6.668"/>
			<rect x="446.667" y="540" fill="#00FF00" width="6.666" height="6.666"/>
			<rect x="446.667" y="520" fill="#00FF00" width="6.666" height="6.666"/>
			<rect x="446.667" y="513.334" fill="#00FF00" width="6.666" height="6.666"/>
			<rect x="446.667" y="506.666" fill="#00FF00" width="6.666" height="6.668"/>
			<rect x="446.667" y="500" fill="#00FF00" width="6.666" height="6.666"/>
			<rect x="446.667" y="493.334" fill="#00FF00" width="6.666" height="6.666"/>
			<rect x="446.667" y="486.666" fill="#00FF00" width="6.666" height="6.668"/>
			<rect x="446.667" y="480" fill="#00FF00" width="6.666" height="6.666"/>
			<rect x="440" y="546.666" fill="#00FF00" width="6.666" height="6.668"/>
			<rect x="440" y="540" fill="#00FF00" width="6.666" height="6.666"/>
			<rect x="440" y="520" fill="#00FF00" width="6.666" height="6.666"/>
			<rect x="440" y="513.334" fill="#00FF00" width="6.666" height="6.666"/>
			<rect x="440" y="506.666" fill="#00FF00" width="6.666" height="6.668"/>
			<rect x="440" y="500" fill="#00FF00" width="6.666" height="6.666"/>
			<rect x="440" y="493.334" fill="#00FF00" width="6.666" height="6.666"/>
			<rect x="440" y="486.666" fill="#00FF00" width="6.666" height="6.668"/>
			<rect x="433.333" y="566.666" fill="#00FF00" width="6.668" height="6.668"/>
			<rect x="433.333" y="560" fill="#00FF00" width="6.668" height="6.666"/>
			<rect x="433.333" y="553.334" fill="#00FF00" width="6.668" height="6.666"/>
			<rect x="433.333" y="546.666" fill="#00FF00" width="6.668" height="6.668"/>
			<rect x="433.333" y="540" fill="#00FF00" width="6.668" height="6.666"/>
			<rect x="433.333" y="513.334" fill="#00FF00" width="6.668" height="6.666"/>
			<rect x="433.333" y="506.666" fill="#00FF00" width="6.668" height="6.668"/>
			<rect x="433.333" y="500" fill="#00FF00" width="6.668" height="6.666"/>
			<rect x="426.667" y="580" fill="#00FF00" width="6.666" height="6.666"/>
			<rect x="426.667" y="573.334" fill="#00FF00" width="6.666" height="6.666"/>
			<rect x="426.667" y="566.666" fill="#00FF00" width="6.666" height="6.668"/>
			<rect x="426.667" y="560" fill="#00FF00" width="6.666" height="6.666"/>
			<rect x="426.667" y="553.334" fill="#00FF00" width="6.666" height="6.666"/>
			<rect x="426.667" y="546.666" fill="#00FF00" width="6.666" height="6.668"/>
			<rect x="426.667" y="540" fill="#00FF00" width="6.666" height="6.666"/>
			<rect x="426.667" y="533.334" fill="#00FF00" width="6.666" height="6.666"/>
			<rect x="420" y="580" fill="#00FF00" width="6.666" height="6.666"/>
			<rect x="420" y="573.334" fill="#00FF00" width="6.666" height="6.666"/>
			<rect x="420" y="566.666" fill="#00FF00" width="6.666" height="6.668"/>
			<rect x="420" y="540" fill="#00FF00" width="6.666" height="6.666"/>
			<rect x="420" y="533.334" fill="#00FF00" width="6.666" height="6.666"/>
			<rect x="420" y="526.666" fill="#00FF00" width="6.666" height="6.668"/>
			<rect x="420" y="500" fill="#00FF00" width="6.666" height="6.666"/>
			<rect x="420" y="493.334" fill="#00FF00" width="6.666" height="6.666"/>
			<rect x="413.332" y="533.334" fill="#00FF00" width="6.668" height="6.666"/>
			<rect x="413.332" y="526.666" fill="#00FF00" width="6.668" height="6.668"/>
			<rect x="413.332" y="520" fill="#00FF00" width="6.668" height="6.666"/>
			<rect x="413.332" y="506.666" fill="#00FF00" width="6.668" height="6.668"/>
			<rect x="413.332" y="500" fill="#00FF00" width="6.668" height="6.666"/>
			<rect x="413.332" y="493.334" fill="#00FF00" width="6.668" height="6.666"/>
			<rect x="406.666" y="526.666" fill="#00FF00" width="6.666" height="6.668"/>
			<rect x="406.666" y="520" fill="#00FF00" width="6.666" height="6.666"/>
			<rect x="406.666" y="513.334" fill="#00FF00" width="6.666" height="6.666"/>
			<rect x="406.666" y="506.666" fill="#00FF00" width="6.666" height="6.668"/>
			<rect x="406.666" y="500" fill="#00FF00" width="6.666" height="6.666"/>
			<rect x="400" y="520" fill="#00FF00" width="6.666" height="6.666"/>
			<rect x="400" y="513.334" fill="#00FF00" width="6.666" height="6.666"/>
		</g>
	</g>
</g>
</svg>
