<?xml version="1.0" encoding="utf-8"?>
<!-- Generator: Adobe Illustrator 16.0.0, SVG Export Plug-In . SVG Version: 6.00 Build 0)  -->
<!DOCTYPE svg PUBLIC "-//W3C//DTD SVG 1.1//EN" "http://www.w3.org/Graphics/SVG/1.1/DTD/svg11.dtd">
<svg version="1.1" id="Layer_1" xmlns="http://www.w3.org/2000/svg" xmlns:xlink="http://www.w3.org/1999/xlink" x="0px" y="0px"
	 width="200px" height="201.02px" viewBox="400 399.49 200 201.02" enable-background="new 400 399.49 200 201.02"
	 xml:space="preserve">
<g id="Layer_2">
	<g id="XMLID_1_">
		<g>
			<rect x="440" y="520" fill="#FFD700" width="6.668" height="6.666"/>
			<rect x="566.668" y="513.334" fill="#FFD700" width="6.666" height="6.666"/>
			<rect x="546.668" y="520" fill="#FFD700" width="6.666" height="6.666"/>
			<rect x="520" y="526.666" fill="#FFD700" width="6.668" height="6.668"/>
			<rect x="473.334" y="526.666" fill="#FFD700" width="6.666" height="6.668"/>
			<rect x="513.334" y="526.666" fill="#FFD700" width="6.666" height="6.668"/>
			<rect x="480" y="526.666" fill="#FFD700" width="6.668" height="6.668"/>
			<rect x="400" y="493.334" fill="#FFD700" width="6.668" height="6.666"/>
			<rect x="400" y="480" fill="#FFD700" width="6.668" height="6.666"/>
			<rect x="593.334" y="493.334" fill="#FFD700" width="6.666" height="6.666"/>
			<rect x="593.334" y="480" fill="#FFD700" width="6.666" height="6.666"/>
			<rect x="506.668" y="453.334" fill="#FFD700" width="6.666" height="6.666"/>
			<rect x="486.668" y="453.334" fill="#FFD700" width="6.666" height="6.666"/>
			<rect x="493.334" y="460" fill="#FFD700" width="6.666" height="6.666"/>
			<rect x="500" y="460" fill="#FFD700" width="6.668" height="6.666"/>
			<rect x="453.334" y="440" fill="#FFD700" width="6.666" height="6.666"/>
			<rect x="520" y="460" fill="#FFD700" width="6.668" height="6.666"/>
			<rect x="520" y="453.334" fill="#FFD700" width="6.668" height="6.666"/>
			<rect x="520" y="446.666" fill="#FFD700" width="6.668" height="6.668"/>
			<rect x="473.334" y="460" fill="#FFD700" width="6.666" height="6.666"/>
			<rect x="473.334" y="453.334" fill="#FFD700" width="6.666" height="6.666"/>
			<rect x="473.334" y="446.666" fill="#FFD700" width="6.666" height="6.668"/>
			<rect x="480" y="466.666" fill="#FFD700" width="6.668" height="6.668"/>
			<rect x="500" y="466.666" fill="#FFD700" width="6.668" height="6.668"/>
			<rect x="493.334" y="466.666" fill="#FFD700" width="6.666" height="6.668"/>
			<rect x="513.334" y="466.666" fill="#FFD700" width="6.666" height="6.668"/>
			<rect x="500" y="453.334" fill="#FFD700" width="6.668" height="6.666"/>
			<rect x="493.334" y="453.334" fill="#FFD700" width="6.666" height="6.666"/>
			<rect x="500" y="446.666" fill="#FFD700" width="6.668" height="6.668"/>
			<rect x="506.668" y="446.666" fill="#FFD700" width="6.666" height="6.668"/>
			<rect x="513.334" y="446.666" fill="#FFD700" width="6.666" height="6.668"/>
			<rect x="493.334" y="446.666" fill="#FFD700" width="6.666" height="6.668"/>
			<rect x="486.668" y="446.666" fill="#FFD700" width="6.666" height="6.668"/>
			<rect x="480" y="446.666" fill="#FFD700" width="6.668" height="6.668"/>
			<rect x="480" y="440" fill="#FFD700" width="6.668" height="6.666"/>
			<rect x="486.668" y="440" fill="#FFD700" width="6.666" height="6.666"/>
			<rect x="493.334" y="440" fill="#FFD700" width="6.666" height="6.666"/>
			<rect x="500" y="440" fill="#FFD700" width="6.668" height="6.666"/>
			<rect x="506.668" y="440" fill="#FFD700" width="6.666" height="6.666"/>
			<rect x="513.334" y="440" fill="#FFD700" width="6.666" height="6.666"/>
			<rect x="506.668" y="433.334" fill="#FFD700" width="6.666" height="6.666"/>
			<rect x="500" y="433.334" fill="#FFD700" width="6.668" height="6.666"/>
			<rect x="493.334" y="433.334" fill="#FFD700" width="6.666" height="6.666"/>
			<rect x="486.668" y="433.334" fill="#FFD700" width="6.666" height="6.666"/>
			<rect x="593.334" y="486.666" fill="#FFD700" width="6.666" height="6.668"/>
			<rect x="586.668" y="493.334" fill="#FFD700" width="6.666" height="6.666"/>
			<rect x="586.668" y="486.666" fill="#FFD700" width="6.666" height="6.668"/>
			<rect x="586.668" y="500" fill="#FFD700" width="6.666" height="6.666"/>
			<rect x="586.668" y="480" fill="#FFD700" width="6.666" height="6.666"/>
			<rect x="586.668" y="473.334" fill="#FFD700" width="6.666" height="6.666"/>
			<rect x="580" y="506.666" fill="#FFD700" width="6.668" height="6.668"/>
			<rect x="580" y="480" fill="#FFD700" width="6.668" height="6.666"/>
			<rect x="580" y="493.334" fill="#FFD700" width="6.668" height="6.666"/>
			<rect x="580" y="466.666" fill="#FFD700" width="6.668" height="6.668"/>
			<rect x="580" y="473.334" fill="#FFD700" width="6.668" height="6.666"/>
			<rect x="580" y="486.666" fill="#FFD700" width="6.668" height="6.668"/>
			<rect x="580" y="500" fill="#FFD700" width="6.668" height="6.666"/>
			<rect x="493.334" y="526.666" fill="#FFD700" width="6.666" height="6.668"/>
			<rect x="506.668" y="526.666" fill="#FFD700" width="6.666" height="6.668"/>
			<rect x="500" y="526.666" fill="#FFD700" width="6.668" height="6.668"/>
			<rect x="486.668" y="526.666" fill="#FFD700" width="6.666" height="6.668"/>
			<rect x="533.334" y="520" fill="#FFD700" width="6.666" height="6.666"/>
			<rect x="526.668" y="520" fill="#FFD700" width="6.666" height="6.666"/>
			<rect x="540" y="520" fill="#FFD700" width="6.668" height="6.666"/>
			<rect x="520" y="520" fill="#FFD700" width="6.668" height="6.666"/>
			<rect x="546.668" y="513.334" fill="#FFD700" width="6.666" height="6.666"/>
			<rect x="533.334" y="513.334" fill="#FFD700" width="6.666" height="6.666"/>
			<rect x="540" y="513.334" fill="#FFD700" width="6.668" height="6.666"/>
			<rect x="553.334" y="513.334" fill="#FFD700" width="6.666" height="6.666"/>
			<rect x="560" y="513.334" fill="#FFD700" width="6.668" height="6.666"/>
			<rect x="486.668" y="513.334" fill="#FFD700" width="6.666" height="6.666"/>
			<rect x="506.668" y="513.334" fill="#FFD700" width="6.666" height="6.666"/>
			<rect x="486.668" y="493.334" fill="#FFD700" width="6.666" height="6.666"/>
			<rect x="506.668" y="493.334" fill="#FFD700" width="6.666" height="6.666"/>
			<rect x="566.668" y="500" fill="#FFD700" width="6.666" height="6.666"/>
			<rect x="546.668" y="500" fill="#FFD700" width="6.666" height="6.666"/>
			<rect x="566.668" y="480" fill="#FFD700" width="6.666" height="6.666"/>
			<rect x="546.668" y="480" fill="#FFD700" width="6.666" height="6.666"/>
			<rect x="540" y="480" fill="#FFD700" width="6.668" height="6.666"/>
			<rect x="540" y="493.334" fill="#FFD700" width="6.668" height="6.666"/>
			<rect x="540" y="500" fill="#FFD700" width="6.668" height="6.666"/>
			<rect x="540" y="486.666" fill="#FFD700" width="6.668" height="6.668"/>
			<rect x="546.668" y="506.666" fill="#FFD700" width="6.666" height="6.668"/>
			<rect x="540" y="506.666" fill="#FFD700" width="6.668" height="6.668"/>
			<rect x="566.668" y="506.666" fill="#FFD700" width="6.666" height="6.668"/>
			<rect x="573.334" y="506.666" fill="#FFD700" width="6.666" height="6.668"/>
			<rect x="560" y="506.666" fill="#FFD700" width="6.668" height="6.668"/>
			<rect x="553.334" y="506.666" fill="#FFD700" width="6.666" height="6.668"/>
			<rect x="573.334" y="486.666" fill="#FFD700" width="6.666" height="6.668"/>
			<rect x="573.334" y="466.666" fill="#FFD700" width="6.666" height="6.668"/>
			<rect x="573.334" y="500" fill="#FFD700" width="6.666" height="6.666"/>
			<rect x="573.334" y="473.334" fill="#FFD700" width="6.666" height="6.666"/>
			<rect x="573.334" y="480" fill="#FFD700" width="6.666" height="6.666"/>
			<rect x="573.334" y="493.334" fill="#FFD700" width="6.666" height="6.666"/>
			<rect x="546.668" y="473.334" fill="#FFD700" width="6.666" height="6.666"/>
			<rect x="566.668" y="473.334" fill="#FFD700" width="6.666" height="6.666"/>
			<rect x="566.668" y="460" fill="#FFD700" width="6.666" height="6.666"/>
			<rect x="566.668" y="466.666" fill="#FFD700" width="6.666" height="6.668"/>
			<rect x="553.334" y="466.666" fill="#FFD700" width="6.666" height="6.668"/>
			<rect x="560" y="466.666" fill="#FFD700" width="6.668" height="6.668"/>
			<rect x="553.334" y="473.334" fill="#FFD700" width="6.666" height="6.666"/>
			<rect x="560" y="473.334" fill="#FFD700" width="6.668" height="6.666"/>
			<rect x="560" y="460" fill="#FFD700" width="6.668" height="6.666"/>
			<rect x="553.334" y="460" fill="#FFD700" width="6.666" height="6.666"/>
			<rect x="546.668" y="466.666" fill="#FFD700" width="6.666" height="6.668"/>
			<rect x="546.668" y="453.334" fill="#FFD700" width="6.666" height="6.666"/>
			<rect x="546.668" y="460" fill="#FFD700" width="6.666" height="6.666"/>
			<rect x="540" y="473.334" fill="#FFD700" width="6.668" height="6.666"/>
			<rect x="540" y="466.666" fill="#FFD700" width="6.668" height="6.668"/>
			<rect x="540" y="440" fill="#FFD700" width="6.668" height="6.666"/>
			<rect x="546.668" y="446.666" fill="#FFD700" width="6.666" height="6.668"/>
			<rect x="546.668" y="440" fill="#FFD700" width="6.666" height="6.666"/>
			<rect x="540" y="433.334" fill="#FFD700" width="6.668" height="6.666"/>
			<rect x="540" y="426.666" fill="#FFD700" width="6.668" height="6.668"/>
			<rect x="533.334" y="426.666" fill="#FFD700" width="6.666" height="6.668"/>
			<rect x="533.334" y="420" fill="#FFD700" width="6.666" height="6.666"/>
			<rect x="526.668" y="420" fill="#FFD700" width="6.666" height="6.666"/>
			<rect x="526.668" y="413.334" fill="#FFD700" width="6.666" height="6.666"/>
			<rect x="520" y="413.334" fill="#FFD700" width="6.668" height="6.666"/>
			<rect x="513.334" y="413.334" fill="#FFD700" width="6.666" height="6.666"/>
			<rect x="513.334" y="406.666" fill="#FFD700" width="6.666" height="6.668"/>
			<rect x="506.668" y="406.666" fill="#FFD700" width="6.666" height="6.668"/>
			<rect x="500" y="406.666" fill="#FFD700" width="6.668" height="6.668"/>
			<rect x="493.334" y="406.666" fill="#FFD700" width="6.666" height="6.668"/>
			<rect x="486.668" y="406.666" fill="#FFD700" width="6.666" height="6.668"/>
			<rect x="480" y="406.666" fill="#FFD700" width="6.668" height="6.668"/>
			<rect x="480" y="413.334" fill="#FFD700" width="6.668" height="6.666"/>
			<rect x="473.334" y="413.334" fill="#FFD700" width="6.666" height="6.666"/>
			<rect x="466.668" y="413.334" fill="#FFD700" width="6.666" height="6.666"/>
			<rect x="466.668" y="420" fill="#FFD700" width="6.666" height="6.666"/>
			<rect x="460" y="420" fill="#FFD700" width="6.668" height="6.666"/>
			<rect x="453.334" y="426.666" fill="#FFD700" width="6.666" height="6.668"/>
			<rect x="460" y="426.666" fill="#FFD700" width="6.668" height="6.668"/>
			<rect x="560" y="540" fill="#FFD700" width="6.668" height="6.666"/>
			<rect x="580" y="566.666" fill="#FFD700" width="6.668" height="6.668"/>
			<rect x="580" y="573.334" fill="#FFD700" width="6.668" height="6.666"/>
			<rect x="566.668" y="546.666" fill="#FFD700" width="6.666" height="6.668"/>
			<rect x="566.668" y="553.334" fill="#FFD700" width="6.666" height="6.666"/>
			<rect x="573.334" y="566.666" fill="#FFD700" width="6.666" height="6.668"/>
			<rect x="573.334" y="560" fill="#FFD700" width="6.666" height="6.666"/>
			<rect x="573.334" y="553.334" fill="#FFD700" width="6.666" height="6.666"/>
			<rect x="560" y="546.666" fill="#FFD700" width="6.668" height="6.668"/>
			<rect x="493.334" y="553.334" fill="#FFD700" width="6.666" height="6.666"/>
			<rect x="493.334" y="573.334" fill="#FFD700" width="6.666" height="6.666"/>
			<rect x="493.334" y="560" fill="#FFD700" width="6.666" height="6.666"/>
			<rect x="493.334" y="566.666" fill="#FFD700" width="6.666" height="6.668"/>
			<rect x="493.334" y="586.666" fill="#FFD700" width="6.666" height="6.668"/>
			<rect x="493.334" y="580" fill="#FFD700" width="6.666" height="6.666"/>
			<rect x="500" y="580" fill="#FFD700" width="6.668" height="6.666"/>
			<rect x="500" y="586.666" fill="#FFD700" width="6.668" height="6.668"/>
			<rect x="500" y="573.334" fill="#FFD700" width="6.668" height="6.666"/>
			<rect x="500" y="566.666" fill="#FFD700" width="6.668" height="6.668"/>
			<rect x="500" y="560" fill="#FFD700" width="6.668" height="6.666"/>
			<rect x="500" y="553.334" fill="#FFD700" width="6.668" height="6.666"/>
			<rect x="413.334" y="580" fill="#FFD700" width="6.666" height="6.666"/>
			<rect x="426.668" y="540" fill="#FFD700" width="6.666" height="6.666"/>
			<rect x="413.334" y="573.334" fill="#FFD700" width="6.666" height="6.666"/>
			<rect x="420" y="566.666" fill="#FFD700" width="6.668" height="6.668"/>
			<rect x="413.334" y="566.666" fill="#FFD700" width="6.666" height="6.668"/>
			<rect x="420" y="560" fill="#FFD700" width="6.668" height="6.666"/>
			<rect x="426.668" y="553.334" fill="#FFD700" width="6.666" height="6.666"/>
			<rect x="420" y="553.334" fill="#FFD700" width="6.668" height="6.666"/>
			<rect x="426.668" y="546.666" fill="#FFD700" width="6.666" height="6.668"/>
			<rect x="446.668" y="500" fill="#FFD700" width="6.666" height="6.666"/>
			<rect x="426.668" y="500" fill="#FFD700" width="6.666" height="6.666"/>
			<rect x="426.668" y="480" fill="#FFD700" width="6.666" height="6.666"/>
			<rect x="446.668" y="480" fill="#FFD700" width="6.666" height="6.666"/>
			<rect x="453.334" y="493.334" fill="#FFD700" width="6.666" height="6.666"/>
			<rect x="440" y="453.334" fill="#FFD700" width="6.668" height="6.666"/>
			<rect x="453.334" y="433.334" fill="#FFD700" width="6.666" height="6.666"/>
			<rect x="446.668" y="440" fill="#FFD700" width="6.666" height="6.666"/>
			<rect x="446.668" y="446.666" fill="#FFD700" width="6.666" height="6.668"/>
			<rect x="446.668" y="453.334" fill="#FFD700" width="6.666" height="6.666"/>
			<rect x="433.334" y="460" fill="#FFD700" width="6.666" height="6.666"/>
			<rect x="426.668" y="460" fill="#FFD700" width="6.666" height="6.666"/>
			<rect x="446.668" y="460" fill="#FFD700" width="6.666" height="6.666"/>
			<rect x="440" y="460" fill="#FFD700" width="6.668" height="6.666"/>
			<rect x="420" y="466.666" fill="#FFD700" width="6.668" height="6.668"/>
			<rect x="413.334" y="466.666" fill="#FFD700" width="6.666" height="6.668"/>
			<rect x="433.334" y="466.666" fill="#FFD700" width="6.666" height="6.668"/>
			<rect x="426.668" y="466.666" fill="#FFD700" width="6.666" height="6.668"/>
			<rect x="453.334" y="466.666" fill="#FFD700" width="6.666" height="6.668"/>
			<rect x="446.668" y="466.666" fill="#FFD700" width="6.666" height="6.668"/>
			<rect x="440" y="466.666" fill="#FFD700" width="6.668" height="6.668"/>
			<rect x="473.334" y="473.334" fill="#FFD700" width="6.666" height="6.666"/>
			<rect x="480" y="473.334" fill="#FFD700" width="6.668" height="6.666"/>
			<rect x="486.668" y="473.334" fill="#FFD700" width="6.666" height="6.666"/>
			<rect x="493.334" y="473.334" fill="#FFD700" width="6.666" height="6.666"/>
			<rect x="500" y="473.334" fill="#FFD700" width="6.668" height="6.666"/>
			<rect x="506.668" y="473.334" fill="#FFD700" width="6.666" height="6.666"/>
			<rect x="460" y="520" fill="#FFD700" width="6.668" height="6.666"/>
			<rect x="446.668" y="520" fill="#FFD700" width="6.666" height="6.666"/>
			<rect x="453.334" y="520" fill="#FFD700" width="6.666" height="6.666"/>
			<rect x="433.334" y="513.334" fill="#FFD700" width="6.666" height="6.666"/>
			<rect x="426.668" y="513.334" fill="#FFD700" width="6.666" height="6.666"/>
			<rect x="446.668" y="513.334" fill="#FFD700" width="6.666" height="6.666"/>
			<rect x="440" y="513.334" fill="#FFD700" width="6.668" height="6.666"/>
			<rect x="453.334" y="513.334" fill="#FFD700" width="6.666" height="6.666"/>
			<rect x="433.334" y="506.666" fill="#FFD700" width="6.666" height="6.668"/>
			<rect x="426.668" y="506.666" fill="#FFD700" width="6.666" height="6.668"/>
			<rect x="446.668" y="506.666" fill="#FFD700" width="6.666" height="6.668"/>
			<rect x="440" y="506.666" fill="#FFD700" width="6.668" height="6.668"/>
			<rect x="413.334" y="506.666" fill="#FFD700" width="6.666" height="6.668"/>
			<rect x="420" y="506.666" fill="#FFD700" width="6.668" height="6.668"/>
			<rect x="406.668" y="473.334" fill="#FFD700" width="6.666" height="6.666"/>
			<rect x="406.668" y="480" fill="#FFD700" width="6.666" height="6.666"/>
			<rect x="400" y="486.666" fill="#FFD700" width="6.668" height="6.668"/>
			<rect x="406.668" y="486.666" fill="#FFD700" width="6.666" height="6.668"/>
			<rect x="420" y="493.334" fill="#FFD700" width="6.668" height="6.666"/>
			<rect x="420" y="500" fill="#FFD700" width="6.668" height="6.666"/>
			<rect x="420" y="473.334" fill="#FFD700" width="6.668" height="6.666"/>
			<rect x="420" y="486.666" fill="#FFD700" width="6.668" height="6.668"/>
			<rect x="420" y="480" fill="#FFD700" width="6.668" height="6.666"/>
			<rect x="413.334" y="500" fill="#FFD700" width="6.666" height="6.666"/>
			<rect x="413.334" y="493.334" fill="#FFD700" width="6.666" height="6.666"/>
			<rect x="413.334" y="486.666" fill="#FFD700" width="6.666" height="6.668"/>
			<rect x="413.334" y="480" fill="#FFD700" width="6.666" height="6.666"/>
			<rect x="413.334" y="473.334" fill="#FFD700" width="6.666" height="6.666"/>
			<rect x="433.334" y="473.334" fill="#FFD700" width="6.666" height="6.666"/>
			<rect x="426.668" y="473.334" fill="#FFD700" width="6.666" height="6.666"/>
			<rect x="406.668" y="500" fill="#FFD700" width="6.666" height="6.666"/>
			<rect x="406.668" y="493.334" fill="#FFD700" width="6.666" height="6.666"/>
			<rect x="446.668" y="473.334" fill="#FFD700" width="6.666" height="6.666"/>
			<rect x="440" y="473.334" fill="#FFD700" width="6.668" height="6.666"/>
			<rect x="466.668" y="473.334" fill="#FFD700" width="6.666" height="6.666"/>
			<rect x="453.334" y="473.334" fill="#FFD700" width="6.666" height="6.666"/>
			<rect x="460" y="473.334" fill="#FFD700" width="6.668" height="6.666"/>
			<rect x="460" y="480" fill="#FFD700" width="6.668" height="6.666"/>
			<rect x="453.334" y="480" fill="#FFD700" width="6.666" height="6.666"/>
			<rect x="460" y="486.666" fill="#FFD700" width="6.668" height="6.668"/>
			<rect x="453.334" y="486.666" fill="#FFD700" width="6.666" height="6.668"/>
			<rect x="533.334" y="486.666" fill="#FFD700" width="6.666" height="6.668"/>
			<rect x="533.334" y="473.334" fill="#FFD700" width="6.666" height="6.666"/>
			<rect x="533.334" y="500" fill="#FFD700" width="6.666" height="6.666"/>
			<rect x="533.334" y="480" fill="#FFD700" width="6.666" height="6.666"/>
			<rect x="533.334" y="493.334" fill="#FFD700" width="6.666" height="6.666"/>
			<rect x="533.334" y="506.666" fill="#FFD700" width="6.666" height="6.668"/>
			<rect x="526.668" y="513.334" fill="#FFD700" width="6.666" height="6.666"/>
			<rect x="526.668" y="506.666" fill="#FFD700" width="6.666" height="6.668"/>
			<rect x="526.668" y="500" fill="#FFD700" width="6.666" height="6.666"/>
			<rect x="526.668" y="493.334" fill="#FFD700" width="6.666" height="6.666"/>
			<rect x="526.668" y="486.666" fill="#FFD700" width="6.666" height="6.668"/>
			<rect x="520" y="513.334" fill="#FFD700" width="6.668" height="6.666"/>
			<rect x="513.334" y="493.334" fill="#FFD700" width="6.666" height="6.666"/>
			<rect x="520" y="480" fill="#FFD700" width="6.668" height="6.666"/>
			<rect x="520" y="493.334" fill="#FFD700" width="6.668" height="6.666"/>
			<rect x="513.334" y="520" fill="#FFD700" width="6.666" height="6.666"/>
			<rect x="526.668" y="473.334" fill="#FFD700" width="6.666" height="6.666"/>
			<rect x="520" y="486.666" fill="#FFD700" width="6.668" height="6.668"/>
			<rect x="526.668" y="480" fill="#FFD700" width="6.666" height="6.666"/>
			<rect x="520" y="500" fill="#FFD700" width="6.668" height="6.666"/>
			<rect x="513.334" y="513.334" fill="#FFD700" width="6.666" height="6.666"/>
			<rect x="513.334" y="500" fill="#FFD700" width="6.666" height="6.666"/>
			<rect x="513.334" y="506.666" fill="#FFD700" width="6.666" height="6.668"/>
			<rect x="520" y="473.334" fill="#FFD700" width="6.668" height="6.666"/>
			<rect x="520" y="506.666" fill="#FFD700" width="6.668" height="6.668"/>
			<rect x="513.334" y="473.334" fill="#FFD700" width="6.666" height="6.666"/>
			<rect x="513.334" y="480" fill="#FFD700" width="6.666" height="6.666"/>
			<rect x="506.668" y="520" fill="#FFD700" width="6.666" height="6.666"/>
			<rect x="500" y="520" fill="#FFD700" width="6.668" height="6.666"/>
			<rect x="513.334" y="486.666" fill="#FFD700" width="6.666" height="6.668"/>
			<rect x="493.334" y="520" fill="#FFD700" width="6.666" height="6.666"/>
			<rect x="486.668" y="520" fill="#FFD700" width="6.666" height="6.666"/>
			<rect x="466.668" y="520" fill="#FFD700" width="6.666" height="6.666"/>
			<rect x="473.334" y="520" fill="#FFD700" width="6.666" height="6.666"/>
			<rect x="473.334" y="513.334" fill="#FFD700" width="6.666" height="6.666"/>
			<rect x="480" y="513.334" fill="#FFD700" width="6.668" height="6.666"/>
			<rect x="480" y="506.666" fill="#FFD700" width="6.668" height="6.668"/>
			<rect x="480" y="493.334" fill="#FFD700" width="6.668" height="6.666"/>
			<rect x="480" y="500" fill="#FFD700" width="6.668" height="6.666"/>
			<rect x="480" y="520" fill="#FFD700" width="6.668" height="6.666"/>
			<rect x="493.334" y="486.666" fill="#FFD700" width="6.666" height="6.668"/>
			<rect x="493.334" y="480" fill="#FFD700" width="6.666" height="6.666"/>
			<rect x="486.668" y="486.666" fill="#FFD700" width="6.666" height="6.668"/>
			<rect x="486.668" y="480" fill="#FFD700" width="6.666" height="6.666"/>
			<rect x="466.668" y="486.666" fill="#FFD700" width="6.666" height="6.668"/>
			<rect x="466.668" y="480" fill="#FFD700" width="6.666" height="6.666"/>
			<rect x="466.668" y="513.334" fill="#FFD700" width="6.666" height="6.666"/>
			<rect x="466.668" y="506.666" fill="#FFD700" width="6.666" height="6.668"/>
			<rect x="466.668" y="500" fill="#FFD700" width="6.666" height="6.666"/>
			<rect x="466.668" y="493.334" fill="#FFD700" width="6.666" height="6.666"/>
			<rect x="460" y="513.334" fill="#FFD700" width="6.668" height="6.666"/>
			<rect x="460" y="506.666" fill="#FFD700" width="6.668" height="6.668"/>
			<rect x="460" y="500" fill="#FFD700" width="6.668" height="6.666"/>
			<rect x="460" y="493.334" fill="#FFD700" width="6.668" height="6.666"/>
			<rect x="453.334" y="500" fill="#FFD700" width="6.666" height="6.666"/>
			<rect x="473.334" y="500" fill="#FFD700" width="6.666" height="6.666"/>
			<rect x="473.334" y="493.334" fill="#FFD700" width="6.666" height="6.666"/>
			<rect x="473.334" y="486.666" fill="#FFD700" width="6.666" height="6.668"/>
			<rect x="473.334" y="480" fill="#FFD700" width="6.666" height="6.666"/>
			<rect x="473.334" y="506.666" fill="#FFD700" width="6.666" height="6.668"/>
			<rect x="480" y="486.666" fill="#FFD700" width="6.668" height="6.668"/>
			<rect x="480" y="480" fill="#FFD700" width="6.668" height="6.666"/>
			<rect x="506.668" y="480" fill="#FFD700" width="6.666" height="6.666"/>
			<rect x="506.668" y="486.666" fill="#FFD700" width="6.666" height="6.668"/>
			<rect x="500" y="480" fill="#FFD700" width="6.668" height="6.666"/>
			<rect x="500" y="486.666" fill="#FFD700" width="6.668" height="6.668"/>
			<rect x="453.334" y="506.666" fill="#FFD700" width="6.666" height="6.668"/>
		</g>
	</g>
</g>
</svg>
