<?xml version="1.0" encoding="utf-8"?>
<!-- Generator: Adobe Illustrator 16.0.0, SVG Export Plug-In . SVG Version: 6.00 Build 0)  -->
<!DOCTYPE svg PUBLIC "-//W3C//DTD SVG 1.1//EN" "http://www.w3.org/Graphics/SVG/1.1/DTD/svg11.dtd">
<svg version="1.1" xmlns="http://www.w3.org/2000/svg" xmlns:xlink="http://www.w3.org/1999/xlink" x="0px" y="0px" width="1000px"
	 height="1000px" viewBox="-187 -187 1000 1000" enable-background="new -187 -187 1000 1000" xml:space="preserve">
<g id="Layer_1" display="none">
	<path display="inline" d="M325.935-157.782c-19.511,2.558-36.623,11.354-51.976,26.867c-17.592,17.752-26.388,39.182-26.388,64.13
		c0,26.228,7.997,45.418,26.548,64.289c9.115,9.116,14.393,12.954,25.107,17.912l13.594,6.397l1.12,13.273
		c0.479,7.197,0.799,25.748,0.479,41.101l-0.479,27.987l-15.993,1.12c-71.167,4.957-137.215,25.907-189.83,59.812
		c-24.148,15.672-41.42,29.586-60.931,49.256c-54.215,54.534-87.479,125.701-87.479,186.631v12.634l10.395,7.677
		c10.715,7.837,32.944,19.67,49.576,26.387c33.744,13.755,98.033,28.147,150.329,33.745c58.212,6.236,66.048,6.557,150.329,6.557
		c86.679,0,92.276-0.32,147.93-7.356c94.196-11.835,169.999-38.862,207.102-74.046l9.275-8.796l-0.959-17.271
		c-2.719-45.258-26.548-101.392-62.05-145.531c-55.814-69.886-135.936-113.865-229.491-126.18
		c-11.355-1.439-21.11-3.039-21.59-3.678c-0.641-0.48-1.6-19.671-2.239-42.7l-1.12-41.74l8.476-3.678
		c50.058-21.43,69.887-80.921,43.341-129.378c-10.236-18.391-32.945-36.463-53.575-42.379
		C355.841-157.462,335.529-159.062,325.935-157.782z"/>
	<path display="inline" d="M-38.692,266.496c-31.665,11.515-54.534,21.91-75.964,34.863c-48.457,28.947-74.685,67.647-72.445,106.67
		c3.198,54.533,54.374,99.632,152.247,134.177c3.679,1.278,3.679,1.759-8.636,34.543c-5.437,14.552-11.515,31.025-13.593,36.782
		c-2.079,5.757-5.598,15.353-7.997,21.59c-7.836,20.949-15.513,41.58-17.591,47.978c-1.12,3.519-6.077,17.112-11.035,30.065
		c-4.958,12.954-8.956,24.309-8.956,25.268c0,0.799,13.114,1.439,32.464,1.439h32.305l4.637-12.474
		c2.559-6.717,6.237-16.633,8.316-21.91c1.919-5.276,8.636-23.668,14.873-40.78c6.397-17.112,12.475-33.743,13.594-36.782
		c1.28-3.04,7.197-18.871,13.114-35.184c5.917-16.313,11.354-30.227,11.834-30.865c0.64-0.64,5.757-0.161,11.355,1.12
		c41.26,9.435,98.033,18.23,145.371,22.39c22.069,2.078,81.401,5.597,92.436,5.756c1.44,0,1.919,20.471,1.919,96.755v96.754h31.186
		h31.185v-96.754c0-76.284,0.479-96.755,2.079-96.755c8.795,0,72.765-3.519,87.479-4.798
		c61.091-5.276,112.105-13.113,159.444-24.309c11.515-2.719,22.069-4.478,23.188-3.998c1.279,0.479,5.918,11.516,10.396,24.469
		c4.478,13.113,14.394,41.74,22.069,63.81c7.676,21.91,17.912,51.816,22.869,66.369l9.115,26.387l32.465,0.479
		c35.183,0.479,34.224,0.641,30.546-8.796c-1.599-3.837-6.878-19.029-32.945-94.034c-3.037-8.796-6.876-19.991-8.476-24.789
		c-1.599-4.797-7.837-23.348-14.073-41.101c-7.996-23.188-10.715-32.784-9.274-33.743c0.958-0.641,6.876-3.359,12.953-5.918
		c23.509-9.595,61.57-30.226,71.166-38.701c1.279-1.12,5.277-4.478,8.796-7.356c17.911-14.393,32.464-34.544,39.341-53.895
		c3.198-8.637,3.838-13.434,3.679-27.986c0-15.193-0.64-19.191-4.479-29.427c-2.399-6.397-6.877-15.512-9.755-20.149
		c-18.871-29.427-57.893-56.934-111.947-79.003l-15.033-6.237l1.92,4.317c1.119,2.239,6.076,12.475,11.035,22.55
		c5.117,10.075,12.153,27.507,15.672,38.541l6.557,20.312l9.116,5.597c20.79,12.955,35.503,30.865,35.503,43.5
		c0,12.314-13.753,29.427-35.343,44.139c-21.431,14.393-62.052,32.305-96.595,42.38c-92.276,26.868-187.271,39.021-305.454,38.862
		c-93.077,0-157.046-5.758-233.33-20.79c-105.39-20.79-184.232-56.614-201.664-91.638c-4.798-9.435-4.958-15.512-0.96-24.308
		c6.237-13.754,26.068-30.546,51.815-43.819c8.637-4.478,14.234-8.476,14.874-10.396c4.158-14.713,23.029-54.854,31.025-66.368
		c1.439-2.239,3.519-5.597,4.638-7.676C-17.103,258.82-18.382,258.979-38.692,266.496z"/>
</g>
<g id="Layer_2">
	<g id="XMLID_1_">
		<g>
			<rect x="-187.23" y="346.33" fill="#00FF00" width="33.33" height="33.34"/>
			<rect x="-53.9" y="279.67" fill="#00FF00" width="33.33" height="33.33"/>
			<rect x="779.43" y="413" fill="#00FF00" width="33.34" height="33.33"/>
			<rect x="779.43" y="379.67" fill="#00FF00" width="33.34" height="33.33"/>
			<rect x="779.43" y="346.33" fill="#00FF00" width="33.34" height="33.34"/>
			<rect x="746.1" y="479.67" fill="#00FF00" width="33.33" height="33.33"/>
			<rect x="746.1" y="446.33" fill="#00FF00" width="33.33" height="33.34"/>
			<rect x="746.1" y="413" fill="#00FF00" width="33.33" height="33.33"/>
			<rect x="746.1" y="379.67" fill="#00FF00" width="33.33" height="33.33"/>
			<rect x="746.1" y="346.33" fill="#00FF00" width="33.33" height="33.34"/>
			<rect x="746.1" y="313" fill="#00FF00" width="33.33" height="33.33"/>
			<rect x="746.1" y="279.67" fill="#00FF00" width="33.33" height="33.33"/>
			<rect x="712.77" y="479.67" fill="#00FF00" width="33.33" height="33.33"/>
			<rect x="712.77" y="446.33" fill="#00FF00" width="33.33" height="33.34"/>
			<rect x="712.77" y="313" fill="#00FF00" width="33.33" height="33.33"/>
			<rect x="712.77" y="279.67" fill="#00FF00" width="33.33" height="33.33"/>
			<rect x="679.43" y="713" fill="#00FF00" width="33.34" height="33.33"/>
			<rect x="679.43" y="679.67" fill="#00FF00" width="33.34" height="33.33"/>
			<rect x="679.43" y="646.33" fill="#00FF00" width="33.34" height="33.34"/>
			<rect x="679.43" y="613" fill="#00FF00" width="33.34" height="33.33"/>
			<rect x="679.43" y="479.67" fill="#00FF00" width="33.34" height="33.33"/>
			<rect x="679.43" y="446.33" fill="#00FF00" width="33.34" height="33.34"/>
			<rect x="679.43" y="279.67" fill="#00FF00" width="33.34" height="33.33"/>
			<rect x="646.1" y="713" fill="#00FF00" width="33.33" height="33.33"/>
			<rect x="646.1" y="679.67" fill="#00FF00" width="33.33" height="33.33"/>
			<rect x="646.1" y="646.33" fill="#00FF00" width="33.33" height="33.34"/>
			<rect x="646.1" y="613" fill="#00FF00" width="33.33" height="33.33"/>
			<rect x="646.1" y="579.67" fill="#00FF00" width="33.33" height="33.33"/>
			<rect x="646.1" y="546.33" fill="#00FF00" width="33.33" height="33.34"/>
			<rect x="646.1" y="513" fill="#00FF00" width="33.33" height="33.33"/>
			<rect x="646.1" y="479.67" fill="#00FF00" width="33.33" height="33.33"/>
			<rect x="646.1" y="379.67" fill="#00FF00" width="33.33" height="33.33"/>
			<rect x="646.1" y="346.33" fill="#00FF00" width="33.33" height="33.34"/>
			<rect x="646.1" y="313" fill="#00FF00" width="33.33" height="33.33"/>
			<rect x="612.77" y="613" fill="#00FF00" width="33.33" height="33.33"/>
			<rect x="612.77" y="579.67" fill="#00FF00" width="33.33" height="33.33"/>
			<rect x="612.77" y="546.33" fill="#00FF00" width="33.33" height="33.34"/>
			<rect x="612.77" y="513" fill="#00FF00" width="33.33" height="33.33"/>
			<rect x="612.77" y="413" fill="#00FF00" width="33.33" height="33.33"/>
			<rect x="612.77" y="379.67" fill="#00FF00" width="33.33" height="33.33"/>
			<rect x="612.77" y="346.33" fill="#00FF00" width="33.33" height="33.34"/>
			<rect x="612.77" y="313" fill="#00FF00" width="33.33" height="33.33"/>
			<rect x="612.77" y="279.67" fill="#00FF00" width="33.33" height="33.33"/>
			<rect x="612.77" y="246.33" fill="#00FF00" width="33.33" height="33.34"/>
			<rect x="579.43" y="546.33" fill="#00FF00" width="33.34" height="33.34"/>
			<rect x="579.43" y="513" fill="#00FF00" width="33.34" height="33.33"/>
			<rect x="579.43" y="413" fill="#00FF00" width="33.34" height="33.33"/>
			<rect x="579.43" y="379.67" fill="#00FF00" width="33.34" height="33.33"/>
			<rect x="579.43" y="346.33" fill="#00FF00" width="33.34" height="33.34"/>
			<rect x="579.43" y="313" fill="#00FF00" width="33.34" height="33.33"/>
			<rect x="579.43" y="279.67" fill="#00FF00" width="33.34" height="33.33"/>
			<rect x="579.43" y="246.33" fill="#00FF00" width="33.34" height="33.34"/>
			<rect x="579.43" y="213" fill="#00FF00" width="33.34" height="33.33"/>
			<rect x="546.1" y="546.33" fill="#00FF00" width="33.33" height="33.34"/>
			<rect x="546.1" y="513" fill="#00FF00" width="33.33" height="33.33"/>
			<rect x="546.1" y="413" fill="#00FF00" width="33.33" height="33.33"/>
			<rect x="546.1" y="379.67" fill="#00FF00" width="33.33" height="33.33"/>
			<rect x="546.1" y="346.33" fill="#00FF00" width="33.33" height="33.34"/>
			<rect x="546.1" y="313" fill="#00FF00" width="33.33" height="33.33"/>
			<rect x="546.1" y="279.67" fill="#00FF00" width="33.33" height="33.33"/>
			<rect x="546.1" y="246.33" fill="#00FF00" width="33.33" height="33.34"/>
			<rect x="546.1" y="213" fill="#00FF00" width="33.33" height="33.33"/>
			<rect x="546.1" y="179.67" fill="#00FF00" width="33.33" height="33.33"/>
			<rect x="512.77" y="546.33" fill="#00FF00" width="33.33" height="33.34"/>
			<rect x="512.77" y="513" fill="#00FF00" width="33.33" height="33.33"/>
			<rect x="512.77" y="446.33" fill="#00FF00" width="33.33" height="33.34"/>
			<rect x="512.77" y="413" fill="#00FF00" width="33.33" height="33.33"/>
			<rect x="512.77" y="379.67" fill="#00FF00" width="33.33" height="33.33"/>
			<rect x="512.77" y="346.33" fill="#00FF00" width="33.33" height="33.34"/>
			<rect x="512.77" y="313" fill="#00FF00" width="33.33" height="33.33"/>
			<rect x="512.77" y="279.67" fill="#00FF00" width="33.33" height="33.33"/>
			<rect x="512.77" y="246.33" fill="#00FF00" width="33.33" height="33.34"/>
			<rect x="512.77" y="213" fill="#00FF00" width="33.33" height="33.33"/>
			<rect x="512.77" y="179.67" fill="#00FF00" width="33.33" height="33.33"/>
			<rect x="512.77" y="146.33" fill="#00FF00" width="33.33" height="33.34"/>
			<rect x="479.43" y="546.33" fill="#00FF00" width="33.34" height="33.34"/>
			<rect x="479.43" y="513" fill="#00FF00" width="33.34" height="33.33"/>
			<rect x="479.43" y="446.33" fill="#00FF00" width="33.34" height="33.34"/>
			<rect x="479.43" y="413" fill="#00FF00" width="33.34" height="33.33"/>
			<rect x="479.43" y="379.67" fill="#00FF00" width="33.34" height="33.33"/>
			<rect x="479.43" y="346.33" fill="#00FF00" width="33.34" height="33.34"/>
			<rect x="479.43" y="313" fill="#00FF00" width="33.34" height="33.33"/>
			<rect x="479.43" y="279.67" fill="#00FF00" width="33.34" height="33.33"/>
			<rect x="479.43" y="246.33" fill="#00FF00" width="33.34" height="33.34"/>
			<rect x="479.43" y="213" fill="#00FF00" width="33.34" height="33.33"/>
			<rect x="479.43" y="179.67" fill="#00FF00" width="33.34" height="33.33"/>
			<rect x="479.43" y="146.33" fill="#00FF00" width="33.34" height="33.34"/>
			<rect x="446.1" y="546.33" fill="#00FF00" width="33.33" height="33.34"/>
			<rect x="446.1" y="513" fill="#00FF00" width="33.33" height="33.33"/>
			<rect x="446.1" y="446.33" fill="#00FF00" width="33.33" height="33.34"/>
			<rect x="446.1" y="413" fill="#00FF00" width="33.33" height="33.33"/>
			<rect x="446.1" y="379.67" fill="#00FF00" width="33.33" height="33.33"/>
			<rect x="446.1" y="346.33" fill="#00FF00" width="33.33" height="33.34"/>
			<rect x="446.1" y="313" fill="#00FF00" width="33.33" height="33.33"/>
			<rect x="446.1" y="279.67" fill="#00FF00" width="33.33" height="33.33"/>
			<rect x="446.1" y="246.33" fill="#00FF00" width="33.33" height="33.34"/>
			<rect x="446.1" y="213" fill="#00FF00" width="33.33" height="33.33"/>
			<rect x="446.1" y="179.67" fill="#00FF00" width="33.33" height="33.33"/>
			<rect x="446.1" y="146.33" fill="#00FF00" width="33.33" height="33.34"/>
			<rect x="446.1" y="113" fill="#00FF00" width="33.33" height="33.33"/>
			<rect x="412.77" y="546.33" fill="#00FF00" width="33.33" height="33.34"/>
			<rect x="412.77" y="513" fill="#00FF00" width="33.33" height="33.33"/>
			<rect x="412.77" y="446.33" fill="#00FF00" width="33.33" height="33.34"/>
			<rect x="412.77" y="413" fill="#00FF00" width="33.33" height="33.33"/>
			<rect x="412.77" y="379.67" fill="#00FF00" width="33.33" height="33.33"/>
			<rect x="412.77" y="346.33" fill="#00FF00" width="33.33" height="33.34"/>
			<rect x="412.77" y="313" fill="#00FF00" width="33.33" height="33.33"/>
			<rect x="412.77" y="279.67" fill="#00FF00" width="33.33" height="33.33"/>
			<rect x="412.77" y="246.33" fill="#00FF00" width="33.33" height="33.34"/>
			<rect x="412.77" y="213" fill="#00FF00" width="33.33" height="33.33"/>
			<rect x="412.77" y="179.67" fill="#00FF00" width="33.33" height="33.33"/>
			<rect x="412.77" y="146.33" fill="#00FF00" width="33.33" height="33.34"/>
			<rect x="412.77" y="113" fill="#00FF00" width="33.33" height="33.33"/>
			<rect x="412.77" y="-53.67" fill="#00FF00" width="33.33" height="33.34"/>
			<rect x="412.77" y="-87" fill="#00FF00" width="33.33" height="33.33"/>
			<rect x="379.43" y="546.33" fill="#00FF00" width="33.34" height="33.34"/>
			<rect x="379.43" y="513" fill="#00FF00" width="33.34" height="33.33"/>
			<rect x="379.43" y="446.33" fill="#00FF00" width="33.34" height="33.34"/>
			<rect x="379.43" y="413" fill="#00FF00" width="33.34" height="33.33"/>
			<rect x="379.43" y="379.67" fill="#00FF00" width="33.34" height="33.33"/>
			<rect x="379.43" y="346.33" fill="#00FF00" width="33.34" height="33.34"/>
			<rect x="379.43" y="313" fill="#00FF00" width="33.34" height="33.33"/>
			<rect x="379.43" y="279.67" fill="#00FF00" width="33.34" height="33.33"/>
			<rect x="379.43" y="246.33" fill="#00FF00" width="33.34" height="33.34"/>
			<rect x="379.43" y="213" fill="#00FF00" width="33.34" height="33.33"/>
			<rect x="379.43" y="179.67" fill="#00FF00" width="33.34" height="33.33"/>
			<rect x="379.43" y="146.33" fill="#00FF00" width="33.34" height="33.34"/>
			<rect x="379.43" y="113" fill="#00FF00" width="33.34" height="33.33"/>
			<rect x="379.43" y="-20.33" fill="#00FF00" width="33.34" height="33.33"/>
			<rect x="379.43" y="-53.67" fill="#00FF00" width="33.34" height="33.34"/>
			<rect x="379.43" y="-87" fill="#00FF00" width="33.34" height="33.33"/>
			<rect x="379.43" y="-120.33" fill="#00FF00" width="33.34" height="33.33"/>
			<rect x="346.1" y="579.67" fill="#00FF00" width="33.33" height="33.33"/>
			<rect x="346.1" y="546.33" fill="#00FF00" width="33.33" height="33.34"/>
			<rect x="346.1" y="446.33" fill="#00FF00" width="33.33" height="33.34"/>
			<rect x="346.1" y="413" fill="#00FF00" width="33.33" height="33.33"/>
			<rect x="346.1" y="379.67" fill="#00FF00" width="33.33" height="33.33"/>
			<rect x="346.1" y="346.33" fill="#00FF00" width="33.33" height="33.34"/>
			<rect x="346.1" y="313" fill="#00FF00" width="33.33" height="33.33"/>
			<rect x="346.1" y="279.67" fill="#00FF00" width="33.33" height="33.33"/>
			<rect x="346.1" y="246.33" fill="#00FF00" width="33.33" height="33.34"/>
			<rect x="346.1" y="213" fill="#00FF00" width="33.33" height="33.33"/>
			<rect x="346.1" y="179.67" fill="#00FF00" width="33.33" height="33.33"/>
			<rect x="346.1" y="146.33" fill="#00FF00" width="33.33" height="33.34"/>
			<rect x="346.1" y="113" fill="#00FF00" width="33.33" height="33.33"/>
			<rect x="346.1" y="79.67" fill="#00FF00" width="33.33" height="33.33"/>
			<rect x="346.1" y="46.33" fill="#00FF00" width="33.33" height="33.34"/>
			<rect x="346.1" y="13" fill="#00FF00" width="33.33" height="33.33"/>
			<rect x="346.1" y="-20.33" fill="#00FF00" width="33.33" height="33.33"/>
			<rect x="346.1" y="-53.67" fill="#00FF00" width="33.33" height="33.34"/>
			<rect x="346.1" y="-87" fill="#00FF00" width="33.33" height="33.33"/>
			<rect x="346.1" y="-120.33" fill="#00FF00" width="33.33" height="33.33"/>
			<rect x="346.1" y="-153.67" fill="#00FF00" width="33.33" height="33.34"/>
			<rect x="312.77" y="746.33" fill="#00FF00" width="33.33" height="33.34"/>
			<rect x="312.77" y="713" fill="#00FF00" width="33.33" height="33.33"/>
			<rect x="312.77" y="679.67" fill="#00FF00" width="33.33" height="33.33"/>
			<rect x="312.77" y="646.33" fill="#00FF00" width="33.33" height="33.34"/>
			<rect x="312.77" y="613" fill="#00FF00" width="33.33" height="33.33"/>
			<rect x="312.77" y="579.67" fill="#00FF00" width="33.33" height="33.33"/>
			<rect x="312.77" y="546.33" fill="#00FF00" width="33.33" height="33.34"/>
			<rect x="312.77" y="446.33" fill="#00FF00" width="33.33" height="33.34"/>
			<rect x="312.77" y="413" fill="#00FF00" width="33.33" height="33.33"/>
			<rect x="312.77" y="379.67" fill="#00FF00" width="33.33" height="33.33"/>
			<rect x="312.77" y="346.33" fill="#00FF00" width="33.33" height="33.34"/>
			<rect x="312.77" y="313" fill="#00FF00" width="33.33" height="33.33"/>
			<rect x="312.77" y="279.67" fill="#00FF00" width="33.33" height="33.33"/>
			<rect x="312.77" y="246.33" fill="#00FF00" width="33.33" height="33.34"/>
			<rect x="312.77" y="213" fill="#00FF00" width="33.33" height="33.33"/>
			<rect x="312.77" y="179.67" fill="#00FF00" width="33.33" height="33.33"/>
			<rect x="312.77" y="146.33" fill="#00FF00" width="33.33" height="33.34"/>
			<rect x="312.77" y="113" fill="#00FF00" width="33.33" height="33.33"/>
			<rect x="312.77" y="79.67" fill="#00FF00" width="33.33" height="33.33"/>
			<rect x="312.77" y="46.33" fill="#00FF00" width="33.33" height="33.34"/>
			<rect x="312.77" y="13" fill="#00FF00" width="33.33" height="33.33"/>
			<rect x="312.77" y="-20.33" fill="#00FF00" width="33.33" height="33.33"/>
			<rect x="312.77" y="-53.67" fill="#00FF00" width="33.33" height="33.34"/>
			<rect x="312.77" y="-87" fill="#00FF00" width="33.33" height="33.33"/>
			<rect x="312.77" y="-120.33" fill="#00FF00" width="33.33" height="33.33"/>
			<rect x="312.77" y="-153.67" fill="#00FF00" width="33.33" height="33.34"/>
			<rect x="279.43" y="746.33" fill="#00FF00" width="33.34" height="33.34"/>
			<rect x="279.43" y="713" fill="#00FF00" width="33.34" height="33.33"/>
			<rect x="279.43" y="679.67" fill="#00FF00" width="33.34" height="33.33"/>
			<rect x="279.43" y="646.33" fill="#00FF00" width="33.34" height="33.34"/>
			<rect x="279.43" y="613" fill="#00FF00" width="33.34" height="33.33"/>
			<rect x="279.43" y="579.67" fill="#00FF00" width="33.34" height="33.33"/>
			<rect x="279.43" y="546.33" fill="#00FF00" width="33.34" height="33.34"/>
			<rect x="279.43" y="446.33" fill="#00FF00" width="33.34" height="33.34"/>
			<rect x="279.43" y="413" fill="#00FF00" width="33.34" height="33.33"/>
			<rect x="279.43" y="379.67" fill="#00FF00" width="33.34" height="33.33"/>
			<rect x="279.43" y="346.33" fill="#00FF00" width="33.34" height="33.34"/>
			<rect x="279.43" y="313" fill="#00FF00" width="33.34" height="33.33"/>
			<rect x="279.43" y="279.67" fill="#00FF00" width="33.34" height="33.33"/>
			<rect x="279.43" y="246.33" fill="#00FF00" width="33.34" height="33.34"/>
			<rect x="279.43" y="213" fill="#00FF00" width="33.34" height="33.33"/>
			<rect x="279.43" y="179.67" fill="#00FF00" width="33.34" height="33.33"/>
			<rect x="279.43" y="146.33" fill="#00FF00" width="33.34" height="33.34"/>
			<rect x="279.43" y="113" fill="#00FF00" width="33.34" height="33.33"/>
			<rect x="279.43" y="-20.33" fill="#00FF00" width="33.34" height="33.33"/>
			<rect x="279.43" y="-53.67" fill="#00FF00" width="33.34" height="33.34"/>
			<rect x="279.43" y="-87" fill="#00FF00" width="33.34" height="33.33"/>
			<rect x="279.43" y="-120.33" fill="#00FF00" width="33.34" height="33.33"/>
			<rect x="246.1" y="579.67" fill="#00FF00" width="33.33" height="33.33"/>
			<rect x="246.1" y="546.33" fill="#00FF00" width="33.33" height="33.34"/>
			<rect x="246.1" y="446.33" fill="#00FF00" width="33.33" height="33.34"/>
			<rect x="246.1" y="413" fill="#00FF00" width="33.33" height="33.33"/>
			<rect x="246.1" y="379.67" fill="#00FF00" width="33.33" height="33.33"/>
			<rect x="246.1" y="346.33" fill="#00FF00" width="33.33" height="33.34"/>
			<rect x="246.1" y="313" fill="#00FF00" width="33.33" height="33.33"/>
			<rect x="246.1" y="279.67" fill="#00FF00" width="33.33" height="33.33"/>
			<rect x="246.1" y="246.33" fill="#00FF00" width="33.33" height="33.34"/>
			<rect x="246.1" y="213" fill="#00FF00" width="33.33" height="33.33"/>
			<rect x="246.1" y="179.67" fill="#00FF00" width="33.33" height="33.33"/>
			<rect x="246.1" y="146.33" fill="#00FF00" width="33.33" height="33.34"/>
			<rect x="246.1" y="113" fill="#00FF00" width="33.33" height="33.33"/>
			<rect x="246.1" y="-53.67" fill="#00FF00" width="33.33" height="33.34"/>
			<rect x="246.1" y="-87" fill="#00FF00" width="33.33" height="33.33"/>
			<rect x="212.77" y="579.67" fill="#00FF00" width="33.33" height="33.33"/>
			<rect x="212.77" y="546.33" fill="#00FF00" width="33.33" height="33.34"/>
			<rect x="212.77" y="446.33" fill="#00FF00" width="33.33" height="33.34"/>
			<rect x="212.77" y="413" fill="#00FF00" width="33.33" height="33.33"/>
			<rect x="212.77" y="379.67" fill="#00FF00" width="33.33" height="33.33"/>
			<rect x="212.77" y="346.33" fill="#00FF00" width="33.33" height="33.34"/>
			<rect x="212.77" y="313" fill="#00FF00" width="33.33" height="33.33"/>
			<rect x="212.77" y="279.67" fill="#00FF00" width="33.33" height="33.33"/>
			<rect x="212.77" y="246.33" fill="#00FF00" width="33.33" height="33.34"/>
			<rect x="212.77" y="213" fill="#00FF00" width="33.33" height="33.33"/>
			<rect x="212.77" y="179.67" fill="#00FF00" width="33.33" height="33.33"/>
			<rect x="212.77" y="146.33" fill="#00FF00" width="33.33" height="33.34"/>
			<rect x="212.77" y="113" fill="#00FF00" width="33.33" height="33.33"/>
			<rect x="179.43" y="546.33" fill="#00FF00" width="33.34" height="33.34"/>
			<rect x="179.43" y="513" fill="#00FF00" width="33.34" height="33.33"/>
			<rect x="179.43" y="446.33" fill="#00FF00" width="33.34" height="33.34"/>
			<rect x="179.43" y="413" fill="#00FF00" width="33.34" height="33.33"/>
			<rect x="179.43" y="379.67" fill="#00FF00" width="33.34" height="33.33"/>
			<rect x="179.43" y="346.33" fill="#00FF00" width="33.34" height="33.34"/>
			<rect x="179.43" y="313" fill="#00FF00" width="33.34" height="33.33"/>
			<rect x="179.43" y="279.67" fill="#00FF00" width="33.34" height="33.33"/>
			<rect x="179.43" y="246.33" fill="#00FF00" width="33.34" height="33.34"/>
			<rect x="179.43" y="213" fill="#00FF00" width="33.34" height="33.33"/>
			<rect x="179.43" y="179.67" fill="#00FF00" width="33.34" height="33.33"/>
			<rect x="179.43" y="146.33" fill="#00FF00" width="33.34" height="33.34"/>
			<rect x="179.43" y="113" fill="#00FF00" width="33.34" height="33.33"/>
			<rect x="146.1" y="546.33" fill="#00FF00" width="33.33" height="33.34"/>
			<rect x="146.1" y="513" fill="#00FF00" width="33.33" height="33.33"/>
			<rect x="146.1" y="446.33" fill="#00FF00" width="33.33" height="33.34"/>
			<rect x="146.1" y="413" fill="#00FF00" width="33.33" height="33.33"/>
			<rect x="146.1" y="379.67" fill="#00FF00" width="33.33" height="33.33"/>
			<rect x="146.1" y="346.33" fill="#00FF00" width="33.33" height="33.34"/>
			<rect x="146.1" y="313" fill="#00FF00" width="33.33" height="33.33"/>
			<rect x="146.1" y="279.67" fill="#00FF00" width="33.33" height="33.33"/>
			<rect x="146.1" y="246.33" fill="#00FF00" width="33.33" height="33.34"/>
			<rect x="146.1" y="213" fill="#00FF00" width="33.33" height="33.33"/>
			<rect x="146.1" y="179.67" fill="#00FF00" width="33.33" height="33.33"/>
			<rect x="146.1" y="146.33" fill="#00FF00" width="33.33" height="33.34"/>
			<rect x="112.77" y="546.33" fill="#00FF00" width="33.33" height="33.34"/>
			<rect x="112.77" y="513" fill="#00FF00" width="33.33" height="33.33"/>
			<rect x="112.77" y="446.33" fill="#00FF00" width="33.33" height="33.34"/>
			<rect x="112.77" y="413" fill="#00FF00" width="33.33" height="33.33"/>
			<rect x="112.77" y="379.67" fill="#00FF00" width="33.33" height="33.33"/>
			<rect x="112.77" y="346.33" fill="#00FF00" width="33.33" height="33.34"/>
			<rect x="112.77" y="313" fill="#00FF00" width="33.33" height="33.33"/>
			<rect x="112.77" y="279.67" fill="#00FF00" width="33.33" height="33.33"/>
			<rect x="112.77" y="246.33" fill="#00FF00" width="33.33" height="33.34"/>
			<rect x="112.77" y="213" fill="#00FF00" width="33.33" height="33.33"/>
			<rect x="112.77" y="179.67" fill="#00FF00" width="33.33" height="33.33"/>
			<rect x="112.77" y="146.33" fill="#00FF00" width="33.33" height="33.34"/>
			<rect x="79.43" y="546.33" fill="#00FF00" width="33.34" height="33.34"/>
			<rect x="79.43" y="513" fill="#00FF00" width="33.34" height="33.33"/>
			<rect x="79.43" y="413" fill="#00FF00" width="33.34" height="33.33"/>
			<rect x="79.43" y="379.67" fill="#00FF00" width="33.34" height="33.33"/>
			<rect x="79.43" y="346.33" fill="#00FF00" width="33.34" height="33.34"/>
			<rect x="79.43" y="313" fill="#00FF00" width="33.34" height="33.33"/>
			<rect x="79.43" y="279.67" fill="#00FF00" width="33.34" height="33.33"/>
			<rect x="79.43" y="246.33" fill="#00FF00" width="33.34" height="33.34"/>
			<rect x="79.43" y="213" fill="#00FF00" width="33.34" height="33.33"/>
			<rect x="79.43" y="179.67" fill="#00FF00" width="33.34" height="33.33"/>
			<rect x="46.1" y="546.33" fill="#00FF00" width="33.33" height="33.34"/>
			<rect x="46.1" y="513" fill="#00FF00" width="33.33" height="33.33"/>
			<rect x="46.1" y="413" fill="#00FF00" width="33.33" height="33.33"/>
			<rect x="46.1" y="379.67" fill="#00FF00" width="33.33" height="33.33"/>
			<rect x="46.1" y="346.33" fill="#00FF00" width="33.33" height="33.34"/>
			<rect x="46.1" y="313" fill="#00FF00" width="33.33" height="33.33"/>
			<rect x="46.1" y="279.67" fill="#00FF00" width="33.33" height="33.33"/>
			<rect x="46.1" y="246.33" fill="#00FF00" width="33.33" height="33.34"/>
			<rect x="46.1" y="213" fill="#00FF00" width="33.33" height="33.33"/>
			<rect x="12.77" y="546.33" fill="#00FF00" width="33.33" height="33.34"/>
			<rect x="12.77" y="513" fill="#00FF00" width="33.33" height="33.33"/>
			<rect x="12.77" y="413" fill="#00FF00" width="33.33" height="33.33"/>
			<rect x="12.77" y="379.67" fill="#00FF00" width="33.33" height="33.33"/>
			<rect x="12.77" y="346.33" fill="#00FF00" width="33.33" height="33.34"/>
			<rect x="12.77" y="313" fill="#00FF00" width="33.33" height="33.33"/>
			<rect x="12.77" y="279.67" fill="#00FF00" width="33.33" height="33.33"/>
			<rect x="12.77" y="246.33" fill="#00FF00" width="33.33" height="33.34"/>
			<rect x="-20.57" y="646.33" fill="#00FF00" width="33.34" height="33.34"/>
			<rect x="-20.57" y="613" fill="#00FF00" width="33.34" height="33.33"/>
			<rect x="-20.57" y="579.67" fill="#00FF00" width="33.34" height="33.33"/>
			<rect x="-20.57" y="546.33" fill="#00FF00" width="33.34" height="33.34"/>
			<rect x="-20.57" y="513" fill="#00FF00" width="33.34" height="33.33"/>
			<rect x="-20.57" y="379.67" fill="#00FF00" width="33.34" height="33.33"/>
			<rect x="-20.57" y="346.33" fill="#00FF00" width="33.34" height="33.34"/>
			<rect x="-20.57" y="313" fill="#00FF00" width="33.34" height="33.33"/>
			<rect x="-53.9" y="713" fill="#00FF00" width="33.33" height="33.33"/>
			<rect x="-53.9" y="679.67" fill="#00FF00" width="33.33" height="33.33"/>
			<rect x="-53.9" y="646.33" fill="#00FF00" width="33.33" height="33.34"/>
			<rect x="-53.9" y="613" fill="#00FF00" width="33.33" height="33.33"/>
			<rect x="-53.9" y="579.67" fill="#00FF00" width="33.33" height="33.33"/>
			<rect x="-53.9" y="546.33" fill="#00FF00" width="33.33" height="33.34"/>
			<rect x="-53.9" y="513" fill="#00FF00" width="33.33" height="33.33"/>
			<rect x="-53.9" y="479.67" fill="#00FF00" width="33.33" height="33.33"/>
			<rect x="-87.23" y="713" fill="#00FF00" width="33.33" height="33.33"/>
			<rect x="-87.23" y="679.67" fill="#00FF00" width="33.33" height="33.33"/>
			<rect x="-87.23" y="646.33" fill="#00FF00" width="33.33" height="33.34"/>
			<rect x="-87.23" y="513" fill="#00FF00" width="33.33" height="33.33"/>
			<rect x="-87.23" y="479.67" fill="#00FF00" width="33.33" height="33.33"/>
			<rect x="-87.23" y="446.33" fill="#00FF00" width="33.33" height="33.34"/>
			<rect x="-87.23" y="313" fill="#00FF00" width="33.33" height="33.33"/>
			<rect x="-87.23" y="279.67" fill="#00FF00" width="33.33" height="33.33"/>
			<rect x="-120.57" y="479.67" fill="#00FF00" width="33.34" height="33.33"/>
			<rect x="-120.57" y="446.33" fill="#00FF00" width="33.34" height="33.34"/>
			<rect x="-120.57" y="413" fill="#00FF00" width="33.34" height="33.33"/>
			<rect x="-120.57" y="346.33" fill="#00FF00" width="33.34" height="33.34"/>
			<rect x="-120.57" y="313" fill="#00FF00" width="33.34" height="33.33"/>
			<rect x="-120.57" y="279.67" fill="#00FF00" width="33.34" height="33.33"/>
			<rect x="-153.9" y="446.33" fill="#00FF00" width="33.33" height="33.34"/>
			<rect x="-153.9" y="413" fill="#00FF00" width="33.33" height="33.33"/>
			<rect x="-153.9" y="379.67" fill="#00FF00" width="33.33" height="33.33"/>
			<rect x="-153.9" y="346.33" fill="#00FF00" width="33.33" height="33.34"/>
			<rect x="-153.9" y="313" fill="#00FF00" width="33.33" height="33.33"/>
			<rect x="-187.23" y="413" fill="#00FF00" width="33.33" height="33.33"/>
			<rect x="-187.23" y="379.67" fill="#00FF00" width="33.33" height="33.33"/>
		</g>
		<g>
		</g>
	</g>
</g>
</svg>
