<?xml version="1.0" encoding="utf-8"?>
<!-- Generator: Adobe Illustrator 16.0.0, SVG Export Plug-In . SVG Version: 6.00 Build 0)  -->
<!DOCTYPE svg PUBLIC "-//W3C//DTD SVG 1.1//EN" "http://www.w3.org/Graphics/SVG/1.1/DTD/svg11.dtd">
<svg version="1.1" xmlns="http://www.w3.org/2000/svg" xmlns:xlink="http://www.w3.org/1999/xlink" x="0px" y="0px" width="1000px"
	 height="1000px" viewBox="-10 -25 1000 1000" enable-background="new -10 -25 1000 1000" xml:space="preserve">
<g id="Layer_1" display="none">
	<g transform="translate(0.000000,950.000000) scale(0.100000,-0.100000)" display="inline">
		<path d="M4660.957,9590.961c-563.745-68.428-1005.971-235.918-1430.82-539.238c-279.834-200.176-558.647-495.327-746.567-790.482
			c-208.34-326.812-374.81-785.372-417.705-1154.058c-4.082-32.676-12.256-62.295-19.404-67.397
			c-6.128-5.107-103.149-39.834-215.493-77.622c-392.173-132.769-728.174-282.896-993.711-443.237
			C338.862,6215.6,41.67,5885.727-69.653,5510.913c-24.507-80.688-27.568-110.298-27.568-240.005
			c-1.025-163.408,13.271-233.877,74.551-380.938c205.278-493.281,835.41-952.861,1747.427-1273.554
			c680.181-240,1486.997-396.25,2409.218-466.729c327.832-24.502,1184.697-24.502,1521.719,0
			c1209.209,89.873,2229.473,330.898,3007.695,711.846c316.602,154.209,537.197,299.229,741.455,487.158
			c256.348,234.893,372.773,397.27,448.35,623.999c101.113,305.371,46.973,619.922-158.301,905.884
			c-312.51,438.135-889.541,799.668-1725.976,1083.589c-112.344,37.788-209.365,72.515-215.488,77.622
			c-6.133,4.082-16.348,47.998-23.496,97.021c-89.873,652.603-432.002,1291.928-922.227,1726.997
			c-404.424,358.472-905.879,605.625-1389.971,685.283C5205.312,9583.808,4792.705,9607.304,4660.957,9590.961z M5084.794,8876.059
			c685.283-68.428,1262.314-424.857,1627.939-1005.971c102.129-162.383,214.463-415.664,258.379-582.134
			c43.916-165.449,67.412-374.814,75.576-678.135l3.066-107.236l-61.279-34.722c-110.293-63.32-297.188-153.193-400.342-195.068
			c-173.623-68.428-549.453-174.639-621.963-174.639c-24.512,0-25.527,2.041-18.389,33.701c3.066,17.363,22.471,72.51,40.85,122.554
			c100.098,261.45,128.691,421.792,130.732,727.158c1.016,182.808-2.041,241.025-17.363,311.494
			c-23.486,107.236-86.807,270.64-136.855,354.39c-149.111,245.107-418.73,438.13-735.332,524.941
			c-114.385,30.639-381.953,38.809-543.325,15.317c-285.962-41.87-527.998-163.403-711.831-356.426
			c-139.917-147.07-221.621-308.433-270.639-538.223c-20.43-91.919-23.501-137.876-23.501-316.602
			c0-300.259,24.517-438.13,130.732-723.071c25.532-69.448,46.978-131.748,46.978-139.917c0-20.425-32.686-19.404-139.917,5.107
			c-256.343,60.254-513.711,149.106-705.708,243.066c-111.323,55.151-256.348,134.81-261.45,143.999
			c-6.133,9.194,11.235,337.026,24.507,470.815c60.259,585.2,380.942,1138.74,868.096,1497.211
			C4046.147,8770.868,4597.646,8924.062,5084.794,8876.059z M4274.912,6885.566c98.047-33.706,201.196-100.088,299.233-193.022
			c102.129-97.021,141.963-163.403,141.963-236.938c0-57.197-20.425-87.832-75.576-113.364
			c-112.344-51.064-315.576,1.021-483.071,124.6c-186.895,137.871-280.854,300.259-221.621,386.045
			c36.772,52.085,72.52,63.32,177.71,59.238C4177.89,6910.078,4232.016,6900.888,4274.912,6885.566z M5802.763,6900.888
			c121.533-51.064,99.063-188.94-55.146-344.18c-214.473-215.493-522.91-301.279-638.311-176.68
			c-105.195,113.364,137.871,413.623,411.572,510.645C5601.572,6919.267,5746.591,6924.375,5802.763,6900.888z M1979.053,5607.934
			c98.047-16.343,168.516-54.126,251.24-136.855c109.277-110.298,157.275-223.657,157.275-379.912
			c0-145.024-51.064-264.521-159.321-375.845c-110.298-111.318-244.087-159.316-411.577-146.044
			c-385.029,30.645-607.666,427.929-427.92,764.951c60.259,113.359,208.345,238.984,316.602,267.578
			C1769.692,5619.169,1888.159,5622.231,1979.053,5607.934z M8060.83,5607.934c171.572-27.578,325.8-170.557,389.111-357.451
			c27.578-83.75,25.527-229.79-4.082-318.647c-45.957-133.784-141.963-247.148-263.486-311.494
			c-142.988-75.566-354.395-73.535-498.398,5.107c-167.49,90.898-295.146,321.709-277.783,500.435
			c22.461,216.514,210.381,444.263,398.301,482.051C7864.746,5619.169,7989.345,5620.19,8060.83,5607.934z M5022.5,4893.032
			c94.971-15.322,166.465-54.126,244.092-131.753c212.422-211.396,220.596-526.982,19.395-741.455
			c-112.344-120.508-221.621-168.506-386.045-168.506c-163.408,0-273.701,47.998-386.045,167.49
			c-163.408,175.655-193.027,429.961-72.52,615.84c49.033,75.566,174.648,198.125,234.897,227.744
			C4752.871,4902.226,4889.726,4913.457,5022.5,4893.032z"/>
		<path d="M8208.915,2594.111c-170.556-67.412-312.509-124.6-314.55-126.641c-10.215-10.215,130.723-309.453,519.833-1097.891
			c364.6-738.389,447.324-898.73,463.662-898.73c19.414,0,576.016,278.809,606.65,303.33l23.486,19.395l-366.641,730.225
			c-375.84,745.537-589.287,1159.16-609.717,1180.615C8523.476,2713.594,8449.94,2689.092,8208.915,2594.111z"/>
		<path d="M1235.557,2644.15c-70.469-113.359-253.281-467.744-600.518-1167.334c-251.24-506.553-337.026-687.324-328.853-696.514
			C319.458,762.93,902.617,470.85,922.021,470.85c9.189,0,119.492,208.35,294.131,558.643
			c312.515,625.039,701.626,1415.508,701.626,1425.723c0,4.082-12.256,13.271-27.578,20.42
			c-41.87,21.455-590.303,231.836-603.579,231.836C1281.519,2707.47,1258.022,2678.877,1235.557,2644.15z"/>
		<path d="M4542.49,976.387V-101.074h357.451h357.451V976.387v1077.461h-357.451H4542.49V976.387z"/>
	</g>
</g>
<g id="Layer_2">
	<g id="XMLID_1_">
		<g>
			<rect x="190.27" y="575" fill="#FFD700" width="33.34" height="33.33"/>
			<rect x="823.61" y="541.67" fill="#FFD700" width="33.33" height="33.33"/>
			<rect x="723.61" y="575" fill="#FFD700" width="33.33" height="33.33"/>
			<rect x="590.27" y="608.33" fill="#FFD700" width="33.341" height="33.34"/>
			<rect x="356.94" y="608.33" fill="#FFD700" width="33.33" height="33.34"/>
			<rect x="556.94" y="608.33" fill="#FFD700" width="33.329" height="33.34"/>
			<rect x="390.27" y="608.33" fill="#FFD700" width="33.34" height="33.34"/>
			<rect x="-9.73" y="441.67" fill="#FFD700" width="33.34" height="33.33"/>
			<rect x="-9.73" y="375" fill="#FFD700" width="33.34" height="33.33"/>
			<rect x="956.94" y="441.67" fill="#FFD700" width="33.329" height="33.33"/>
			<rect x="956.94" y="375" fill="#FFD700" width="33.329" height="33.33"/>
			<rect x="523.61" y="241.67" fill="#FFD700" width="33.33" height="33.33"/>
			<rect x="423.61" y="241.67" fill="#FFD700" width="33.33" height="33.33"/>
			<rect x="456.94" y="275" fill="#FFD700" width="33.33" height="33.33"/>
			<rect x="490.27" y="275" fill="#FFD700" width="33.34" height="33.33"/>
			<rect x="256.94" y="175" fill="#FFD700" width="33.33" height="33.33"/>
			<rect x="590.27" y="275" fill="#FFD700" width="33.341" height="33.33"/>
			<rect x="590.27" y="241.67" fill="#FFD700" width="33.341" height="33.33"/>
			<rect x="590.27" y="208.33" fill="#FFD700" width="33.341" height="33.34"/>
			<rect x="356.94" y="275" fill="#FFD700" width="33.33" height="33.33"/>
			<rect x="356.94" y="241.67" fill="#FFD700" width="33.33" height="33.33"/>
			<rect x="356.94" y="208.33" fill="#FFD700" width="33.33" height="33.34"/>
			<rect x="390.27" y="308.33" fill="#FFD700" width="33.34" height="33.34"/>
			<rect x="490.27" y="308.33" fill="#FFD700" width="33.34" height="33.34"/>
			<rect x="456.94" y="308.33" fill="#FFD700" width="33.33" height="33.34"/>
			<rect x="556.94" y="308.33" fill="#FFD700" width="33.329" height="33.34"/>
			<rect x="490.27" y="241.67" fill="#FFD700" width="33.34" height="33.33"/>
			<rect x="456.94" y="241.67" fill="#FFD700" width="33.33" height="33.33"/>
			<rect x="490.27" y="208.33" fill="#FFD700" width="33.34" height="33.34"/>
			<rect x="523.61" y="208.33" fill="#FFD700" width="33.33" height="33.34"/>
			<rect x="556.94" y="208.33" fill="#FFD700" width="33.329" height="33.34"/>
			<rect x="456.94" y="208.33" fill="#FFD700" width="33.33" height="33.34"/>
			<rect x="423.61" y="208.33" fill="#FFD700" width="33.33" height="33.34"/>
			<rect x="390.27" y="208.33" fill="#FFD700" width="33.34" height="33.34"/>
			<rect x="390.27" y="175" fill="#FFD700" width="33.34" height="33.33"/>
			<rect x="423.61" y="175" fill="#FFD700" width="33.33" height="33.33"/>
			<rect x="456.94" y="175" fill="#FFD700" width="33.33" height="33.33"/>
			<rect x="490.27" y="175" fill="#FFD700" width="33.34" height="33.33"/>
			<rect x="523.61" y="175" fill="#FFD700" width="33.33" height="33.33"/>
			<rect x="556.94" y="175" fill="#FFD700" width="33.329" height="33.33"/>
			<rect x="523.61" y="141.67" fill="#FFD700" width="33.33" height="33.33"/>
			<rect x="490.27" y="141.67" fill="#FFD700" width="33.34" height="33.33"/>
			<rect x="456.94" y="141.67" fill="#FFD700" width="33.33" height="33.33"/>
			<rect x="423.61" y="141.67" fill="#FFD700" width="33.33" height="33.33"/>
			<rect x="956.94" y="408.33" fill="#FFD700" width="33.329" height="33.34"/>
			<rect x="923.61" y="441.67" fill="#FFD700" width="33.33" height="33.33"/>
			<rect x="923.61" y="408.33" fill="#FFD700" width="33.33" height="33.34"/>
			<rect x="923.61" y="475" fill="#FFD700" width="33.33" height="33.33"/>
			<rect x="923.61" y="375" fill="#FFD700" width="33.33" height="33.33"/>
			<rect x="923.61" y="341.67" fill="#FFD700" width="33.33" height="33.33"/>
			<rect x="890.27" y="508.33" fill="#FFD700" width="33.341" height="33.34"/>
			<rect x="890.27" y="375" fill="#FFD700" width="33.341" height="33.33"/>
			<rect x="890.27" y="441.67" fill="#FFD700" width="33.341" height="33.33"/>
			<rect x="890.27" y="308.33" fill="#FFD700" width="33.341" height="33.34"/>
			<rect x="890.27" y="341.67" fill="#FFD700" width="33.341" height="33.33"/>
			<rect x="890.27" y="408.33" fill="#FFD700" width="33.341" height="33.34"/>
			<rect x="890.27" y="475" fill="#FFD700" width="33.341" height="33.33"/>
			<rect x="456.94" y="608.33" fill="#FFD700" width="33.33" height="33.34"/>
			<rect x="523.61" y="608.33" fill="#FFD700" width="33.33" height="33.34"/>
			<rect x="490.27" y="608.33" fill="#FFD700" width="33.34" height="33.34"/>
			<rect x="423.61" y="608.33" fill="#FFD700" width="33.33" height="33.34"/>
			<rect x="656.94" y="575" fill="#FFD700" width="33.329" height="33.33"/>
			<rect x="623.61" y="575" fill="#FFD700" width="33.33" height="33.33"/>
			<rect x="690.27" y="575" fill="#FFD700" width="33.341" height="33.33"/>
			<rect x="590.27" y="575" fill="#FFD700" width="33.341" height="33.33"/>
			<rect x="723.61" y="541.67" fill="#FFD700" width="33.33" height="33.33"/>
			<rect x="656.94" y="541.67" fill="#FFD700" width="33.329" height="33.33"/>
			<rect x="690.27" y="541.67" fill="#FFD700" width="33.341" height="33.33"/>
			<rect x="756.94" y="541.67" fill="#FFD700" width="33.329" height="33.33"/>
			<rect x="790.27" y="541.67" fill="#FFD700" width="33.341" height="33.33"/>
			<rect x="423.61" y="541.67" fill="#FFD700" width="33.33" height="33.33"/>
			<rect x="523.61" y="541.67" fill="#FFD700" width="33.33" height="33.33"/>
			<rect x="423.61" y="441.67" fill="#FFD700" width="33.33" height="33.33"/>
			<rect x="523.61" y="441.67" fill="#FFD700" width="33.33" height="33.33"/>
			<rect x="823.61" y="475" fill="#FFD700" width="33.33" height="33.33"/>
			<rect x="723.61" y="475" fill="#FFD700" width="33.33" height="33.33"/>
			<rect x="823.61" y="375" fill="#FFD700" width="33.33" height="33.33"/>
			<rect x="723.61" y="375" fill="#FFD700" width="33.33" height="33.33"/>
			<rect x="690.27" y="375" fill="#FFD700" width="33.341" height="33.33"/>
			<rect x="690.27" y="441.67" fill="#FFD700" width="33.341" height="33.33"/>
			<rect x="690.27" y="475" fill="#FFD700" width="33.341" height="33.33"/>
			<rect x="690.27" y="408.33" fill="#FFD700" width="33.341" height="33.34"/>
			<rect x="723.61" y="508.33" fill="#FFD700" width="33.33" height="33.34"/>
			<rect x="690.27" y="508.33" fill="#FFD700" width="33.341" height="33.34"/>
			<rect x="823.61" y="508.33" fill="#FFD700" width="33.33" height="33.34"/>
			<rect x="856.94" y="508.33" fill="#FFD700" width="33.329" height="33.34"/>
			<rect x="790.27" y="508.33" fill="#FFD700" width="33.341" height="33.34"/>
			<rect x="756.94" y="508.33" fill="#FFD700" width="33.329" height="33.34"/>
			<rect x="856.94" y="408.33" fill="#FFD700" width="33.329" height="33.34"/>
			<rect x="856.94" y="308.33" fill="#FFD700" width="33.329" height="33.34"/>
			<rect x="856.94" y="475" fill="#FFD700" width="33.329" height="33.33"/>
			<rect x="856.94" y="341.67" fill="#FFD700" width="33.329" height="33.33"/>
			<rect x="856.94" y="375" fill="#FFD700" width="33.329" height="33.33"/>
			<rect x="856.94" y="441.67" fill="#FFD700" width="33.329" height="33.33"/>
			<rect x="723.61" y="341.67" fill="#FFD700" width="33.33" height="33.33"/>
			<rect x="823.61" y="341.67" fill="#FFD700" width="33.33" height="33.33"/>
			<rect x="823.61" y="275" fill="#FFD700" width="33.33" height="33.33"/>
			<rect x="823.61" y="308.33" fill="#FFD700" width="33.33" height="33.34"/>
			<rect x="756.94" y="308.33" fill="#FFD700" width="33.329" height="33.34"/>
			<rect x="790.27" y="308.33" fill="#FFD700" width="33.341" height="33.34"/>
			<rect x="756.94" y="341.67" fill="#FFD700" width="33.329" height="33.33"/>
			<rect x="790.27" y="341.67" fill="#FFD700" width="33.341" height="33.33"/>
			<rect x="790.27" y="275" fill="#FFD700" width="33.341" height="33.33"/>
			<rect x="756.94" y="275" fill="#FFD700" width="33.329" height="33.33"/>
			<rect x="723.61" y="308.33" fill="#FFD700" width="33.33" height="33.34"/>
			<rect x="723.61" y="241.67" fill="#FFD700" width="33.33" height="33.33"/>
			<rect x="723.61" y="275" fill="#FFD700" width="33.33" height="33.33"/>
			<rect x="690.27" y="341.67" fill="#FFD700" width="33.341" height="33.33"/>
			<rect x="690.27" y="308.33" fill="#FFD700" width="33.341" height="33.34"/>
			<rect x="690.27" y="175" fill="#FFD700" width="33.341" height="33.33"/>
			<rect x="723.61" y="208.33" fill="#FFD700" width="33.33" height="33.34"/>
			<rect x="723.61" y="175" fill="#FFD700" width="33.33" height="33.33"/>
			<rect x="690.27" y="141.67" fill="#FFD700" width="33.341" height="33.33"/>
			<rect x="690.27" y="108.33" fill="#FFD700" width="33.341" height="33.34"/>
			<rect x="656.94" y="108.33" fill="#FFD700" width="33.329" height="33.34"/>
			<rect x="656.94" y="75" fill="#FFD700" width="33.329" height="33.33"/>
			<rect x="623.61" y="75" fill="#FFD700" width="33.33" height="33.33"/>
			<rect x="623.61" y="41.67" fill="#FFD700" width="33.33" height="33.33"/>
			<rect x="590.27" y="41.67" fill="#FFD700" width="33.341" height="33.33"/>
			<rect x="556.94" y="41.67" fill="#FFD700" width="33.329" height="33.33"/>
			<rect x="556.94" y="8.33" fill="#FFD700" width="33.329" height="33.34"/>
			<rect x="523.61" y="8.33" fill="#FFD700" width="33.33" height="33.34"/>
			<rect x="490.27" y="8.33" fill="#FFD700" width="33.34" height="33.34"/>
			<rect x="456.94" y="8.33" fill="#FFD700" width="33.33" height="33.34"/>
			<rect x="423.61" y="8.33" fill="#FFD700" width="33.33" height="33.34"/>
			<rect x="390.27" y="8.33" fill="#FFD700" width="33.34" height="33.34"/>
			<rect x="390.27" y="41.67" fill="#FFD700" width="33.34" height="33.33"/>
			<rect x="356.94" y="41.67" fill="#FFD700" width="33.33" height="33.33"/>
			<rect x="323.61" y="41.67" fill="#FFD700" width="33.33" height="33.33"/>
			<rect x="323.61" y="75" fill="#FFD700" width="33.33" height="33.33"/>
			<rect x="290.27" y="75" fill="#FFD700" width="33.34" height="33.33"/>
			<rect x="256.94" y="108.33" fill="#FFD700" width="33.33" height="33.34"/>
			<rect x="290.27" y="108.33" fill="#FFD700" width="33.34" height="33.34"/>
			<rect x="790.27" y="675" fill="#FFD700" width="33.341" height="33.33"/>
			<rect x="890.27" y="808.33" fill="#FFD700" width="33.341" height="33.34"/>
			<rect x="890.27" y="841.67" fill="#FFD700" width="33.341" height="33.33"/>
			<rect x="823.61" y="708.33" fill="#FFD700" width="33.33" height="33.34"/>
			<rect x="823.61" y="741.67" fill="#FFD700" width="33.33" height="33.33"/>
			<rect x="856.94" y="808.33" fill="#FFD700" width="33.329" height="33.34"/>
			<rect x="856.94" y="775" fill="#FFD700" width="33.329" height="33.33"/>
			<rect x="856.94" y="741.67" fill="#FFD700" width="33.329" height="33.33"/>
			<rect x="790.27" y="708.33" fill="#FFD700" width="33.341" height="33.34"/>
			<rect x="456.94" y="741.67" fill="#FFD700" width="33.33" height="33.33"/>
			<rect x="456.94" y="841.67" fill="#FFD700" width="33.33" height="33.33"/>
			<rect x="456.94" y="775" fill="#FFD700" width="33.33" height="33.33"/>
			<rect x="456.94" y="808.33" fill="#FFD700" width="33.33" height="33.34"/>
			<rect x="456.94" y="908.33" fill="#FFD700" width="33.33" height="33.34"/>
			<rect x="456.94" y="875" fill="#FFD700" width="33.33" height="33.33"/>
			<rect x="490.27" y="875" fill="#FFD700" width="33.34" height="33.33"/>
			<rect x="490.27" y="908.33" fill="#FFD700" width="33.34" height="33.34"/>
			<rect x="490.27" y="841.67" fill="#FFD700" width="33.34" height="33.33"/>
			<rect x="490.27" y="808.33" fill="#FFD700" width="33.34" height="33.34"/>
			<rect x="490.27" y="775" fill="#FFD700" width="33.34" height="33.33"/>
			<rect x="490.27" y="741.67" fill="#FFD700" width="33.34" height="33.33"/>
			<rect x="56.94" y="875" fill="#FFD700" width="33.33" height="33.33"/>
			<rect x="123.61" y="675" fill="#FFD700" width="33.33" height="33.33"/>
			<rect x="56.94" y="841.67" fill="#FFD700" width="33.33" height="33.33"/>
			<rect x="90.27" y="808.33" fill="#FFD700" width="33.34" height="33.34"/>
			<rect x="56.94" y="808.33" fill="#FFD700" width="33.33" height="33.34"/>
			<rect x="90.27" y="775" fill="#FFD700" width="33.34" height="33.33"/>
			<rect x="123.61" y="741.67" fill="#FFD700" width="33.33" height="33.33"/>
			<rect x="90.27" y="741.67" fill="#FFD700" width="33.34" height="33.33"/>
			<rect x="123.61" y="708.33" fill="#FFD700" width="33.33" height="33.34"/>
			<rect x="223.61" y="475" fill="#FFD700" width="33.33" height="33.33"/>
			<rect x="123.61" y="475" fill="#FFD700" width="33.33" height="33.33"/>
			<rect x="123.61" y="375" fill="#FFD700" width="33.33" height="33.33"/>
			<rect x="223.61" y="375" fill="#FFD700" width="33.33" height="33.33"/>
			<rect x="256.94" y="441.67" fill="#FFD700" width="33.33" height="33.33"/>
			<rect x="190.27" y="241.67" fill="#FFD700" width="33.34" height="33.33"/>
			<rect x="256.94" y="141.67" fill="#FFD700" width="33.33" height="33.33"/>
			<rect x="223.61" y="175" fill="#FFD700" width="33.33" height="33.33"/>
			<rect x="223.61" y="208.33" fill="#FFD700" width="33.33" height="33.34"/>
			<rect x="223.61" y="241.67" fill="#FFD700" width="33.33" height="33.33"/>
			<rect x="156.94" y="275" fill="#FFD700" width="33.33" height="33.33"/>
			<rect x="123.61" y="275" fill="#FFD700" width="33.33" height="33.33"/>
			<rect x="223.61" y="275" fill="#FFD700" width="33.33" height="33.33"/>
			<rect x="190.27" y="275" fill="#FFD700" width="33.34" height="33.33"/>
			<rect x="90.27" y="308.33" fill="#FFD700" width="33.34" height="33.34"/>
			<rect x="56.94" y="308.33" fill="#FFD700" width="33.33" height="33.34"/>
			<rect x="156.94" y="308.33" fill="#FFD700" width="33.33" height="33.34"/>
			<rect x="123.61" y="308.33" fill="#FFD700" width="33.33" height="33.34"/>
			<rect x="256.94" y="308.33" fill="#FFD700" width="33.33" height="33.34"/>
			<rect x="223.61" y="308.33" fill="#FFD700" width="33.33" height="33.34"/>
			<rect x="190.27" y="308.33" fill="#FFD700" width="33.34" height="33.34"/>
			<rect x="356.94" y="341.67" fill="#FFD700" width="33.33" height="33.33"/>
			<rect x="390.27" y="341.67" fill="#FFD700" width="33.34" height="33.33"/>
			<rect x="423.61" y="341.67" fill="#FFD700" width="33.33" height="33.33"/>
			<rect x="456.94" y="341.67" fill="#FFD700" width="33.33" height="33.33"/>
			<rect x="490.27" y="341.67" fill="#FFD700" width="33.34" height="33.33"/>
			<rect x="523.61" y="341.67" fill="#FFD700" width="33.33" height="33.33"/>
			<rect x="290.27" y="575" fill="#FFD700" width="33.34" height="33.33"/>
			<rect x="223.61" y="575" fill="#FFD700" width="33.33" height="33.33"/>
			<rect x="256.94" y="575" fill="#FFD700" width="33.33" height="33.33"/>
			<rect x="156.94" y="541.67" fill="#FFD700" width="33.33" height="33.33"/>
			<rect x="123.61" y="541.67" fill="#FFD700" width="33.33" height="33.33"/>
			<rect x="223.61" y="541.67" fill="#FFD700" width="33.33" height="33.33"/>
			<rect x="190.27" y="541.67" fill="#FFD700" width="33.34" height="33.33"/>
			<rect x="256.94" y="541.67" fill="#FFD700" width="33.33" height="33.33"/>
			<rect x="156.94" y="508.33" fill="#FFD700" width="33.33" height="33.34"/>
			<rect x="123.61" y="508.33" fill="#FFD700" width="33.33" height="33.34"/>
			<rect x="223.61" y="508.33" fill="#FFD700" width="33.33" height="33.34"/>
			<rect x="190.27" y="508.33" fill="#FFD700" width="33.34" height="33.34"/>
			<rect x="56.94" y="508.33" fill="#FFD700" width="33.33" height="33.34"/>
			<rect x="90.27" y="508.33" fill="#FFD700" width="33.34" height="33.34"/>
			<rect x="23.61" y="341.67" fill="#FFD700" width="33.33" height="33.33"/>
			<rect x="23.61" y="375" fill="#FFD700" width="33.33" height="33.33"/>
			<rect x="-9.73" y="408.33" fill="#FFD700" width="33.34" height="33.34"/>
			<rect x="23.61" y="408.33" fill="#FFD700" width="33.33" height="33.34"/>
			<rect x="90.27" y="441.67" fill="#FFD700" width="33.34" height="33.33"/>
			<rect x="90.27" y="475" fill="#FFD700" width="33.34" height="33.33"/>
			<rect x="90.27" y="341.67" fill="#FFD700" width="33.34" height="33.33"/>
			<rect x="90.27" y="408.33" fill="#FFD700" width="33.34" height="33.34"/>
			<rect x="90.27" y="375" fill="#FFD700" width="33.34" height="33.33"/>
			<rect x="56.94" y="475" fill="#FFD700" width="33.33" height="33.33"/>
			<rect x="56.94" y="441.67" fill="#FFD700" width="33.33" height="33.33"/>
			<rect x="56.94" y="408.33" fill="#FFD700" width="33.33" height="33.34"/>
			<rect x="56.94" y="375" fill="#FFD700" width="33.33" height="33.33"/>
			<rect x="56.94" y="341.67" fill="#FFD700" width="33.33" height="33.33"/>
			<rect x="156.94" y="341.67" fill="#FFD700" width="33.33" height="33.33"/>
			<rect x="123.61" y="341.67" fill="#FFD700" width="33.33" height="33.33"/>
			<rect x="23.61" y="475" fill="#FFD700" width="33.33" height="33.33"/>
			<rect x="23.61" y="441.67" fill="#FFD700" width="33.33" height="33.33"/>
			<rect x="223.61" y="341.67" fill="#FFD700" width="33.33" height="33.33"/>
			<rect x="190.27" y="341.67" fill="#FFD700" width="33.34" height="33.33"/>
			<rect x="323.61" y="341.67" fill="#FFD700" width="33.33" height="33.33"/>
			<rect x="256.94" y="341.67" fill="#FFD700" width="33.33" height="33.33"/>
			<rect x="290.27" y="341.67" fill="#FFD700" width="33.34" height="33.33"/>
			<rect x="290.27" y="375" fill="#FFD700" width="33.34" height="33.33"/>
			<rect x="256.94" y="375" fill="#FFD700" width="33.33" height="33.33"/>
			<rect x="290.27" y="408.33" fill="#FFD700" width="33.34" height="33.34"/>
			<rect x="256.94" y="408.33" fill="#FFD700" width="33.33" height="33.34"/>
			<rect x="656.94" y="408.33" fill="#FFD700" width="33.329" height="33.34"/>
			<rect x="656.94" y="341.67" fill="#FFD700" width="33.329" height="33.33"/>
			<rect x="656.94" y="475" fill="#FFD700" width="33.329" height="33.33"/>
			<rect x="656.94" y="375" fill="#FFD700" width="33.329" height="33.33"/>
			<rect x="656.94" y="441.67" fill="#FFD700" width="33.329" height="33.33"/>
			<rect x="656.94" y="508.33" fill="#FFD700" width="33.329" height="33.34"/>
			<rect x="623.61" y="541.67" fill="#FFD700" width="33.33" height="33.33"/>
			<rect x="623.61" y="508.33" fill="#FFD700" width="33.33" height="33.34"/>
			<rect x="623.61" y="475" fill="#FFD700" width="33.33" height="33.33"/>
			<rect x="623.61" y="441.67" fill="#FFD700" width="33.33" height="33.33"/>
			<rect x="623.61" y="408.33" fill="#FFD700" width="33.33" height="33.34"/>
			<rect x="590.27" y="541.67" fill="#FFD700" width="33.341" height="33.33"/>
			<rect x="556.94" y="441.67" fill="#FFD700" width="33.329" height="33.33"/>
			<rect x="590.27" y="375" fill="#FFD700" width="33.341" height="33.33"/>
			<rect x="590.27" y="441.67" fill="#FFD700" width="33.341" height="33.33"/>
			<rect x="556.94" y="575" fill="#FFD700" width="33.329" height="33.33"/>
			<rect x="623.61" y="341.67" fill="#FFD700" width="33.33" height="33.33"/>
			<rect x="590.27" y="408.33" fill="#FFD700" width="33.341" height="33.34"/>
			<rect x="623.61" y="375" fill="#FFD700" width="33.33" height="33.33"/>
			<rect x="590.27" y="475" fill="#FFD700" width="33.341" height="33.33"/>
			<rect x="556.94" y="541.67" fill="#FFD700" width="33.329" height="33.33"/>
			<rect x="556.94" y="475" fill="#FFD700" width="33.329" height="33.33"/>
			<rect x="556.94" y="508.33" fill="#FFD700" width="33.329" height="33.34"/>
			<rect x="590.27" y="341.67" fill="#FFD700" width="33.341" height="33.33"/>
			<rect x="590.27" y="508.33" fill="#FFD700" width="33.341" height="33.34"/>
			<rect x="556.94" y="341.67" fill="#FFD700" width="33.329" height="33.33"/>
			<rect x="556.94" y="375" fill="#FFD700" width="33.329" height="33.33"/>
			<rect x="523.61" y="575" fill="#FFD700" width="33.33" height="33.33"/>
			<rect x="490.27" y="575" fill="#FFD700" width="33.34" height="33.33"/>
			<rect x="556.94" y="408.33" fill="#FFD700" width="33.329" height="33.34"/>
			<rect x="456.94" y="575" fill="#FFD700" width="33.33" height="33.33"/>
			<rect x="423.61" y="575" fill="#FFD700" width="33.33" height="33.33"/>
			<rect x="323.61" y="575" fill="#FFD700" width="33.33" height="33.33"/>
			<rect x="356.94" y="575" fill="#FFD700" width="33.33" height="33.33"/>
			<rect x="356.94" y="541.67" fill="#FFD700" width="33.33" height="33.33"/>
			<rect x="390.27" y="541.67" fill="#FFD700" width="33.34" height="33.33"/>
			<rect x="390.27" y="508.33" fill="#FFD700" width="33.34" height="33.34"/>
			<rect x="390.27" y="441.67" fill="#FFD700" width="33.34" height="33.33"/>
			<rect x="390.27" y="475" fill="#FFD700" width="33.34" height="33.33"/>
			<rect x="390.27" y="575" fill="#FFD700" width="33.34" height="33.33"/>
			<rect x="456.94" y="408.33" fill="#FFD700" width="33.33" height="33.34"/>
			<rect x="456.94" y="375" fill="#FFD700" width="33.33" height="33.33"/>
			<rect x="423.61" y="408.33" fill="#FFD700" width="33.33" height="33.34"/>
			<rect x="423.61" y="375" fill="#FFD700" width="33.33" height="33.33"/>
			<rect x="323.61" y="408.33" fill="#FFD700" width="33.33" height="33.34"/>
			<rect x="323.61" y="375" fill="#FFD700" width="33.33" height="33.33"/>
			<rect x="323.61" y="541.67" fill="#FFD700" width="33.33" height="33.33"/>
			<rect x="323.61" y="508.33" fill="#FFD700" width="33.33" height="33.34"/>
			<rect x="323.61" y="475" fill="#FFD700" width="33.33" height="33.33"/>
			<rect x="323.61" y="441.67" fill="#FFD700" width="33.33" height="33.33"/>
			<rect x="290.27" y="541.67" fill="#FFD700" width="33.34" height="33.33"/>
			<rect x="290.27" y="508.33" fill="#FFD700" width="33.34" height="33.34"/>
			<rect x="290.27" y="475" fill="#FFD700" width="33.34" height="33.33"/>
			<rect x="290.27" y="441.67" fill="#FFD700" width="33.34" height="33.33"/>
			<rect x="256.94" y="475" fill="#FFD700" width="33.33" height="33.33"/>
			<rect x="356.94" y="475" fill="#FFD700" width="33.33" height="33.33"/>
			<rect x="356.94" y="441.67" fill="#FFD700" width="33.33" height="33.33"/>
			<rect x="356.94" y="408.33" fill="#FFD700" width="33.33" height="33.34"/>
			<rect x="356.94" y="375" fill="#FFD700" width="33.33" height="33.33"/>
			<rect x="356.94" y="508.33" fill="#FFD700" width="33.33" height="33.34"/>
			<rect x="390.27" y="408.33" fill="#FFD700" width="33.34" height="33.34"/>
			<rect x="390.27" y="375" fill="#FFD700" width="33.34" height="33.33"/>
			<rect x="523.61" y="375" fill="#FFD700" width="33.33" height="33.33"/>
			<rect x="523.61" y="408.33" fill="#FFD700" width="33.33" height="33.34"/>
			<rect x="490.27" y="375" fill="#FFD700" width="33.34" height="33.33"/>
			<rect x="490.27" y="408.33" fill="#FFD700" width="33.34" height="33.34"/>
			<rect x="256.94" y="508.33" fill="#FFD700" width="33.33" height="33.34"/>
		</g>
		<g>
		</g>
	</g>
</g>
</svg>
