<?xml version="1.0" encoding="utf-8"?>
<!-- Generator: Adobe Illustrator 16.0.0, SVG Export Plug-In . SVG Version: 6.00 Build 0)  -->
<!DOCTYPE svg PUBLIC "-//W3C//DTD SVG 1.1//EN" "http://www.w3.org/Graphics/SVG/1.1/DTD/svg11.dtd">
<svg version="1.1" id="Layer_1" xmlns="http://www.w3.org/2000/svg" xmlns:xlink="http://www.w3.org/1999/xlink" x="0px" y="0px"
	 width="198.986px" height="200px" viewBox="391.007 393 198.986 200" enable-background="new 391.007 393 198.986 200"
	 xml:space="preserve">
<g id="Layer_3">
	<g id="XMLID_3_">
		<g>
			<rect x="497.166" y="579.669" fill="#FF4500" width="6.668" height="6.663"/>
			<rect x="497.166" y="586.334" fill="#FF4500" width="6.668" height="6.666"/>
			<rect x="443.833" y="426.333" fill="#FF4500" width="6.667" height="6.665"/>
			<rect x="530.5" y="426.333" fill="#FF4500" width="6.666" height="6.665"/>
			<rect x="530.5" y="419.667" fill="#FF4500" width="6.666" height="6.664"/>
			<rect x="450.5" y="413" fill="#FF4500" width="6.666" height="6.665"/>
			<rect x="523.834" y="413" fill="#FF4500" width="6.666" height="6.665"/>
			<rect x="443.833" y="419.667" fill="#FF4500" width="6.667" height="6.664"/>
			<rect x="490.501" y="446.333" fill="#FF4500" width="6.665" height="6.665"/>
			<rect x="483.833" y="446.333" fill="#FF4500" width="6.667" height="6.665"/>
			<rect x="437.168" y="406.333" fill="#FF4500" width="6.665" height="6.665"/>
			<rect x="437.168" y="399.667" fill="#FF4500" width="6.665" height="6.663"/>
			<rect x="430.5" y="399.667" fill="#FF4500" width="6.667" height="6.663"/>
			<rect x="437.168" y="393" fill="#FF4500" width="6.665" height="6.665"/>
			<rect x="443.833" y="399.667" fill="#FF4500" width="6.667" height="6.663"/>
			<rect x="443.833" y="406.333" fill="#FF4500" width="6.667" height="6.665"/>
			<rect x="443.833" y="413" fill="#FF4500" width="6.667" height="6.665"/>
			<rect x="450.5" y="419.667" fill="#FF4500" width="6.666" height="6.664"/>
			<rect x="543.834" y="399.667" fill="#FF4500" width="6.666" height="6.663"/>
			<rect x="537.166" y="393" fill="#FF4500" width="6.668" height="6.665"/>
			<rect x="530.5" y="399.667" fill="#FF4500" width="6.666" height="6.663"/>
			<rect x="537.166" y="399.667" fill="#FF4500" width="6.668" height="6.663"/>
			<rect x="537.166" y="406.333" fill="#FF4500" width="6.668" height="6.665"/>
			<rect x="530.5" y="406.333" fill="#FF4500" width="6.666" height="6.665"/>
			<rect x="530.5" y="413" fill="#FF4500" width="6.666" height="6.665"/>
			<rect x="523.834" y="419.667" fill="#FF4500" width="6.666" height="6.664"/>
			<rect x="497.166" y="413" fill="#FF4500" width="6.668" height="6.665"/>
			<rect x="490.501" y="413" fill="#FF4500" width="6.665" height="6.665"/>
			<rect x="483.833" y="413" fill="#FF4500" width="6.667" height="6.665"/>
			<rect x="477.166" y="413" fill="#FF4500" width="6.667" height="6.665"/>
			<rect x="510.502" y="419.667" fill="#FF4500" width="6.664" height="6.664"/>
			<rect x="470.5" y="419.667" fill="#FF4500" width="6.666" height="6.664"/>
			<rect x="463.833" y="419.667" fill="#FF4500" width="6.667" height="6.664"/>
			<rect x="503.834" y="419.667" fill="#FF4500" width="6.668" height="6.664"/>
			<rect x="490.501" y="419.667" fill="#FF4500" width="6.665" height="6.664"/>
			<rect x="497.166" y="419.667" fill="#FF4500" width="6.668" height="6.664"/>
			<rect x="483.833" y="419.667" fill="#FF4500" width="6.667" height="6.664"/>
			<rect x="477.166" y="419.667" fill="#FF4500" width="6.667" height="6.664"/>
			<rect x="470.5" y="426.333" fill="#FF4500" width="6.666" height="6.665"/>
			<rect x="457.166" y="426.333" fill="#FF4500" width="6.667" height="6.665"/>
			<rect x="463.833" y="426.333" fill="#FF4500" width="6.667" height="6.665"/>
			<rect x="450.5" y="426.333" fill="#FF4500" width="6.666" height="6.665"/>
			<rect x="523.834" y="426.333" fill="#FF4500" width="6.666" height="6.665"/>
			<rect x="517.166" y="426.333" fill="#FF4500" width="6.668" height="6.665"/>
			<rect x="510.502" y="426.333" fill="#FF4500" width="6.664" height="6.665"/>
			<rect x="503.834" y="426.333" fill="#FF4500" width="6.668" height="6.665"/>
			<rect x="497.166" y="426.333" fill="#FF4500" width="6.668" height="6.665"/>
			<rect x="490.501" y="426.333" fill="#FF4500" width="6.665" height="6.665"/>
			<rect x="477.166" y="426.333" fill="#FF4500" width="6.667" height="6.665"/>
			<rect x="483.833" y="426.333" fill="#FF4500" width="6.667" height="6.665"/>
			<rect x="583.832" y="559.668" fill="#FF4500" width="6.668" height="6.664"/>
			<rect x="583.832" y="553.001" fill="#FF4500" width="6.668" height="6.665"/>
			<rect x="577.168" y="559.668" fill="#FF4500" width="6.664" height="6.664"/>
			<rect x="577.168" y="553.001" fill="#FF4500" width="6.664" height="6.665"/>
			<rect x="570.5" y="559.668" fill="#FF4500" width="6.666" height="6.664"/>
			<rect x="570.5" y="553.001" fill="#FF4500" width="6.666" height="6.665"/>
			<rect x="570.5" y="546.334" fill="#FF4500" width="6.666" height="6.665"/>
			<rect x="563.834" y="559.668" fill="#FF4500" width="6.666" height="6.664"/>
			<rect x="563.834" y="553.001" fill="#FF4500" width="6.666" height="6.665"/>
			<rect x="563.834" y="546.334" fill="#FF4500" width="6.666" height="6.665"/>
			<rect x="557.166" y="553.001" fill="#FF4500" width="6.668" height="6.665"/>
			<rect x="557.166" y="546.334" fill="#FF4500" width="6.668" height="6.665"/>
			<rect x="550.5" y="553.001" fill="#FF4500" width="6.666" height="6.665"/>
			<rect x="550.5" y="546.334" fill="#FF4500" width="6.666" height="6.665"/>
			<rect x="543.834" y="546.334" fill="#FF4500" width="6.666" height="6.665"/>
			<rect x="543.834" y="539.668" fill="#FF4500" width="6.666" height="6.664"/>
			<rect x="537.166" y="573.001" fill="#FF4500" width="6.668" height="6.665"/>
			<rect x="537.166" y="546.334" fill="#FF4500" width="6.668" height="6.665"/>
			<rect x="537.166" y="539.668" fill="#FF4500" width="6.668" height="6.664"/>
			<rect x="537.166" y="533.001" fill="#FF4500" width="6.668" height="6.665"/>
			<rect x="537.166" y="526.333" fill="#FF4500" width="6.668" height="6.666"/>
			<rect x="537.166" y="519.668" fill="#FF4500" width="6.668" height="6.663"/>
			<rect x="537.166" y="513.001" fill="#FF4500" width="6.668" height="6.665"/>
			<rect x="537.166" y="506.333" fill="#FF4500" width="6.668" height="6.665"/>
			<rect x="537.166" y="499.668" fill="#FF4500" width="6.668" height="6.663"/>
			<rect x="537.166" y="493.001" fill="#FF4500" width="6.668" height="6.665"/>
			<rect x="537.166" y="486.333" fill="#FF4500" width="6.668" height="6.666"/>
			<rect x="537.166" y="479.668" fill="#FF4500" width="6.668" height="6.663"/>
			<rect x="537.166" y="473.001" fill="#FF4500" width="6.668" height="6.665"/>
			<rect x="537.166" y="466.333" fill="#FF4500" width="6.668" height="6.665"/>
			<rect x="537.166" y="459.668" fill="#FF4500" width="6.668" height="6.663"/>
			<rect x="537.166" y="453" fill="#FF4500" width="6.668" height="6.666"/>
			<rect x="530.5" y="573.001" fill="#FF4500" width="6.666" height="6.665"/>
			<rect x="530.5" y="566.334" fill="#FF4500" width="6.666" height="6.665"/>
			<rect x="530.5" y="546.334" fill="#FF4500" width="6.666" height="6.665"/>
			<rect x="530.5" y="539.668" fill="#FF4500" width="6.666" height="6.664"/>
			<rect x="530.5" y="533.001" fill="#FF4500" width="6.666" height="6.665"/>
			<rect x="530.5" y="526.333" fill="#FF4500" width="6.666" height="6.666"/>
			<rect x="530.5" y="519.668" fill="#FF4500" width="6.666" height="6.663"/>
			<rect x="530.5" y="513.001" fill="#FF4500" width="6.666" height="6.665"/>
			<rect x="530.5" y="506.333" fill="#FF4500" width="6.666" height="6.665"/>
			<rect x="530.5" y="499.668" fill="#FF4500" width="6.666" height="6.663"/>
			<rect x="530.5" y="493.001" fill="#FF4500" width="6.666" height="6.665"/>
			<rect x="530.5" y="486.333" fill="#FF4500" width="6.666" height="6.666"/>
			<rect x="530.5" y="479.668" fill="#FF4500" width="6.666" height="6.663"/>
			<rect x="530.5" y="473.001" fill="#FF4500" width="6.666" height="6.665"/>
			<rect x="530.5" y="466.333" fill="#FF4500" width="6.666" height="6.665"/>
			<rect x="530.5" y="459.668" fill="#FF4500" width="6.666" height="6.663"/>
			<rect x="530.5" y="453" fill="#FF4500" width="6.666" height="6.666"/>
			<rect x="530.5" y="446.333" fill="#FF4500" width="6.666" height="6.665"/>
			<rect x="530.5" y="439.668" fill="#FF4500" width="6.666" height="6.663"/>
			<rect x="523.834" y="573.001" fill="#FF4500" width="6.666" height="6.665"/>
			<rect x="523.834" y="566.334" fill="#FF4500" width="6.666" height="6.665"/>
			<rect x="523.834" y="559.668" fill="#FF4500" width="6.666" height="6.664"/>
			<rect x="523.834" y="546.334" fill="#FF4500" width="6.666" height="6.665"/>
			<rect x="523.834" y="539.668" fill="#FF4500" width="6.666" height="6.664"/>
			<rect x="523.834" y="533.001" fill="#FF4500" width="6.666" height="6.665"/>
			<rect x="523.834" y="526.333" fill="#FF4500" width="6.666" height="6.666"/>
			<rect x="523.834" y="519.668" fill="#FF4500" width="6.666" height="6.663"/>
			<rect x="523.834" y="513.001" fill="#FF4500" width="6.666" height="6.665"/>
			<rect x="523.834" y="506.333" fill="#FF4500" width="6.666" height="6.665"/>
			<rect x="523.834" y="499.668" fill="#FF4500" width="6.666" height="6.663"/>
			<rect x="523.834" y="493.001" fill="#FF4500" width="6.666" height="6.665"/>
			<rect x="523.834" y="466.333" fill="#FF4500" width="6.666" height="6.665"/>
			<rect x="523.834" y="459.668" fill="#FF4500" width="6.666" height="6.663"/>
			<rect x="523.834" y="453" fill="#FF4500" width="6.666" height="6.666"/>
			<rect x="523.834" y="446.333" fill="#FF4500" width="6.666" height="6.665"/>
			<rect x="523.834" y="439.668" fill="#FF4500" width="6.666" height="6.663"/>
			<rect x="523.834" y="433" fill="#FF4500" width="6.666" height="6.665"/>
			<rect x="517.166" y="566.334" fill="#FF4500" width="6.668" height="6.665"/>
			<rect x="517.166" y="559.668" fill="#FF4500" width="6.668" height="6.664"/>
			<rect x="517.166" y="553.001" fill="#FF4500" width="6.668" height="6.665"/>
			<rect x="517.166" y="546.334" fill="#FF4500" width="6.668" height="6.665"/>
			<rect x="517.166" y="539.668" fill="#FF4500" width="6.668" height="6.664"/>
			<rect x="517.166" y="533.001" fill="#FF4500" width="6.668" height="6.665"/>
			<rect x="517.166" y="526.333" fill="#FF4500" width="6.668" height="6.666"/>
			<rect x="517.166" y="519.668" fill="#FF4500" width="6.668" height="6.663"/>
			<rect x="517.166" y="513.001" fill="#FF4500" width="6.668" height="6.665"/>
			<rect x="517.166" y="506.333" fill="#FF4500" width="6.668" height="6.665"/>
			<rect x="517.166" y="499.668" fill="#FF4500" width="6.668" height="6.663"/>
			<rect x="517.166" y="493.001" fill="#FF4500" width="6.668" height="6.665"/>
			<rect x="517.166" y="479.668" fill="#FF4500" width="6.668" height="6.663"/>
			<rect x="517.166" y="473.001" fill="#FF4500" width="6.668" height="6.665"/>
			<rect x="517.166" y="459.668" fill="#FF4500" width="6.668" height="6.663"/>
			<rect x="517.166" y="453" fill="#FF4500" width="6.668" height="6.666"/>
			<rect x="517.166" y="446.333" fill="#FF4500" width="6.668" height="6.665"/>
			<rect x="517.166" y="439.668" fill="#FF4500" width="6.668" height="6.663"/>
			<rect x="517.166" y="433" fill="#FF4500" width="6.668" height="6.665"/>
			<rect x="510.502" y="566.334" fill="#FF4500" width="6.664" height="6.665"/>
			<rect x="510.502" y="559.668" fill="#FF4500" width="6.664" height="6.664"/>
			<rect x="510.502" y="553.001" fill="#FF4500" width="6.664" height="6.665"/>
			<rect x="510.502" y="546.334" fill="#FF4500" width="6.664" height="6.665"/>
			<rect x="510.502" y="539.668" fill="#FF4500" width="6.664" height="6.664"/>
			<rect x="510.502" y="533.001" fill="#FF4500" width="6.664" height="6.665"/>
			<rect x="510.502" y="526.333" fill="#FF4500" width="6.664" height="6.666"/>
			<rect x="510.502" y="519.668" fill="#FF4500" width="6.664" height="6.663"/>
			<rect x="510.502" y="513.001" fill="#FF4500" width="6.664" height="6.665"/>
			<rect x="510.502" y="506.333" fill="#FF4500" width="6.664" height="6.665"/>
			<rect x="510.502" y="499.668" fill="#FF4500" width="6.664" height="6.663"/>
			<rect x="510.502" y="493.001" fill="#FF4500" width="6.664" height="6.665"/>
			<rect x="510.502" y="459.668" fill="#FF4500" width="6.664" height="6.663"/>
			<rect x="510.502" y="453" fill="#FF4500" width="6.664" height="6.666"/>
			<rect x="510.502" y="446.333" fill="#FF4500" width="6.664" height="6.665"/>
			<rect x="510.502" y="439.668" fill="#FF4500" width="6.664" height="6.663"/>
			<rect x="510.502" y="433" fill="#FF4500" width="6.664" height="6.665"/>
			<rect x="503.834" y="559.668" fill="#FF4500" width="6.668" height="6.664"/>
			<rect x="503.834" y="553.001" fill="#FF4500" width="6.668" height="6.665"/>
			<rect x="503.834" y="546.334" fill="#FF4500" width="6.668" height="6.665"/>
			<rect x="503.834" y="539.668" fill="#FF4500" width="6.668" height="6.664"/>
			<rect x="503.834" y="533.001" fill="#FF4500" width="6.668" height="6.665"/>
			<rect x="503.834" y="526.333" fill="#FF4500" width="6.668" height="6.666"/>
			<rect x="503.834" y="519.668" fill="#FF4500" width="6.668" height="6.663"/>
			<rect x="503.834" y="513.001" fill="#FF4500" width="6.668" height="6.665"/>
			<rect x="503.834" y="506.333" fill="#FF4500" width="6.668" height="6.665"/>
			<rect x="503.834" y="499.668" fill="#FF4500" width="6.668" height="6.663"/>
			<rect x="503.834" y="493.001" fill="#FF4500" width="6.668" height="6.665"/>
			<rect x="503.834" y="486.333" fill="#FF4500" width="6.668" height="6.666"/>
			<rect x="503.834" y="466.333" fill="#FF4500" width="6.668" height="6.665"/>
			<rect x="503.834" y="459.668" fill="#FF4500" width="6.668" height="6.663"/>
			<rect x="503.834" y="453" fill="#FF4500" width="6.668" height="6.666"/>
			<rect x="503.834" y="446.333" fill="#FF4500" width="6.668" height="6.665"/>
			<rect x="503.834" y="439.668" fill="#FF4500" width="6.668" height="6.663"/>
			<rect x="503.834" y="433" fill="#FF4500" width="6.668" height="6.665"/>
			<rect x="497.166" y="553.001" fill="#FF4500" width="6.668" height="6.665"/>
			<rect x="497.166" y="546.334" fill="#FF4500" width="6.668" height="6.665"/>
			<rect x="497.166" y="539.668" fill="#FF4500" width="6.668" height="6.664"/>
			<rect x="497.166" y="533.001" fill="#FF4500" width="6.668" height="6.665"/>
			<rect x="497.166" y="526.333" fill="#FF4500" width="6.668" height="6.666"/>
			<rect x="497.166" y="519.668" fill="#FF4500" width="6.668" height="6.663"/>
			<rect x="497.166" y="513.001" fill="#FF4500" width="6.668" height="6.665"/>
			<rect x="497.166" y="506.333" fill="#FF4500" width="6.668" height="6.665"/>
			<rect x="497.166" y="499.668" fill="#FF4500" width="6.668" height="6.663"/>
			<rect x="497.166" y="493.001" fill="#FF4500" width="6.668" height="6.665"/>
			<rect x="497.166" y="486.333" fill="#FF4500" width="6.668" height="6.666"/>
			<rect x="497.166" y="479.668" fill="#FF4500" width="6.668" height="6.663"/>
			<rect x="497.166" y="473.001" fill="#FF4500" width="6.668" height="6.665"/>
			<rect x="497.166" y="466.333" fill="#FF4500" width="6.668" height="6.665"/>
			<rect x="497.166" y="459.668" fill="#FF4500" width="6.668" height="6.663"/>
			<rect x="497.166" y="433" fill="#FF4500" width="6.668" height="6.665"/>
			<rect x="490.501" y="586.334" fill="#FF4500" width="6.665" height="6.666"/>
			<rect x="490.501" y="579.669" fill="#FF4500" width="6.665" height="6.663"/>
			<rect x="490.501" y="573.001" fill="#FF4500" width="6.665" height="6.665"/>
			<rect x="490.501" y="566.334" fill="#FF4500" width="6.665" height="6.665"/>
			<rect x="490.501" y="559.668" fill="#FF4500" width="6.665" height="6.664"/>
			<rect x="490.501" y="553.001" fill="#FF4500" width="6.665" height="6.665"/>
			<rect x="490.501" y="546.334" fill="#FF4500" width="6.665" height="6.665"/>
			<rect x="490.501" y="539.668" fill="#FF4500" width="6.665" height="6.664"/>
			<rect x="490.501" y="533.001" fill="#FF4500" width="6.665" height="6.665"/>
			<rect x="490.501" y="526.333" fill="#FF4500" width="6.665" height="6.666"/>
			<rect x="490.501" y="519.668" fill="#FF4500" width="6.665" height="6.663"/>
			<rect x="490.501" y="513.001" fill="#FF4500" width="6.665" height="6.665"/>
			<rect x="490.501" y="506.333" fill="#FF4500" width="6.665" height="6.665"/>
			<rect x="490.501" y="499.668" fill="#FF4500" width="6.665" height="6.663"/>
			<rect x="490.501" y="493.001" fill="#FF4500" width="6.665" height="6.665"/>
			<rect x="490.501" y="486.333" fill="#FF4500" width="6.665" height="6.666"/>
			<rect x="490.501" y="479.668" fill="#FF4500" width="6.665" height="6.663"/>
			<rect x="490.501" y="473.001" fill="#FF4500" width="6.665" height="6.665"/>
			<rect x="490.501" y="466.333" fill="#FF4500" width="6.665" height="6.665"/>
			<rect x="483.833" y="579.669" fill="#FF4500" width="6.667" height="6.663"/>
			<rect x="483.833" y="573.001" fill="#FF4500" width="6.667" height="6.665"/>
			<rect x="483.833" y="566.334" fill="#FF4500" width="6.667" height="6.665"/>
			<rect x="483.833" y="559.668" fill="#FF4500" width="6.667" height="6.664"/>
			<rect x="483.833" y="553.001" fill="#FF4500" width="6.667" height="6.665"/>
			<rect x="483.833" y="546.334" fill="#FF4500" width="6.667" height="6.665"/>
			<rect x="483.833" y="539.668" fill="#FF4500" width="6.667" height="6.664"/>
			<rect x="483.833" y="533.001" fill="#FF4500" width="6.667" height="6.665"/>
			<rect x="483.833" y="526.333" fill="#FF4500" width="6.667" height="6.666"/>
			<rect x="483.833" y="519.668" fill="#FF4500" width="6.667" height="6.663"/>
			<rect x="483.833" y="513.001" fill="#FF4500" width="6.667" height="6.665"/>
			<rect x="483.833" y="506.333" fill="#FF4500" width="6.667" height="6.665"/>
			<rect x="483.833" y="499.668" fill="#FF4500" width="6.667" height="6.663"/>
			<rect x="483.833" y="493.001" fill="#FF4500" width="6.667" height="6.665"/>
			<rect x="483.833" y="486.333" fill="#FF4500" width="6.667" height="6.666"/>
			<rect x="483.833" y="479.668" fill="#FF4500" width="6.667" height="6.663"/>
			<rect x="483.833" y="473.001" fill="#FF4500" width="6.667" height="6.665"/>
			<rect x="483.833" y="466.333" fill="#FF4500" width="6.667" height="6.665"/>
			<rect x="477.166" y="559.668" fill="#FF4500" width="6.667" height="6.664"/>
			<rect x="477.166" y="553.001" fill="#FF4500" width="6.667" height="6.665"/>
			<rect x="477.166" y="546.334" fill="#FF4500" width="6.667" height="6.665"/>
			<rect x="477.166" y="539.668" fill="#FF4500" width="6.667" height="6.664"/>
			<rect x="477.166" y="533.001" fill="#FF4500" width="6.667" height="6.665"/>
			<rect x="477.166" y="526.333" fill="#FF4500" width="6.667" height="6.666"/>
			<rect x="477.166" y="519.668" fill="#FF4500" width="6.667" height="6.663"/>
			<rect x="477.166" y="513.001" fill="#FF4500" width="6.667" height="6.665"/>
			<rect x="477.166" y="506.333" fill="#FF4500" width="6.667" height="6.665"/>
			<rect x="477.166" y="499.668" fill="#FF4500" width="6.667" height="6.663"/>
			<rect x="477.166" y="493.001" fill="#FF4500" width="6.667" height="6.665"/>
			<rect x="477.166" y="486.333" fill="#FF4500" width="6.667" height="6.666"/>
			<rect x="477.166" y="479.668" fill="#FF4500" width="6.667" height="6.663"/>
			<rect x="477.166" y="473.001" fill="#FF4500" width="6.667" height="6.665"/>
			<rect x="477.166" y="466.333" fill="#FF4500" width="6.667" height="6.665"/>
			<rect x="477.166" y="459.668" fill="#FF4500" width="6.667" height="6.663"/>
			<rect x="477.166" y="433" fill="#FF4500" width="6.667" height="6.665"/>
			<rect x="470.5" y="553.001" fill="#FF4500" width="6.666" height="6.665"/>
			<rect x="470.5" y="546.334" fill="#FF4500" width="6.666" height="6.665"/>
			<rect x="470.5" y="539.668" fill="#FF4500" width="6.666" height="6.664"/>
			<rect x="470.5" y="533.001" fill="#FF4500" width="6.666" height="6.665"/>
			<rect x="470.5" y="526.333" fill="#FF4500" width="6.666" height="6.666"/>
			<rect x="470.5" y="519.668" fill="#FF4500" width="6.666" height="6.663"/>
			<rect x="470.5" y="513.001" fill="#FF4500" width="6.666" height="6.665"/>
			<rect x="470.5" y="506.333" fill="#FF4500" width="6.666" height="6.665"/>
			<rect x="470.5" y="499.668" fill="#FF4500" width="6.666" height="6.663"/>
			<rect x="470.5" y="493.001" fill="#FF4500" width="6.666" height="6.665"/>
			<rect x="470.5" y="486.333" fill="#FF4500" width="6.666" height="6.666"/>
			<rect x="470.5" y="466.333" fill="#FF4500" width="6.666" height="6.665"/>
			<rect x="470.5" y="459.668" fill="#FF4500" width="6.666" height="6.663"/>
			<rect x="470.5" y="453" fill="#FF4500" width="6.666" height="6.666"/>
			<rect x="470.5" y="446.333" fill="#FF4500" width="6.666" height="6.665"/>
			<rect x="470.5" y="439.668" fill="#FF4500" width="6.666" height="6.663"/>
			<rect x="470.5" y="433" fill="#FF4500" width="6.666" height="6.665"/>
			<rect x="463.833" y="559.668" fill="#FF4500" width="6.667" height="6.664"/>
			<rect x="463.833" y="553.001" fill="#FF4500" width="6.667" height="6.665"/>
			<rect x="463.833" y="546.334" fill="#FF4500" width="6.667" height="6.665"/>
			<rect x="463.833" y="539.668" fill="#FF4500" width="6.667" height="6.664"/>
			<rect x="463.833" y="533.001" fill="#FF4500" width="6.667" height="6.665"/>
			<rect x="463.833" y="526.333" fill="#FF4500" width="6.667" height="6.666"/>
			<rect x="463.833" y="519.668" fill="#FF4500" width="6.667" height="6.663"/>
			<rect x="463.833" y="513.001" fill="#FF4500" width="6.667" height="6.665"/>
			<rect x="463.833" y="506.333" fill="#FF4500" width="6.667" height="6.665"/>
			<rect x="463.833" y="499.668" fill="#FF4500" width="6.667" height="6.663"/>
			<rect x="463.833" y="493.001" fill="#FF4500" width="6.667" height="6.665"/>
			<rect x="463.833" y="459.668" fill="#FF4500" width="6.667" height="6.663"/>
			<rect x="463.833" y="453" fill="#FF4500" width="6.667" height="6.666"/>
			<rect x="463.833" y="446.333" fill="#FF4500" width="6.667" height="6.665"/>
			<rect x="463.833" y="439.668" fill="#FF4500" width="6.667" height="6.663"/>
			<rect x="463.833" y="433" fill="#FF4500" width="6.667" height="6.665"/>
			<rect x="457.166" y="566.334" fill="#FF4500" width="6.667" height="6.665"/>
			<rect x="457.166" y="559.668" fill="#FF4500" width="6.667" height="6.664"/>
			<rect x="457.166" y="553.001" fill="#FF4500" width="6.667" height="6.665"/>
			<rect x="457.166" y="546.334" fill="#FF4500" width="6.667" height="6.665"/>
			<rect x="457.166" y="539.668" fill="#FF4500" width="6.667" height="6.664"/>
			<rect x="457.166" y="533.001" fill="#FF4500" width="6.667" height="6.665"/>
			<rect x="457.166" y="526.333" fill="#FF4500" width="6.667" height="6.666"/>
			<rect x="457.166" y="519.668" fill="#FF4500" width="6.667" height="6.663"/>
			<rect x="457.166" y="513.001" fill="#FF4500" width="6.667" height="6.665"/>
			<rect x="457.166" y="506.333" fill="#FF4500" width="6.667" height="6.665"/>
			<rect x="457.166" y="499.668" fill="#FF4500" width="6.667" height="6.663"/>
			<rect x="457.166" y="493.001" fill="#FF4500" width="6.667" height="6.665"/>
			<rect x="457.166" y="479.668" fill="#FF4500" width="6.667" height="6.663"/>
			<rect x="457.166" y="473.001" fill="#FF4500" width="6.667" height="6.665"/>
			<rect x="457.166" y="459.668" fill="#FF4500" width="6.667" height="6.663"/>
			<rect x="457.166" y="453" fill="#FF4500" width="6.667" height="6.666"/>
			<rect x="457.166" y="446.333" fill="#FF4500" width="6.667" height="6.665"/>
			<rect x="457.166" y="439.668" fill="#FF4500" width="6.667" height="6.663"/>
			<rect x="457.166" y="433" fill="#FF4500" width="6.667" height="6.665"/>
			<rect x="450.5" y="573.001" fill="#FF4500" width="6.666" height="6.665"/>
			<rect x="450.5" y="566.334" fill="#FF4500" width="6.666" height="6.665"/>
			<rect x="450.5" y="559.668" fill="#FF4500" width="6.666" height="6.664"/>
			<rect x="450.5" y="546.334" fill="#FF4500" width="6.666" height="6.665"/>
			<rect x="450.5" y="539.668" fill="#FF4500" width="6.666" height="6.664"/>
			<rect x="450.5" y="533.001" fill="#FF4500" width="6.666" height="6.665"/>
			<rect x="450.5" y="526.333" fill="#FF4500" width="6.666" height="6.666"/>
			<rect x="450.5" y="519.668" fill="#FF4500" width="6.666" height="6.663"/>
			<rect x="450.5" y="513.001" fill="#FF4500" width="6.666" height="6.665"/>
			<rect x="450.5" y="506.333" fill="#FF4500" width="6.666" height="6.665"/>
			<rect x="450.5" y="499.668" fill="#FF4500" width="6.666" height="6.663"/>
			<rect x="450.5" y="493.001" fill="#FF4500" width="6.666" height="6.665"/>
			<rect x="450.5" y="466.333" fill="#FF4500" width="6.666" height="6.665"/>
			<rect x="450.5" y="459.668" fill="#FF4500" width="6.666" height="6.663"/>
			<rect x="450.5" y="453" fill="#FF4500" width="6.666" height="6.666"/>
			<rect x="450.5" y="446.333" fill="#FF4500" width="6.666" height="6.665"/>
			<rect x="450.5" y="439.668" fill="#FF4500" width="6.666" height="6.663"/>
			<rect x="450.5" y="433" fill="#FF4500" width="6.666" height="6.665"/>
			<rect x="443.833" y="573.001" fill="#FF4500" width="6.667" height="6.665"/>
			<rect x="443.833" y="566.334" fill="#FF4500" width="6.667" height="6.665"/>
			<rect x="443.833" y="546.334" fill="#FF4500" width="6.667" height="6.665"/>
			<rect x="443.833" y="539.668" fill="#FF4500" width="6.667" height="6.664"/>
			<rect x="443.833" y="533.001" fill="#FF4500" width="6.667" height="6.665"/>
			<rect x="443.833" y="526.333" fill="#FF4500" width="6.667" height="6.666"/>
			<rect x="443.833" y="519.668" fill="#FF4500" width="6.667" height="6.663"/>
			<rect x="443.833" y="513.001" fill="#FF4500" width="6.667" height="6.665"/>
			<rect x="443.833" y="506.333" fill="#FF4500" width="6.667" height="6.665"/>
			<rect x="443.833" y="499.668" fill="#FF4500" width="6.667" height="6.663"/>
			<rect x="443.833" y="493.001" fill="#FF4500" width="6.667" height="6.665"/>
			<rect x="443.833" y="486.333" fill="#FF4500" width="6.667" height="6.666"/>
			<rect x="443.833" y="479.668" fill="#FF4500" width="6.667" height="6.663"/>
			<rect x="443.833" y="473.001" fill="#FF4500" width="6.667" height="6.665"/>
			<rect x="443.833" y="466.333" fill="#FF4500" width="6.667" height="6.665"/>
			<rect x="443.833" y="459.668" fill="#FF4500" width="6.667" height="6.663"/>
			<rect x="443.833" y="453" fill="#FF4500" width="6.667" height="6.666"/>
			<rect x="443.833" y="446.333" fill="#FF4500" width="6.667" height="6.665"/>
			<rect x="443.833" y="439.668" fill="#FF4500" width="6.667" height="6.663"/>
			<rect x="437.168" y="573.001" fill="#FF4500" width="6.665" height="6.665"/>
			<rect x="437.168" y="546.334" fill="#FF4500" width="6.665" height="6.665"/>
			<rect x="437.168" y="539.668" fill="#FF4500" width="6.665" height="6.664"/>
			<rect x="437.168" y="533.001" fill="#FF4500" width="6.665" height="6.665"/>
			<rect x="437.168" y="526.333" fill="#FF4500" width="6.665" height="6.666"/>
			<rect x="437.168" y="519.668" fill="#FF4500" width="6.665" height="6.663"/>
			<rect x="437.168" y="513.001" fill="#FF4500" width="6.665" height="6.665"/>
			<rect x="437.168" y="506.333" fill="#FF4500" width="6.665" height="6.665"/>
			<rect x="437.168" y="499.668" fill="#FF4500" width="6.665" height="6.663"/>
			<rect x="437.168" y="493.001" fill="#FF4500" width="6.665" height="6.665"/>
			<rect x="437.168" y="486.333" fill="#FF4500" width="6.665" height="6.666"/>
			<rect x="437.168" y="479.668" fill="#FF4500" width="6.665" height="6.663"/>
			<rect x="437.168" y="473.001" fill="#FF4500" width="6.665" height="6.665"/>
			<rect x="437.168" y="466.333" fill="#FF4500" width="6.665" height="6.665"/>
			<rect x="437.168" y="459.668" fill="#FF4500" width="6.665" height="6.663"/>
			<rect x="437.168" y="453" fill="#FF4500" width="6.665" height="6.666"/>
			<rect x="430.5" y="553.001" fill="#FF4500" width="6.667" height="6.665"/>
			<rect x="430.5" y="546.334" fill="#FF4500" width="6.667" height="6.665"/>
			<rect x="430.5" y="539.668" fill="#FF4500" width="6.667" height="6.664"/>
			<rect x="423.833" y="553.001" fill="#FF4500" width="6.667" height="6.665"/>
			<rect x="423.833" y="546.334" fill="#FF4500" width="6.667" height="6.665"/>
			<rect x="417.167" y="553.001" fill="#FF4500" width="6.666" height="6.665"/>
			<rect x="417.167" y="546.334" fill="#FF4500" width="6.666" height="6.665"/>
			<rect x="410.5" y="559.668" fill="#FF4500" width="6.667" height="6.664"/>
			<rect x="410.5" y="553.001" fill="#FF4500" width="6.667" height="6.665"/>
			<rect x="410.5" y="546.334" fill="#FF4500" width="6.667" height="6.665"/>
			<rect x="403.833" y="559.668" fill="#FF4500" width="6.667" height="6.664"/>
			<rect x="403.833" y="553.001" fill="#FF4500" width="6.667" height="6.665"/>
			<rect x="397.167" y="559.668" fill="#FF4500" width="6.666" height="6.664"/>
			<rect x="397.167" y="553.001" fill="#FF4500" width="6.666" height="6.665"/>
			<rect x="390.5" y="559.668" fill="#FF4500" width="6.667" height="6.664"/>
			<rect x="390.5" y="553.001" fill="#FF4500" width="6.667" height="6.665"/>
		</g>
	</g>
</g>
</svg>
