<?xml version="1.0" standalone="no"?>
<!DOCTYPE svg PUBLIC "-//W3C//DTD SVG 20010904//EN"
 "http://www.w3.org/TR/2001/REC-SVG-20010904/DTD/svg10.dtd">
<svg version="1.0" xmlns="http://www.w3.org/2000/svg"
 width="5.000000pt" height="5.000000pt" viewBox="0 0 211.000000 239.000000"
 preserveAspectRatio="xMidYMid meet">
<g transform="translate(137.250000,-00.000000) scale(0.0300000,-0.0400000) rotate(180)"
fill="MediumOrchid" stroke="none">
<path d="M875 2291 c0 -204 -72 -414 -227 -665 -53 -86 -229 -326 -239 -326
-3 0 -9 39 -12 88 -5 83 -40 216 -71 271 -13 23 -14 20 -30 -52 -21 -93 -49
-163 -127 -318 -126 -252 -163 -375 -163 -544 0 -266 146 -473 481 -680 48
-30 89 -52 91 -51 2 2 -6 19 -18 37 -34 56 -60 155 -60 231 0 87 34 193 92
286 81 129 137 253 160 354 26 114 29 114 87 -2 49 -99 68 -198 54 -283 l-10
-61 29 35 c43 50 114 202 139 294 12 48 23 131 27 205 l7 124 145 -144 c267
-266 373 -462 374 -690 1 -131 -32 -226 -117 -340 l-41 -54 50 28 c157 92 337
246 430 370 95 125 155 278 175 438 38 314 -128 712 -430 1031 -30 31 -57 57
-62 57 -4 0 0 -21 8 -47 20 -65 20 -206 -1 -262 -9 -25 -28 -60 -42 -78 l-26
-34 -38 114 c-74 219 -177 394 -319 540 -84 86 -210 180 -281 210 l-35 14 0
-96z"/>
</g>
</svg>
