<?xml version="1.0" encoding="utf-8"?>
<!-- Generator: Adobe Illustrator 16.0.0, SVG Export Plug-In . SVG Version: 6.00 Build 0)  -->
<!DOCTYPE svg PUBLIC "-//W3C//DTD SVG 1.1//EN" "http://www.w3.org/Graphics/SVG/1.1/DTD/svg11.dtd">
<svg version="1.1" id="Layer_1" xmlns="http://www.w3.org/2000/svg" xmlns:xlink="http://www.w3.org/1999/xlink" x="0px" y="0px"
	 width="100px" height="100px" viewBox="1200 438.5 100 100" enable-background="new 1200 438.5 100 100" xml:space="preserve">
<g>
	<path d="M1268.582,472.484l-0.022-0.214l-0.347,0.03l0.021,0.214L1268.582,472.484z M1270.916,478.097l0.007,0.118l0.244-0.022
		c-0.008-0.073,0.022-0.191,0.074-0.339l-0.022-0.214C1271.115,477.647,1271.012,477.802,1270.916,478.097L1270.916,478.097z
		 M1261.81,485.166c-0.015-0.199-0.636-0.975-1.861-2.342c-0.022-0.25,0.398-0.627,1.263-1.122l2.467-2.149
		c0.554-0.701,0.879-1.839,0.976-3.42l-0.03-0.361c-0.096-1.093-0.886-1.972-2.385-2.645c-0.887-0.598-2.482-0.93-4.786-0.989
		c-1.905,0.163-4.395,0.842-7.459,2.046c-0.842,0.605-1.802,1.211-2.88,1.816l0.015,0.186c0.066-0.008,0.17-0.045,0.288-0.126
		c0.125-0.015,0.199,0.044,0.207,0.163l0.185-0.097l0.088-0.007l0.007,0.08c0.008,0.097-0.657,0.621-2.001,1.559l0.104,0.192
		l-0.088,0.007l-0.222-0.08c0.007,0.066-0.089,0.11-0.273,0.125l0.007,0.081l0.214,0.267c-0.066,0.007-0.17-0.022-0.31-0.074
		c-0.311,0.029-0.613,0.191-0.916,0.502l0.125-0.547c0.451-1.941,0.761-3.663,0.923-5.154l-0.022-0.097
		c-0.311-0.199-0.613-0.479-0.894-0.835c0.007-0.229,0.007-0.361,0-0.391l-0.022-0.082l-0.089,0.023
		c-0.975,1.462-2.851,3.958-5.635,7.488c-2.12,2.512-3.213,3.907-3.279,4.188c-0.864,0.894-1.278,1.434-1.233,1.617
		c-0.229,0.148-0.325,0.296-0.288,0.458c-0.066,0.015-0.111-0.007-0.125-0.073c-0.369,0.598-0.916,0.982-1.647,1.152l-0.768,0.177
		c-0.104,0.022-0.155,0.096-0.148,0.222l0.022,0.096l0.288-0.066l0.022,0.081l-0.65,0.251l-1.152,0.266l-0.605,0.037
		c-0.089,0.089,0.48-0.007,0.259,0.045l-0.753,0.178c-0.458,0.103-0.709,0.066-0.753-0.119l-0.089,0.022
		c0.015,0.081,0.022,0.141,0.008,0.192l-0.044-0.186l-0.606,0.141c-0.044-0.28-0.864-1.3-2.452-3.057
		c-0.03-0.34,0.532-0.836,1.676-1.478l3.235-2.844c0.724-0.931,1.152-2.423,1.292-4.476l-0.044-0.48
		c-0.126-1.447-1.175-2.614-3.146-3.516c-1.167-0.789-3.265-1.211-6.292-1.277c-2.511,0.215-5.791,1.107-9.823,2.666
		c-1.108,0.805-2.371,1.604-3.789,2.393l0.022,0.252c0.096-0.008,0.222-0.059,0.376-0.148c0.163-0.014,0.251,0.06,0.266,0.207
		l0.251-0.141l0.125-0.007l0.007,0.118c0.008,0.118-0.871,0.805-2.651,2.061l0.141,0.222l-0.125,0.007l-0.273-0.096
		c0.007,0.074-0.118,0.126-0.376,0.148l0.015,0.133l0.295,0.324c-0.096,0.008-0.229-0.021-0.399-0.081
		c-0.576,0.052-1.137,0.466-1.691,1.249l0.141,0.221c0.48-0.443,0.761-0.664,0.842-0.672l0.029,0.361
		c-0.081,0.008-0.207,0.06-0.376,0.148l0.303,0.458c0.572-0.618,1.22-1.162,1.928-1.618c0.347,0.089,0.532,0.199,0.539,0.318
		l0.266-0.022c1.905-1.411,3.789-2.43,5.657-3.058l0.022,0.251c-0.347,0.517-0.583,0.783-0.709,0.798
		c0.015,0.178,0.074,0.332,0.185,0.465c0.03,0.318-0.82,2.46-2.541,6.418c-3.907,9.204-7.186,16.012-9.852,20.415
		c0.007,0.088,0.059,0.207,0.155,0.354c0.657-0.154,1.071-0.316,1.248-0.473l0.141-0.014l0.022,0.25l0.244-0.021l0.251-0.141
		c0.007,0.074,0.088,0.111,0.258,0.096l0.022,0.252c0.022,0.244-0.118,0.613-0.414,1.123c-0.266,0.303-0.554,0.938-0.856,1.904
		l0.007,0.119l0.244-0.023c1.063-1.189,1.869-2.355,2.422-3.492c3.102-0.908,5.465-1.803,7.105-2.682
		c1.647-0.141,2.902-0.576,3.759-1.293l-0.015-0.133l-0.621,0.186l-0.14,0.014l-0.015-0.133c1.211-0.184,2.046-0.449,2.511-0.818
		c2.356-1.818,4.136-3.104,5.34-3.863c2.474-1.816,4.084-3.59,4.815-5.311c0.138-0.029,0.276-0.063,0.414-0.096
		c0.347-0.016,0.539-0.021,0.591-0.037c-0.015-0.066,0.015-0.104,0.081-0.117c0.554-0.061,0.288,0.035,0.643-0.045l0.931-0.215
		c-0.059,0.016-0.081,0.045-0.066,0.104l0.14-0.088c-0.029,0-0.051-0.008-0.074-0.016l0.155-0.037l-0.074,0.045
		c0.104,0.016,0.214,0.008,0.34-0.021l0.066,0.273l-4.231,6.727l-0.938,1.176l-0.458,1.535l0.088-0.021l0.458-0.193l-0.147,0.6
		l0.044,0.176l0.125,0.156c-0.059,0.014-0.081,0.051-0.066,0.117l0.022,0.098l0.192-0.045c0.281-0.244,0.399-0.465,0.354-0.664
		c0.303,0.051,0.502,0.072,0.605,0.043l0.022,0.096c-0.185,0.045-0.281,0.193-0.296,0.443l0.022,0.096l0.104-0.021
		c1.536-1.676,5.303-7.414,8.323-11.307c-0.096-0.421,1.477-1.004,4.727-1.758l0.104-0.021c0.118,0.509-0.133,1.743-0.753,3.7
		c-0.399,1.182-0.591,1.832-0.562,1.936c-0.517,1.572-0.761,2.422-0.731,2.555l-1.152,3.773c-0.746,1.936-1.314,3.967-1.713,6.109
		c0.066-0.016,0.17-0.008,0.317,0.029l0.163-0.141c0.015,0.066,0.059,0.088,0.125,0.074l-0.066-0.273l0.502-0.016
		c0.148-0.037,0.273-0.221,0.377-0.561c-0.022-0.51,0.081-0.783,0.31-0.842c0.31-1.211,0.502-1.818,0.569-1.84
		c0.288-1.203,0.502-1.891,0.643-2.061c0.436-1.566,0.753-2.371,0.96-2.422l0.044,0.191l-0.318,0.82
		c-0.554,2.459-1.115,4.402-1.684,5.826l0.163,0.709l0.103-0.021c1.374-2.955,3.353-8.803,5.931-17.547
		c0.074-0.769,0.443-1.367,1.101-1.788l-0.148-0.155l-0.022-0.081c0.295-0.066,0.502-0.185,0.62-0.347
		c-0.015-0.066-0.273-0.162-0.775-0.296l1.285-5.509c0.281-0.252,0.443-0.385,0.495-0.385l0.022,0.281
		c-0.066,0.007-0.17,0.044-0.288,0.125l0.244,0.348c0.443-0.48,0.923-0.895,1.448-1.241c0.266,0.073,0.399,0.163,0.414,0.251
		l0.192-0.015c1.462-1.071,2.895-1.839,4.306-2.304l0.015,0.184c-0.259,0.392-0.436,0.592-0.532,0.599
		c0.015,0.133,0.052,0.251,0.118,0.354c0.022,0.244-0.613,1.869-1.913,4.882c-2.969,6.98-5.458,12.142-7.481,15.496
		c0.007,0.066,0.052,0.154,0.133,0.273c0.495-0.119,0.813-0.244,0.938-0.363l0.089-0.008l0.015,0.186l0.207-0.016l0.185-0.096
		c0.007,0.053,0.074,0.074,0.199,0.066l0.015,0.199c0.015,0.178-0.088,0.459-0.317,0.842c-0.214,0.23-0.436,0.711-0.672,1.441
		l0.007,0.096l0.192-0.016c0.805-0.9,1.418-1.787,1.839-2.658c2.356-0.693,4.15-1.365,5.392-2.031
		c1.263-0.109,2.216-0.436,2.865-0.982l-0.007-0.096l-0.48,0.141l-0.104,0.008l-0.007-0.096c0.915-0.133,1.558-0.34,1.905-0.613
		c1.787-1.375,3.139-2.355,4.055-2.932C1260.643,489.072,1261.972,487.078,1261.81,485.166L1261.81,485.166z M1261.322,485.291
		l0.066,0.746c-0.089,0.186-0.185,0.281-0.273,0.288l-0.11-1.271C1261.211,485.128,1261.314,485.203,1261.322,485.291
		L1261.322,485.291z M1205.399,479.279l-0.125,0.008l-0.022-0.229l0.51-0.045l0.007,0.118
		C1205.687,479.138,1205.562,479.183,1205.399,479.279L1205.399,479.279z M1202.91,504.176c-0.296-0.133-0.562-0.186-0.791-0.162
		l-0.03-0.363c-0.015-0.139,0.067-0.236,0.244-0.271c0.162-0.016,0.258,0.104,0.273,0.34c0.429-0.525,0.665-0.791,0.709-0.799
		l0.273,0.111C1203.501,503.77,1203.272,504.146,1202.91,504.176z M1229.505,476.355c-0.125,0.014-0.377-0.377-0.739-1.152
		l-0.022-0.229c0.236-0.022,0.48,0.362,0.738,1.152L1229.505,476.355z M1229.15,473.599l-0.103,0.244l-3.612-1.506
		C1227.843,472.417,1229.084,472.839,1229.15,473.599z M1213.899,486.695l-0.509,0.044l-0.022-0.229l0.51-0.044L1213.899,486.695z
		 M1213.486,478.829l0.125-0.007l0.03,0.361c-0.118,0.008-0.273,0.185-0.465,0.524l-0.022-0.251
		C1213.383,479.183,1213.501,478.976,1213.486,478.829L1213.486,478.829z M1212.415,481.355l0.044,0.479l-0.125,0.007l-0.044-0.479
		L1212.415,481.355z M1211.854,482.255l0.244-0.021c-0.022,0.398-0.133,0.612-0.333,0.627l-0.125,0.008
		C1211.795,482.603,1211.869,482.396,1211.854,482.255z M1211.433,483.511l0.141-0.016l0.007,0.119l-0.229,0.384l-0.244,0.022
		l-0.007-0.119C1211.344,483.88,1211.455,483.755,1211.433,483.511L1211.433,483.511z M1211.019,484.641l-0.074,0.605l-0.125,0.007
		l-0.052-0.598L1211.019,484.641z M1206.876,496.422c-0.163,0.826-0.34,1.248-0.524,1.262l-0.007-0.117
		C1206.3,497.16,1206.477,496.775,1206.876,496.422L1206.876,496.422z M1206.115,498.068l0.007,0.117
		c0.015,0.162-0.059,0.26-0.222,0.266l-0.007-0.117C1205.879,498.193,1205.953,498.105,1206.115,498.068z M1205.894,501.488
		l0.384-0.037l0.015,0.133c-0.096,0.006-0.222,0.059-0.376,0.146l-0.244,0.023C1205.657,501.627,1205.738,501.531,1205.894,501.488
		L1205.894,501.488L1205.894,501.488z M1216.824,498.111c-2.157,1.064-3.427,1.789-3.804,2.164
		c-2.333,0.813-3.493,1.314-3.471,1.516c-2.075,0.818-3.441,1.424-4.099,1.801c-0.155,0.016-0.377-0.043-0.672-0.178
		c-0.037-0.42,0.155-0.76,0.562-1.033c0.362-0.029,0.709,0.021,1.041,0.162c0.384-0.199,1.057-0.42,2.009-0.656l-0.022-0.252
		l-0.768,0.066c0.096-0.133,0.834-0.48,2.223-1.041l0.384-0.037l0.007,0.119c-0.658,0.059-1.02,0.25-1.101,0.598
		c0.015,0.154,0.104,0.221,0.266,0.207c0.495-0.311,0.738-0.496,0.731-0.547c0.938-0.178,3.53-1.537,7.777-4.07l0.022,0.23
		C1217.917,497.27,1217.556,497.58,1216.824,498.111L1216.824,498.111z M1210.31,500.254c0.621-0.051,1.152-0.303,1.595-0.738
		c0.177-0.016,0.273,0.051,0.281,0.207c-0.303,0.029-0.886,0.279-1.735,0.768l-0.125,0.008L1210.31,500.254L1210.31,500.254z
		 M1220.82,492.182l-3.257,2.578c-2.422,1.588-3.722,2.385-3.907,2.4c-3.855,2.119-6.255,3.219-7.186,3.301l-0.14,0.014
		c0.118-0.436,1.832-3.943,5.155-10.545c1.462-0.127,3.767-0.805,6.906-2.046l0.768-0.066c1.588-0.141,2.777,0.17,3.56,0.908
		l0.044,0.48C1222.171,490.904,1221.521,491.895,1220.82,492.182L1220.82,492.182z M1214.454,488.599l0.524-0.044l0.007,0.118
		l-0.524,0.045L1214.454,488.599z M1221.817,487.351l0.384-0.037c0.354,0.17,0.539,0.318,0.554,0.451l0.007,0.118
		C1222.422,487.913,1222.105,487.736,1221.817,487.351z M1222.858,481.421c-0.34,0.406-1.271,1.1-2.792,2.074
		c-0.502,0.045-2.371,0.769-5.605,2.187c-0.162-0.073-0.34-0.104-0.517-0.089l-0.022-0.229c-0.037-0.465,0.17-1.049,0.627-1.758
		c0.251-1.329,0.524-2.09,0.828-2.274l2.695-6.063c-0.029-0.377,0.547-0.665,1.729-0.864l0.384-0.037l0.03,0.347
		c1.159-0.177,1.883-0.28,2.164-0.303c2.142-0.184,3.257,0.252,3.346,1.293l0.244-0.022l-0.052-0.612l0.266-0.022
		c0.628,0.347,0.968,0.769,1.012,1.263c0.03,0.34-0.155,0.761-0.546,1.264c-0.163,0.014-0.258-0.104-0.273-0.34l-0.266,0.021
		l-0.059,0.738c-1.086,1.625-1.876,2.46-2.363,2.504C1223.242,481.111,1222.969,481.414,1222.858,481.421z M1224.513,485.667
		c-0.222-0.147-0.399-0.214-0.532-0.207l-0.03-0.361l0.244-0.022l0.54,0.317C1224.756,485.564,1224.683,485.653,1224.513,485.667
		L1224.513,485.667z M1226.226,487.699c0.236,0.096,0.376,0.199,0.406,0.295l-0.118,0.029l0.007,0.008
		c-0.022,0-0.052,0.008-0.074,0.016l-0.177,0.14L1226.226,487.699z M1226.389,488.718l-0.022-0.097l0.311-0.073l0.022,0.096
		L1226.389,488.718z M1227.134,489.553c0.318-0.053,0.473-0.074,1.063-0.207l0.022,0.096l-1.123,0.26
		C1227.112,489.648,1227.127,489.598,1227.134,489.553z M1228.228,490.018c-0.473,0.045-0.369-0.014-1.123,0.156l-0.022-0.098
		l0.938-0.303l0.451-0.104l0.044,0.178C1228.316,489.893,1228.464,489.893,1228.228,490.018z M1229.225,489.781
		c-0.111,0.029-0.199-0.021-0.251-0.146l0.288-0.068c0.125-0.029,0.207,0.023,0.236,0.148L1229.225,489.781L1229.225,489.781z
		 M1231.928,486.872l-0.022-0.097l0.465-0.11l0.044,0.177L1231.928,486.872z M1234.815,504.582c0.029-0.133,0.037-0.229,0.022-0.295
		l0.104-0.023c0.125-0.029,0.199,0.016,0.229,0.133l0.022,0.098L1234.815,504.582L1234.815,504.582z M1236.839,487.632l-0.207-0.037
		c-0.333,0.133-0.613,0.229-0.842,0.281l-0.192,0.044c-0.111,0.029-0.199-0.015-0.244-0.134l1.352-0.31l0.443-0.207l0.147,0.17
		C1237.083,487.484,1236.928,487.55,1236.839,487.632L1236.839,487.632z M1237.88,487.3l-0.022-0.097
		c0.066-0.015,0.155-0.066,0.251-0.162l0.96-0.222l0.022,0.096C1238.582,487.042,1238.176,487.167,1237.88,487.3L1237.88,487.3z
		 M1238.028,485.357c-0.067,0.016-0.155,0.074-0.266,0.163c-0.015-0.066-0.148-0.066-0.399-0.007
		c-0.044-0.186,0.665-0.443,2.135-0.783l0.207-0.045l0.044,0.178C1238.715,485.166,1238.139,485.335,1238.028,485.357
		L1238.028,485.357z M1240.613,482.566c-0.104,1.174-0.517,1.839-1.249,2.009l-0.022-0.097l-0.65,0.252l-0.288,0.066
		c-0.148,0.037-0.281,0.029-0.399-0.008l-0.059-0.258c-0.022-0.097,0.916-1.396,2.821-3.893l0.222,0.037
		C1241.071,481.015,1240.945,481.642,1240.613,482.566L1240.613,482.566z M1245.185,478.652l-0.088,0.007l-0.015-0.185l0.384-0.037
		l0.007,0.096C1245.406,478.548,1245.31,478.585,1245.185,478.652L1245.185,478.652z M1243.301,497.566
		c-0.222-0.104-0.421-0.148-0.591-0.133l-0.022-0.281c-0.008-0.096,0.052-0.162,0.177-0.199c0.125-0.016,0.199,0.074,0.214,0.266
		c0.318-0.406,0.495-0.613,0.532-0.613l0.2,0.082C1243.737,497.248,1243.567,497.543,1243.301,497.566L1243.301,497.566z
		 M1263.493,476.443c-0.096,0.008-0.28-0.288-0.568-0.887l-0.015-0.184c0.185-0.016,0.376,0.273,0.568,0.863L1263.493,476.443z
		 M1263.228,474.331l-0.089,0.192l-2.732-1.145C1262.23,473.437,1263.176,473.755,1263.228,474.331z M1251.64,484.279l-0.384,0.037
		l-0.015-0.185l0.384-0.029L1251.64,484.279L1251.64,484.279z M1251.322,478.304l0.104-0.008l0.021,0.281
		c-0.096,0.008-0.214,0.141-0.354,0.398l-0.015-0.185C1251.248,478.578,1251.329,478.416,1251.322,478.304L1251.322,478.304z
		 M1250.517,480.224l0.03,0.362l-0.104,0.007l-0.03-0.361L1250.517,480.224z M1250.081,480.912l0.192-0.016
		c-0.022,0.311-0.104,0.473-0.244,0.488l-0.103,0.007C1250.037,481.185,1250.089,481.022,1250.081,480.912L1250.081,480.912z
		 M1249.771,481.857l0.089-0.008l0.007,0.096l-0.17,0.296l-0.192,0.015l-0.007-0.096
		C1249.697,482.144,1249.786,482.042,1249.771,481.857L1249.771,481.857z M1249.461,482.713l-0.066,0.473l-0.089,0.007l-0.037-0.465
		L1249.461,482.713L1249.461,482.713z M1246.307,491.672c-0.125,0.621-0.258,0.938-0.399,0.953l-0.007-0.082
		C1245.879,492.232,1246.012,491.938,1246.307,491.672z M1245.724,492.92l0.007,0.082c0.015,0.133-0.044,0.207-0.177,0.213
		l-0.007-0.096C1245.539,493.023,1245.598,492.957,1245.724,492.92z M1245.562,495.52l0.295-0.021l0.008,0.096
		c-0.066,0.008-0.17,0.045-0.288,0.111l-0.192,0.014C1245.376,495.615,1245.436,495.549,1245.562,495.52L1245.562,495.52z
		 M1253.855,492.957c-1.625,0.805-2.593,1.352-2.896,1.633c-1.772,0.619-2.651,1.004-2.637,1.158
		c-1.573,0.629-2.607,1.078-3.094,1.367c-0.118,0.008-0.288-0.037-0.51-0.141c-0.029-0.316,0.118-0.576,0.428-0.768
		c0.281-0.021,0.547,0.014,0.791,0.117c0.295-0.146,0.805-0.309,1.529-0.494l-0.015-0.186l-0.606,0.045
		c0.074-0.104,0.643-0.369,1.699-0.797l0.295-0.023l0.007,0.082c-0.502,0.045-0.783,0.191-0.842,0.457
		c0.007,0.119,0.081,0.178,0.207,0.164c0.369-0.244,0.546-0.385,0.546-0.43c0.709-0.125,2.673-1.158,5.901-3.094l0.015,0.184
		C1254.683,492.314,1254.409,492.551,1253.855,492.957L1253.855,492.957z M1248.907,494.582c0.479-0.045,0.886-0.229,1.226-0.555
		c0.125-0.014,0.2,0.045,0.207,0.164c-0.222,0.021-0.657,0.205-1.315,0.561l-0.103,0.008L1248.907,494.582L1248.907,494.582z
		 M1256.898,488.445l-2.46,1.979c-1.839,1.203-2.836,1.809-2.991,1.824c-2.924,1.609-4.741,2.445-5.458,2.504l-0.104,0.008
		c0.088-0.332,1.396-3,3.922-8.006c1.1-0.096,2.843-0.621,5.236-1.566l0.599-0.051c1.204-0.104,2.104,0.133,2.695,0.701l0.03,0.361
		C1257.917,487.47,1257.43,488.215,1256.898,488.445L1256.898,488.445z M1252.068,485.726l0.384-0.036l0.007,0.096l-0.384,0.037
		L1252.068,485.726z M1257.659,484.774l0.295-0.022c0.273,0.133,0.414,0.252,0.421,0.348l0.008,0.081
		C1258.124,485.203,1257.88,485.07,1257.659,484.774z M1258.435,480.277c-0.259,0.31-0.96,0.842-2.105,1.58
		c-0.384,0.037-1.802,0.583-4.254,1.646c-0.118-0.044-0.251-0.059-0.392-0.051l-0.015-0.186c-0.029-0.354,0.126-0.797,0.466-1.336
		c0.191-1.02,0.406-1.588,0.627-1.722l2.061-4.608c-0.021-0.273,0.414-0.494,1.301-0.664l0.295-0.022l0.022,0.28
		c0.871-0.141,1.418-0.222,1.64-0.244c1.624-0.14,2.474,0.186,2.54,0.982l0.192-0.015l-0.037-0.442l0.192-0.016
		c0.473,0.259,0.724,0.569,0.753,0.938c0.022,0.266-0.11,0.591-0.392,0.968c-0.125,0.014-0.199-0.074-0.214-0.266l-0.192,0.014
		l-0.059,0.555c-0.82,1.248-1.418,1.891-1.795,1.92C1258.737,480.041,1258.53,480.269,1258.435,480.277L1258.435,480.277z
		 M1259.299,483.349l-0.022-0.281l0.191-0.015l0.414,0.251c0.008,0.118-0.052,0.185-0.178,0.199
		C1259.527,483.393,1259.395,483.341,1259.299,483.349L1259.299,483.349z M1224.919,501.287l-0.192,0.045l-0.162,0.141
		c0.029,0.117,0.103,0.162,0.229,0.133c0.126-0.029,0.178-0.104,0.148-0.221L1224.919,501.287z M1224.188,499.834l0.022,0.096
		c0.125-0.029,0.177-0.104,0.147-0.223l-0.022-0.096C1224.217,499.641,1224.166,499.715,1224.188,499.834L1224.188,499.834z
		 M1229.387,487.462l0.222-0.052l-0.044-0.192l-0.222,0.052L1229.387,487.462L1229.387,487.462z M1296.403,493.09
		c-2.245,0.502-2.526,0.414-2.999,0.451l0.016,0.184l0.206-0.014l0.111-0.008l-0.029-0.021l0.243-0.098
		c2.223-0.242,2.481-0.154,2.459-0.406L1296.403,493.09z M1284.313,494.693l0.015,0.184h0.029l-0.015-0.184H1284.313
		L1284.313,494.693z M1282.925,489.826l-0.199-0.066c-0.163,0.436-0.244,0.693-0.236,0.768l0.007,0.082
		C1282.651,490.602,1282.792,490.336,1282.925,489.826z M1296.861,493.053l0.015,0.186l0.325,0.059l-0.015-0.186L1296.861,493.053
		L1296.861,493.053z M1281.58,494.922l-0.502-0.059l-0.089,0.191l0.008,0.096l2.991-0.25l-0.015-0.186L1281.58,494.922
		L1281.58,494.922z M1280.222,488.371l-0.008-0.096l-0.104,0.008l-0.185,0.117l0.104,0.178
		C1280.17,488.563,1280.236,488.496,1280.222,488.371L1280.222,488.371z M1298.279,491.693l0.141-0.014
		c0.081-0.008,0.118-0.074,0.11-0.191l-0.081-0.178c-0.51,0.043-0.746,0.066-1.16,0.295l-0.007-0.096l-0.613,0.059
		c-0.015-0.184-0.066-0.281-0.147-0.273l-0.317,0.029c-0.369,0.029-0.547,0.016-0.731,0.156c-0.008-0.066-0.029-0.096-0.066-0.096
		l-0.354,0.029l-0.207,0.117c-0.007-0.066-0.029-0.096-0.066-0.096l-0.125,0.111l-0.008-0.096l-0.495-0.037l-0.118,0.008
		l0.015,0.184l0.252,0.066l0.236-0.014c0.081,0.051,0.169,0.066,0.272,0.059l0.207-0.104l0.007,0.08
		c-1.159,0.289-1.151,0.236-1.949,0.371c-0.089-0.061-0.155-0.09-0.199-0.082l-0.015,0.014c-0.089-0.006-0.141-0.066-0.147-0.162
		l0.413-0.051c0.029,0,0.052,0.029,0.28,0.074c0.333-0.164,0.348-0.23,0.524-0.244l-0.015-0.186
		c-1.137,0.223-0.68,0.074-2.104,0.199l-0.066,0.008l-0.015-0.184c1.831-0.223,1.219-0.098,1.846-0.273
		c0.008,0.066,0.03,0.096,0.066,0.096c0.067-0.068,0.156-0.113,0.252-0.125l0.125-0.008c0.643-0.053,0.856,0.074,2.127-0.281
		l0.008,0.082l0.207-0.104l0.191-0.016c-0.015-0.184,0.266-0.213,0.362-0.221l-0.015-0.199c-2.23,0.449-2.814,0.324-3.435,0.502
		l-0.008-0.082c-0.583,0.104-0.605,0.059-0.753,0.066c-0.044,0.008-0.11,0.045-0.185,0.119c-0.008-0.066-0.029-0.096-0.074-0.096
		c-0.021,0-0.029,0.006-0.037,0.006l-1.891,0.311c-0.007-0.051-0.029-0.08-0.073-0.074c-0.982,0.207-0.717,0.244-2.031,0.363
		c-0.06,0.006-0.141,0.037-0.244,0.104c-0.007-0.053-0.036-0.082-0.103-0.074l-0.806,0.066l-0.539,0.133
		c-0.007-0.053-0.037-0.082-0.104-0.074c-0.303,0.082-0.568,0.133-0.782,0.148h-0.016c-0.133,0.014,0.067-0.037-0.036-0.082
		l-0.163,0.096c-0.236,0.023-0.11-0.014-0.923-0.008c-1.426,0.178-1.271,0.201-1.426,0.207l-0.531-0.037
		c0.007,0.053-0.022,0.09-0.081,0.09c-0.606-0.082-0.916-0.178-0.924-0.289c0.081-0.576,0.222-0.871,0.421-0.885l0.104-0.008
		l-0.089,0.191l0.104-0.008c0.192-0.104,0.281-0.199,0.273-0.287l-0.015-0.199l-0.192,0.014l-0.015-0.184
		c-0.015-0.141,0.008-0.266,0.06-0.369l0.436-0.701l0.015,0.184l0.207-0.014l-0.015-0.186l-0.118-0.17
		c0.155-0.133,0.273-0.208,0.369-0.214l-0.008-0.096l-0.28,0.022l-0.022-0.281c0.562-1.167,0.827-1.846,0.813-2.038l0.199,0.081
		c0.126-0.008,0.185-0.081,0.178-0.215l-0.192,0.016l-0.007-0.082c-0.014-0.135,0.012-0.27,0.073-0.391
		c0.303-0.318,0.443-0.635,0.414-0.968c0.059-0.007,0.089,0.022,0.096,0.089c0.259-0.148,0.458-0.539,0.605-1.189
		c0.458-0.827,1.108-2.481,1.957-4.955c1.625-4.373,1.559-4.838,1.788-5.872l-0.192,0.015c0.015,0.133-0.015,0.259-0.074,0.377
		c-0.133-0.052-0.236-0.081-0.31-0.074l-0.008-0.081c-0.029-0.376,0.126-0.827,0.48-1.358l0.088-0.008l0.163,0.635l0.191-0.014
		c-0.007-0.045,0.045-0.296,0.148-0.762c-0.008-0.096-0.081-0.154-0.229-0.162l-0.185,0.118c-0.015-0.133-0.007-0.479,0.015-1.034
		l-0.096,0.008c-0.162-0.162-0.244-0.296-0.251-0.406l-1.057,0.104c-0.007-0.074-0.044-0.186-0.118-0.325
		c-0.007-0.097,0.229-0.192,0.717-0.288l0.214,0.081l0.2-0.118c0.007,0.066,0.044,0.096,0.117,0.089l0.2-0.118
		c0.007,0.066,0.044,0.096,0.118,0.088l0.096-0.007l-0.015-0.214c-0.147,0.015-0.539,0.015-1.159-0.008l-0.2,0.133l-0.007-0.117
		c-4.956,0.405-7.77,0.635-8.441,0.701c-0.089,0.008-0.437,0-1.049-0.016c0.007,0.082-0.066,0.126-0.215,0.141l-0.214-0.096
		l-0.724,0.185c-0.17,0.015-0.458,0.007-0.856-0.036c-0.111,0.088-0.244,0.14-0.406,0.154c-0.089,0.008,1.056-0.059,2.119-0.133
		c-0.11,0.089-0.28,0.141-0.517,0.162c-0.163,0.016-0.303-0.007-0.421-0.073c-0.163,0.073-0.688,0.192-1.566,0.369l-0.214-0.081
		l-3.456,0.531c-0.134-0.066-0.288-0.088-0.466-0.074c-0.185,0.016-0.495,0.082-0.923,0.2l-1.669,0.694l0.125,0.207
		c0.081-0.008,0.199-0.053,0.34-0.133l0.591,0.051l-0.074,0.555c-0.546,0.243-0.863,0.605-0.952,1.063
		c-0.82,0.362-1.227,0.621-1.227,0.775l0.008,0.097l0.126-0.007l0.221-0.119l0.259,0.311l0.037,0.428
		c0.015,0.134-1.366,3.036-4.129,8.708c-2.393,5.466-3.648,8.457-3.767,8.996c-0.819,0.229-1.292,0.561-1.433,1.004
		c0.015,0.141,0.259,0.236,0.731,0.273l0.022,0.215l-0.215,0.354l0.037,0.43c0.022,0.221,0.621,0.391,1.795,0.51
		c-0.008-0.074,0.029-0.119,0.11-0.127c0.022,0.266-0.052,0.783-0.222,1.551l0.126-0.006c0.487-0.666,0.717-1.123,0.694-1.375
		l0.104-0.006c0.118-0.008,0.243,0.125,0.392,0.412c-0.148,0.061-0.665,1.234-1.552,3.531l0.126,0.207l0.126-0.008
		c1.085-2.748,1.765-4.27,2.045-4.557c1.426-0.127,3.893-0.377,7.394-0.754l0.222-0.133c0.007,0.074,0.052,0.111,0.133,0.104
		l0.229-0.021l0.222-0.133c0.008,0.072,0.052,0.109,0.133,0.102l2.651-0.229c0.702-0.059,1.034-0.273,1.005-0.635
		c-0.008-0.096,0.406-0.207,1.24-0.324c0.082-0.008,0.2,0.014,0.362,0.066c-0.008-0.066,0.413-0.133,1.256-0.207
		c0.021-0.443,0.162-0.68,0.413-0.701l-0.022-0.215c-0.236,0.021-0.502,0.082-0.812,0.184c-0.555-0.029-0.909-0.072-1.057-0.125
		c-0.147,0.082-0.259,0.125-0.34,0.133l-1.847,0.061l-0.221,0.117c-0.008-0.066-0.052-0.096-0.134-0.088l-0.103,0.006l-0.236,0.119
		c-0.008-0.066-0.2-0.119-0.584-0.17l-0.236,0.141l-0.458,0.037l-0.007-0.119c2.378-0.258,3.552-0.584,3.522-0.967
		c0.155-0.016,0.236,0.059,0.251,0.215l0.694-0.178l-0.022-0.215l-5.693,0.154c0.007,0.074-0.03,0.119-0.111,0.127l-0.694-0.059
		c-0.177,0.014-0.325,0.066-0.443,0.154l-0.258-0.096c-0.717,0.059-1.248,0.146-1.603,0.258c-0.488-0.037-1.027-0.029-1.625,0.021
		l-1.278,0.111l-0.591-0.066c-0.029-0.377,0.702-2.23,2.209-5.553c0.436-1.123,0.834-1.824,1.219-2.09
		c0.081-0.008,0.199,0.021,0.361,0.088l0.908-0.311l0.466,0.074c0.782-0.066,1.691-0.288,2.732-0.672
		c0.259-0.022,0.45-0.008,0.591,0.052l0.694-0.163l2.068-0.177c0.878-0.073,1.831-0.267,2.865-0.583l-0.022-0.215
		c-0.384,0.037-0.583-0.029-0.598-0.185c-0.022-0.288-0.303-0.406-0.843-0.362l-0.021-0.214l0.568-0.162l1.492-0.126l-0.022-0.214
		c-0.059,0.007-0.361,0-0.923-0.022l-0.022-0.229l0.576-0.052c0.155-0.015,0.222-0.089,0.207-0.236
		c-0.775,0.022-1.167-0.015-1.175-0.118c-5.406,0.266-8.116,0.317-8.131,0.147c-0.082,0.007-0.192,0.06-0.34,0.147l-0.141-0.221
		c1.433-3.043,2.274-4.58,2.519-4.602c0.007,0.118-0.052,0.311-0.185,0.568l0.007,0.096l0.229-0.021
		c0.568-1.359,1.049-2.061,1.447-2.09c1.699-0.148-0.236-0.259,3.397-0.828c0.147,0.066,0.251,0.097,0.325,0.089
		c1.425-0.288,3.412-0.591,5.96-0.901l-0.015-0.214l-1.359,0.126l-0.015-0.215c0.163-0.014,0.296-0.066,0.406-0.154l0.008,0.118
		c0.073-0.008,0.177-0.06,0.31-0.147c0.236-0.022,0.414,0,0.539,0.066c0.473-0.126,0.856-0.199,1.138-0.229l0.85-0.081
		c0.207-0.133,0.303-0.251,0.295-0.361l-0.007-0.097c-0.215,0.022-0.458,0.007-0.746-0.044c-0.008-0.119,0.052-0.199,0.192-0.236
		l1.58-0.148l0.724-0.185c0.007,0.081,0.044,0.111,0.104,0.111c0.073-0.008,0.177-0.06,0.31-0.147
		c0.037,0.007,0.082,0.007,0.119,0.014c-0.097,0.2-0.207,0.488-0.318,0.865l-0.207,0.014c-0.014-0.14-0.051-0.266-0.117-0.376
		l-0.104,0.007c-1.921,5.348-2.777,7.836-4.55,11.943c-0.325,1.049-0.598,1.632-0.835,1.758c0.008,0.117,0.082,0.177,0.207,0.162
		c0.045,0.517-0.074,1.026-0.361,1.528c-0.82,2.365-1.367,3.656-1.647,3.892l0.185,1.115c0.008,0.119-0.052,0.186-0.177,0.199
		l-0.192,0.016c-0.029-0.311-0.141-0.459-0.34-0.436l-0.104,0.008c-0.251,0.391-0.443,0.842-0.568,1.365l0.192-0.016
		c0.258-0.168,0.376-0.369,0.354-0.598l0.384-0.037l0.222,0.082c-0.178,0.281-0.259,0.502-0.244,0.672l0.104,0.178l-0.251,0.59
		l0.008,0.096c0.221-0.021,0.465,0.053,0.724,0.207c0.177-0.014,0.369-0.096,0.583-0.236c0.222-0.021,1.049-0.029,2.475-0.029
		l0.716-0.244c0.872-0.006,1.012,0.016,1.766-0.051l0.31-0.029l0.163-0.111l0.007,0.096c0.79-0.066,0.843-0.014,1.463,0.059
		l0.007,0.098l-0.436,0.037l0.015,0.184c0.133-0.014,0.251-0.051,0.348-0.133c0.11-0.008,0.177,0.051,0.185,0.186
		c-0.178,0.014-0.377,0.059-0.599,0.133l-0.191-0.066c-0.303,0.08-0.236,0.104-0.443,0.117l-0.303-0.059
		c0.007,0.051-0.022,0.088-0.074,0.088c0.008,0.119,0.074,0.178,0.185,0.17l0.311-0.029l1.617-0.141l0.613-0.133
		c0.007,0.053,0.029,0.082,0.081,0.074l0.295-0.111l0.555-0.043c0.428-0.037,0.421-0.066,1.352-0.215
		c-0.008-0.059,0.015-0.082,0.059-0.088l0.008,0.08c1.514-0.258,1.609-0.273,1.854-0.354l0.022,0.043
		c0.376-0.088,0.162-0.066,0.266-0.141c0.008,0.066,0.029,0.098,0.066,0.098l0.266-0.023l-0.015-0.199l-0.539-0.008l-0.007-0.014
		c-0.022,0.008-0.037,0.008-0.06,0.014h-0.074v0.016c-0.361,0.074-0.369,0.021-0.605,0.045l-1.352,0.072l-0.007-0.096l0.753-0.104
		l0.273-0.021l0.155-0.111l0.007,0.096c1.063-0.088,1.44,0.178,6.359-0.871c0.266-0.021,0.243-0.244,0.413-0.701
		c-0.09,0.006-0.18-0.014-0.258-0.059c-0.406,0.154-0.621,0.08-1.403,0.207c-0.066,0.006-0.118-0.053-0.141-0.17l-0.008-0.082
		l0.754,0.021c0.141-0.014,0.413-0.037,0.819-0.266C1298.338,491.664,1298.19,491.701,1298.279,491.693L1298.279,491.693z
		 M1261.913,492.277l-0.348,0.029c-0.015-0.141,0.17-0.672,0.554-1.58l0.229-0.021
		C1262.356,490.918,1262.216,491.443,1261.913,492.277z M1262.334,490.594l-0.008-0.096c-0.007-0.119,0.066-0.199,0.229-0.236
		l0.007,0.096C1262.57,490.498,1262.496,490.58,1262.334,490.594z M1266.95,494.16l0.007,0.098l-0.576,0.051l-0.007-0.096
		L1266.95,494.16L1266.95,494.16z M1266.256,494.102c0.007,0.119-0.17,0.252-0.555,0.385l-0.709-0.053l-0.229,0.023l-0.022-0.215
		L1266.256,494.102L1266.256,494.102z M1270.923,472.618l-0.347,0.029l-0.008-0.118c-0.007-0.118,0.06-0.199,0.207-0.236
		l0.126-0.008l0.236,0.096C1271.145,472.521,1271.078,472.603,1270.923,472.618z M1276.204,471.583l0.11-0.008l0.015,0.215
		l-0.317,0.029C1276.005,471.702,1276.063,471.621,1276.204,471.583z M1274.874,472.048l-0.524-0.059l-0.007-0.096
		c0.687-0.06,0.916-0.133,1.337-0.252c0.007,0.082,0.081,0.111,0.214,0.097l0.015,0.214l-0.207,0.022
		c-0.162,0.015-0.303-0.008-0.421-0.074C1275.155,471.982,1275.022,472.034,1274.874,472.048L1274.874,472.048z M1275.532,473.961
		l-0.008-0.096l0.85-0.081l0.007,0.096L1275.532,473.961z M1276.44,473.223l-0.008-0.118l0.414-0.037l0.007,0.118L1276.44,473.223z
		 M1276.536,471.775l-0.11,0.008l0.096-0.229l0.945-0.089l0.008,0.118C1277.23,471.605,1276.913,471.671,1276.536,471.775z
		 M1277.017,473.814l-0.016-0.215l0.414-0.036c0.141-0.015,0.214,0.052,0.222,0.199L1277.017,473.814L1277.017,473.814z
		 M1279.52,470.402l-0.531,0.147l-0.096,0.007c-0.252,0.023-0.576,0.016-0.961-0.021
		C1278.619,470.49,1279.276,470.439,1279.52,470.402L1279.52,470.402z M1278.951,472.765l0.008,0.096l-0.731,0.066l-0.008-0.096
		L1278.951,472.765z M1280.147,473.333c-0.007-0.088-0.147-0.147-0.436-0.177l-0.731,0.206l-0.561,0.022
		c-0.126-0.089-0.192-0.147-0.2-0.192l0.65,0.037l1.462-0.236l0.746,0.029l0.008,0.119
		C1280.717,473.179,1280.406,473.246,1280.147,473.333z M1287.674,471.391c0.088,0.008,0.147,0.008,0.17,0.008
		c0.258-0.251,0.546-0.45,0.879-0.591c-0.267,1.167-0.68,2.031-1.248,2.592l-0.414-0.251
		C1287.407,472.27,1287.614,471.687,1287.674,471.391L1287.674,471.391z M1286.403,473.57l0.104-0.007
		c-0.141,0.266-0.266,0.405-0.369,0.413l-0.022-0.28C1286.182,473.696,1286.277,473.652,1286.403,473.57z M1285.583,475.527
		c0.2-0.797,0.392-1.248,0.569-1.365l0.007,0.096c-0.104,0.738-0.266,1.13-0.479,1.159l0.037,0.466
		c-0.178,0.25-0.259,0.442-0.252,0.59l-0.104,0.008l-0.059-0.643C1285.421,475.823,1285.517,475.719,1285.583,475.527
		L1285.583,475.527z M1285.266,476.591c0.008,0.11-0.066,0.369-0.214,0.768l-0.104,0.008l-0.022-0.281
		C1285.066,476.761,1285.185,476.598,1285.266,476.591z M1279.306,493.887l-0.007-0.08l0.191-0.016l0.022,0.281
		C1279.409,494.08,1279.335,494.021,1279.306,493.887z M1287.821,494.109c-0.008-0.066-0.037-0.096-0.104-0.088l-0.479,0.043
		l-0.008-0.096h0.044l1.138-0.096l0.008,0.096C1288.087,493.984,1287.888,494.035,1287.821,494.109z M1287.253,493.873
		c0.044,0.021,0.021,0.045,0,0.059C1287.23,493.924,1287.201,493.902,1287.253,493.873z M1287.312,492.543l-0.635,0.053
		l-0.008-0.096l0.576-0.053l0.502-0.125c0.008,0.059,0.037,0.08,0.104,0.074c0.599-0.104,0.539-0.133,0.827-0.156
		c0.097-0.008,0.155,0.053,0.163,0.17L1287.312,492.543L1287.312,492.543z M1289.535,492.352c-0.354-0.037-0.377-0.066-0.628-0.045
		l-0.008-0.08l0.568-0.053l0.008,0.082C1289.417,492.264,1289.631,492.277,1289.535,492.352L1289.535,492.352z M1289.579,492.248
		l-0.008-0.082l0.311-0.029l0.008,0.082L1289.579,492.248z M1290.266,492.189l-0.007-0.082c0.052-0.008,0.125-0.043,0.222-0.117
		c0.154-0.016,0.236,0.088,0.251,0.207L1290.266,492.189L1290.266,492.189z M1291.145,492.078l-0.007-0.096l0.376-0.029l0.008,0.096
		L1291.145,492.078z M1291.669,492.033c-0.007-0.109,0.037-0.176,0.133-0.191l0.126,0.162c-0.008-0.051,0.015-0.08,0.059-0.088
		l0.097,0.178L1291.669,492.033L1291.669,492.033z M1286.093,494.441l-0.015-0.184l-0.059,0.006l0.015,0.186L1286.093,494.441z
		 M1299.069,491.082c0.06-0.037,0.089-0.074-0.052-0.098c-0.066,0.074,0.074,0.098-0.073,0.104l0.007,0.066
		c0.015-0.014,0.052-0.037,0.081-0.059l-0.081,0.066v0.008l-0.155,0.199l0.311-0.111h0.037l-0.015-0.184L1299.069,491.082z
		 M1299.608,491.502l-0.059,0.008l0.015,0.184l0.436-0.035C1299.992,491.539,1299.704,491.502,1299.608,491.502L1299.608,491.502z
		 M1298.937,491.178l0.008-0.008v-0.008C1298.944,491.162,1298.937,491.17,1298.937,491.178L1298.937,491.178z"/>
	<path fill="#F9DC3E" d="M1270.583,477.506l0.008,0.118l0.244-0.021c-0.008-0.074,0.021-0.192,0.073-0.34l-0.021-0.215
		C1270.783,477.056,1270.68,477.211,1270.583,477.506L1270.583,477.506z M1268.25,471.894l-0.022-0.215l-0.348,0.029l0.022,0.215
		L1268.25,471.894z M1261.478,484.575c-0.016-0.2-0.636-0.976-1.861-2.341c-0.022-0.252,0.398-0.629,1.263-1.123l2.467-2.149
		c0.554-0.702,0.879-1.839,0.975-3.419l-0.029-0.362c-0.096-1.093-0.887-1.972-2.386-2.644c-0.886-0.599-2.481-0.932-4.785-0.99
		c-1.906,0.162-4.395,0.842-7.46,2.046c-0.842,0.605-1.802,1.211-2.88,1.817l0.015,0.184c0.066-0.007,0.169-0.044,0.288-0.125
		c0.125-0.015,0.199,0.045,0.207,0.162l0.185-0.096l0.088-0.008l0.008,0.082c0.007,0.096-0.657,0.62-2.001,1.559l0.103,0.191
		l-0.088,0.008l-0.222-0.082c0.007,0.066-0.088,0.111-0.273,0.126l0.007,0.081l0.214,0.266c-0.066,0.008-0.169-0.021-0.31-0.073
		c-0.31,0.029-0.613,0.192-0.916,0.502l0.126-0.546c0.45-1.943,0.761-3.664,0.923-5.156l-0.022-0.096
		c-0.31-0.199-0.613-0.48-0.894-0.834c0.007-0.229,0.007-0.362,0-0.392l-0.022-0.081l-0.088,0.021
		c-0.975,1.463-2.851,3.959-5.635,7.489c-2.12,2.511-3.213,3.907-3.279,4.188c-0.864,0.894-1.278,1.433-1.233,1.618
		c-0.229,0.146-0.325,0.295-0.288,0.457c-0.067,0.016-0.111-0.008-0.126-0.074c-0.369,0.599-0.916,0.982-1.647,1.152l-0.768,0.178
		c-0.104,0.021-0.155,0.096-0.147,0.222l0.022,0.096l0.288-0.066l0.022,0.081l-0.65,0.252l-1.152,0.266l-0.605,0.037
		c-0.089,0.088,0.479-0.008,0.258,0.044l-0.753,0.177c-0.458,0.104-0.709,0.066-0.753-0.117l-0.088,0.021
		c0.015,0.081,0.022,0.141,0.007,0.191l-0.044-0.184l-0.605,0.14c-0.044-0.28-0.864-1.3-2.452-3.058
		c-0.029-0.34,0.532-0.834,1.677-1.477l3.234-2.844c0.724-0.931,1.152-2.422,1.293-4.476l-0.044-0.479
		c-0.125-1.448-1.174-2.615-3.146-3.516c-1.167-0.791-3.264-1.212-6.292-1.278c-2.511,0.214-5.79,1.108-9.823,2.667
		c-1.108,0.805-2.371,1.602-3.789,2.393l0.022,0.251c0.096-0.008,0.222-0.06,0.377-0.147c0.163-0.016,0.251,0.059,0.266,0.207
		l0.251-0.141l0.125-0.008l0.007,0.118c0.007,0.118-0.872,0.806-2.651,2.061l0.14,0.222l-0.125,0.008l-0.273-0.097
		c0.008,0.074-0.118,0.126-0.376,0.147l0.015,0.133l0.295,0.326c-0.096,0.007-0.229-0.023-0.398-0.082
		c-0.576,0.052-1.138,0.465-1.691,1.248l0.14,0.222c0.48-0.442,0.761-0.665,0.842-0.672l0.03,0.362
		c-0.081,0.007-0.207,0.059-0.377,0.147l0.303,0.458c0.572-0.619,1.219-1.162,1.927-1.617c0.347,0.088,0.532,0.199,0.539,0.316
		l0.266-0.021c1.906-1.41,3.789-2.43,5.657-3.058l0.022,0.251c-0.347,0.518-0.583,0.783-0.709,0.798
		c0.015,0.177,0.074,0.332,0.185,0.466c0.029,0.316-0.82,2.459-2.541,6.418c-3.907,9.202-7.187,16.01-9.853,20.413
		c0.007,0.09,0.059,0.207,0.155,0.355c0.657-0.156,1.071-0.318,1.248-0.473l0.14-0.016l0.022,0.252l0.244-0.023l0.251-0.139
		c0.007,0.072,0.089,0.109,0.259,0.096l0.022,0.25c0.022,0.244-0.118,0.613-0.414,1.123c-0.266,0.303-0.554,0.938-0.857,1.906
		l0.007,0.117l0.244-0.021c1.063-1.189,1.868-2.357,2.422-3.494c3.102-0.908,5.465-1.803,7.105-2.68
		c1.646-0.141,2.902-0.576,3.759-1.293l-0.015-0.133l-0.62,0.184l-0.141,0.016l-0.015-0.133c1.211-0.186,2.046-0.451,2.511-0.82
		c2.356-1.816,4.136-3.102,5.339-3.863c2.475-1.816,4.084-3.588,4.815-5.309c0.133-0.031,0.266-0.061,0.414-0.098
		c0.347-0.014,0.54-0.021,0.591-0.035c-0.015-0.066,0.015-0.104,0.082-0.119c0.554-0.059,0.288,0.037,0.643-0.045l0.931-0.213
		l0.155-0.037l-0.074,0.043c0.104,0.016,0.214,0.008,0.34-0.021l0.066,0.273l-4.232,6.729l-0.938,1.174l-0.458,1.537l0.089-0.023
		l0.458-0.191l-0.147,0.598l0.044,0.178l0.125,0.154c-0.059,0.016-0.082,0.053-0.067,0.119l0.022,0.096l0.192-0.045
		c0.281-0.242,0.399-0.465,0.354-0.664c0.303,0.051,0.502,0.074,0.606,0.045l0.022,0.096c-0.185,0.045-0.281,0.191-0.295,0.443
		l0.022,0.096l0.104-0.021c1.536-1.678,5.303-7.416,8.324-11.308c-0.096-0.421,1.477-1.005,4.727-1.758l0.104-0.022
		c0.118,0.51-0.133,1.743-0.753,3.702c-0.399,1.18-0.591,1.83-0.562,1.934c-0.517,1.574-0.761,2.422-0.731,2.555l-1.152,3.775
		c-0.746,1.936-1.314,3.965-1.713,6.107c0.066-0.016,0.17-0.008,0.318,0.029l0.162-0.141c0.015,0.066,0.059,0.09,0.126,0.074
		l-0.067-0.273l0.502-0.014c0.147-0.037,0.273-0.223,0.376-0.563c-0.022-0.51,0.082-0.783,0.31-0.842
		c0.311-1.211,0.502-1.816,0.569-1.838c0.288-1.205,0.502-1.891,0.643-2.061c0.436-1.566,0.753-2.371,0.96-2.424l0.044,0.193
		l-0.317,0.818c-0.554,2.461-1.115,4.402-1.684,5.828l0.163,0.709l0.104-0.021c1.374-2.955,3.353-8.805,5.931-17.549
		c0.074-0.768,0.443-1.366,1.1-1.787l-0.147-0.154l-0.022-0.082c0.295-0.066,0.502-0.185,0.621-0.347
		c-0.015-0.067-0.273-0.163-0.775-0.296l1.285-5.51c0.28-0.251,0.443-0.384,0.495-0.384l0.022,0.28
		c-0.066,0.008-0.17,0.045-0.288,0.126l0.244,0.347c0.443-0.479,0.923-0.893,1.447-1.24c0.266,0.074,0.399,0.162,0.414,0.251
		l0.192-0.015c1.462-1.07,2.896-1.839,4.306-2.305l0.015,0.186c-0.258,0.391-0.436,0.59-0.531,0.598
		c0.015,0.133,0.052,0.251,0.118,0.354c0.022,0.243-0.613,1.868-1.913,4.882c-2.969,6.979-5.458,12.141-7.481,15.495
		c0.007,0.066,0.052,0.156,0.133,0.273c0.495-0.117,0.813-0.244,0.938-0.361l0.088-0.008l0.015,0.184l0.207-0.014l0.185-0.096
		c0.007,0.051,0.074,0.074,0.199,0.066l0.015,0.199c0.015,0.178-0.089,0.457-0.318,0.842c-0.214,0.229-0.436,0.709-0.672,1.439
		l0.007,0.098l0.192-0.016c0.805-0.9,1.418-1.787,1.839-2.658c2.356-0.695,4.151-1.367,5.392-2.031
		c1.263-0.111,2.215-0.436,2.866-0.982l-0.008-0.096l-0.479,0.141l-0.104,0.006l-0.008-0.096c0.916-0.133,1.559-0.34,1.905-0.613
		c1.788-1.373,3.14-2.355,4.055-2.932C1260.311,488.482,1261.64,486.488,1261.478,484.575L1261.478,484.575z M1260.989,484.701
		l0.066,0.745c-0.088,0.185-0.185,0.28-0.272,0.288l-0.111-1.27C1260.879,484.538,1260.982,484.611,1260.989,484.701
		L1260.989,484.701z M1205.066,478.689l-0.125,0.007l-0.022-0.229l0.509-0.044l0.007,0.118
		C1205.354,478.548,1205.229,478.592,1205.066,478.689z M1202.578,503.584c-0.295-0.133-0.562-0.184-0.791-0.162l-0.029-0.361
		c-0.015-0.141,0.066-0.236,0.244-0.273c0.163-0.014,0.258,0.104,0.273,0.34c0.428-0.523,0.665-0.791,0.709-0.797l0.273,0.109
		C1203.168,503.178,1202.939,503.555,1202.578,503.584z M1229.173,475.763c-0.125,0.016-0.377-0.376-0.738-1.152l-0.022-0.229
		c0.236-0.021,0.48,0.362,0.738,1.152L1229.173,475.763z M1228.818,473.009l-0.104,0.243l-3.611-1.507
		C1227.511,471.828,1228.752,472.248,1228.818,473.009z M1213.567,486.103l-0.51,0.045l-0.022-0.229l0.509-0.044L1213.567,486.103z
		 M1213.153,478.238l0.126-0.008l0.029,0.362c-0.118,0.007-0.273,0.185-0.465,0.524l-0.022-0.251
		C1213.05,478.592,1213.168,478.385,1213.153,478.238L1213.153,478.238z M1212.083,480.763l0.044,0.48l-0.125,0.008l-0.044-0.48
		L1212.083,480.763z M1211.521,481.665l0.244-0.022c-0.022,0.399-0.133,0.613-0.333,0.628l-0.125,0.008
		C1211.462,482.011,1211.536,481.805,1211.521,481.665z M1211.101,482.92l0.14-0.015l0.007,0.117l-0.229,0.385l-0.244,0.021
		l-0.007-0.117C1211.012,483.29,1211.123,483.164,1211.101,482.92L1211.101,482.92z M1210.687,484.05l-0.074,0.605l-0.126,0.008
		l-0.052-0.599L1210.687,484.05z M1206.543,495.83c-0.163,0.828-0.339,1.248-0.524,1.264l-0.007-0.119
		C1205.968,496.568,1206.145,496.186,1206.543,495.83L1206.543,495.83z M1205.783,497.477l0.007,0.119
		c0.015,0.162-0.059,0.258-0.221,0.266l-0.007-0.119C1205.546,497.604,1205.62,497.514,1205.783,497.477z M1205.562,500.896
		l0.384-0.037l0.015,0.133c-0.096,0.008-0.222,0.059-0.376,0.148l-0.244,0.021C1205.325,501.037,1205.406,500.941,1205.562,500.896
		L1205.562,500.896z M1216.492,497.521c-2.156,1.063-3.427,1.787-3.803,2.164c-2.334,0.813-3.494,1.314-3.471,1.514
		c-2.076,0.82-3.442,1.426-4.099,1.803c-0.155,0.014-0.376-0.045-0.672-0.178c-0.037-0.422,0.155-0.762,0.561-1.033
		c0.362-0.031,0.709,0.021,1.042,0.162c0.384-0.199,1.056-0.422,2.009-0.658l-0.022-0.25l-0.768,0.066
		c0.096-0.133,0.834-0.48,2.223-1.041l0.384-0.037l0.007,0.117c-0.657,0.059-1.019,0.252-1.101,0.598
		c0.015,0.156,0.104,0.223,0.266,0.207c0.495-0.311,0.738-0.494,0.731-0.547c0.938-0.176,3.53-1.535,7.777-4.068l0.022,0.229
		C1217.585,496.68,1217.223,496.99,1216.492,497.521z M1209.978,499.664c0.62-0.053,1.152-0.303,1.595-0.74
		c0.177-0.014,0.273,0.053,0.28,0.207c-0.303,0.029-0.886,0.281-1.735,0.77l-0.125,0.006L1209.978,499.664L1209.978,499.664z
		 M1220.487,491.59l-3.257,2.586c-2.422,1.588-3.722,2.385-3.915,2.4c-3.855,2.119-6.255,3.221-7.186,3.301l-0.14,0.016
		c0.118-0.436,1.832-3.943,5.155-10.547c1.462-0.125,3.767-0.805,6.906-2.045l0.768-0.066c1.588-0.141,2.777,0.17,3.56,0.908
		l0.044,0.479C1221.839,490.313,1221.189,491.303,1220.487,491.59L1220.487,491.59z M1214.121,488.009l0.524-0.045l0.007,0.118
		l-0.524,0.044L1214.121,488.009z M1221.484,486.761l0.384-0.037c0.354,0.17,0.539,0.317,0.554,0.45l0.007,0.118
		C1222.09,487.322,1221.772,487.144,1221.484,486.761z M1222.526,480.83c-0.34,0.406-1.271,1.102-2.792,2.076
		c-0.502,0.044-2.371,0.768-5.606,2.186c-0.162-0.074-0.34-0.104-0.517-0.088l-0.022-0.229c-0.037-0.466,0.17-1.049,0.628-1.758
		c0.251-1.329,0.524-2.09,0.827-2.274l2.696-6.063c-0.03-0.377,0.546-0.665,1.728-0.864l0.384-0.037l0.029,0.348
		c1.16-0.178,1.883-0.281,2.164-0.303c2.142-0.186,3.257,0.25,3.346,1.292l0.244-0.022l-0.052-0.613l0.266-0.021
		c0.627,0.347,0.967,0.768,1.012,1.263c0.029,0.34-0.155,0.761-0.547,1.263c-0.162,0.016-0.258-0.104-0.273-0.34l-0.266,0.022
		l-0.059,0.739c-1.085,1.624-1.876,2.459-2.363,2.503C1222.91,480.52,1222.637,480.823,1222.526,480.83L1222.526,480.83z
		 M1224.18,485.077c-0.222-0.147-0.399-0.214-0.532-0.206l-0.029-0.362l0.244-0.022l0.539,0.318
		C1224.424,484.973,1224.35,485.062,1224.18,485.077L1224.18,485.077z M1225.894,487.108c0.236,0.096,0.377,0.199,0.406,0.296
		l-0.118,0.029l0.007,0.007c-0.022,0-0.052,0.008-0.074,0.015l-0.177,0.141L1225.894,487.108L1225.894,487.108z M1226.056,488.126
		l-0.022-0.096l0.31-0.074l0.022,0.097L1226.056,488.126L1226.056,488.126z M1226.802,488.961c0.317-0.052,0.473-0.073,1.063-0.206
		l0.022,0.096l-1.123,0.258C1226.78,489.059,1226.795,489.006,1226.802,488.961L1226.802,488.961z M1227.895,489.428
		c-0.473,0.043-0.369-0.016-1.123,0.154l-0.022-0.096l0.945-0.303l0.451-0.104l0.044,0.178
		C1227.984,489.301,1228.131,489.301,1227.895,489.428z M1228.892,489.191c-0.111,0.029-0.199-0.023-0.251-0.148l0.288-0.067
		c0.125-0.029,0.207,0.022,0.236,0.149L1228.892,489.191L1228.892,489.191z M1231.595,486.281l-0.022-0.096l0.465-0.111l0.044,0.178
		L1231.595,486.281z M1234.483,503.99c0.03-0.133,0.037-0.229,0.022-0.295l0.104-0.021c0.126-0.029,0.2,0.014,0.229,0.133
		l0.022,0.096L1234.483,503.99L1234.483,503.99z M1236.507,487.042l-0.207-0.037c-0.332,0.133-0.613,0.229-0.842,0.28l-0.192,0.045
		c-0.11,0.029-0.199-0.016-0.244-0.133l1.352-0.311l0.443-0.207l0.148,0.17C1236.75,486.894,1236.595,486.96,1236.507,487.042
		L1236.507,487.042z M1237.548,486.708l-0.022-0.096c0.066-0.015,0.155-0.066,0.251-0.162l0.96-0.222l0.022,0.096
		C1238.25,486.451,1237.843,486.576,1237.548,486.708z M1237.696,484.767c-0.066,0.014-0.155,0.073-0.266,0.162
		c-0.015-0.066-0.147-0.066-0.398-0.008c-0.044-0.185,0.665-0.443,2.134-0.783l0.207-0.044l0.044,0.178
		C1238.383,484.575,1237.807,484.745,1237.696,484.767L1237.696,484.767z M1240.281,481.975c-0.104,1.174-0.517,1.839-1.249,2.009
		l-0.022-0.096l-0.65,0.25l-0.288,0.067c-0.147,0.036-0.28,0.029-0.398-0.008l-0.06-0.259c-0.022-0.096,0.916-1.396,2.821-3.892
		l0.222,0.036C1240.738,480.423,1240.613,481.052,1240.281,481.975L1240.281,481.975z M1244.853,478.06l-0.089,0.008l-0.015-0.185
		l0.384-0.037l0.007,0.097C1245.074,477.957,1244.978,477.994,1244.853,478.06z M1242.969,496.975
		c-0.221-0.104-0.421-0.148-0.591-0.133l-0.022-0.281c-0.007-0.096,0.052-0.162,0.177-0.199c0.125-0.014,0.199,0.074,0.214,0.266
		c0.317-0.406,0.495-0.611,0.532-0.611l0.199,0.08C1243.405,496.658,1243.235,496.953,1242.969,496.975z M1263.161,475.852
		c-0.096,0.008-0.281-0.288-0.568-0.886l-0.016-0.186c0.185-0.014,0.377,0.273,0.569,0.865L1263.161,475.852z M1262.896,473.74
		l-0.089,0.192l-2.732-1.146C1261.898,472.846,1262.844,473.164,1262.896,473.74z M1251.308,483.689l-0.385,0.036l-0.015-0.185
		l0.384-0.037L1251.308,483.689z M1250.989,477.713l0.104-0.007l0.022,0.28c-0.096,0.007-0.214,0.14-0.354,0.398l-0.015-0.185
		C1250.916,477.987,1250.997,477.824,1250.989,477.713L1250.989,477.713z M1250.185,479.634l0.03,0.361l-0.104,0.008l-0.03-0.362
		L1250.185,479.634z M1249.749,480.32l0.192-0.014c-0.022,0.31-0.104,0.473-0.244,0.486l-0.104,0.008
		C1249.705,480.593,1249.756,480.431,1249.749,480.32L1249.749,480.32z M1249.438,481.266l0.089-0.008l0.007,0.097l-0.17,0.295
		l-0.192,0.015l-0.007-0.096C1249.365,481.554,1249.454,481.451,1249.438,481.266z M1249.128,482.123l-0.066,0.473l-0.088,0.008
		l-0.037-0.466L1249.128,482.123L1249.128,482.123z M1245.975,491.082c-0.125,0.619-0.258,0.938-0.398,0.951l-0.007-0.08
		C1245.546,491.643,1245.68,491.348,1245.975,491.082L1245.975,491.082z M1245.392,492.33l0.007,0.08
		c0.015,0.133-0.044,0.207-0.177,0.215l-0.007-0.096C1245.207,492.434,1245.266,492.367,1245.392,492.33L1245.392,492.33z
		 M1245.229,494.93l0.295-0.023l0.007,0.096c-0.066,0.008-0.17,0.045-0.288,0.111l-0.192,0.016
		C1245.044,495.025,1245.104,494.959,1245.229,494.93L1245.229,494.93z M1253.522,492.367c-1.624,0.805-2.592,1.352-2.895,1.631
		c-1.772,0.621-2.651,1.004-2.637,1.16c-1.573,0.627-2.607,1.078-3.095,1.365c-0.118,0.008-0.288-0.035-0.51-0.139
		c-0.029-0.318,0.118-0.576,0.429-0.77c0.281-0.021,0.546,0.016,0.79,0.119c0.295-0.148,0.805-0.311,1.529-0.496l-0.015-0.184
		l-0.598,0.051c0.074-0.104,0.643-0.369,1.699-0.797l0.295-0.021l0.007,0.08c-0.502,0.045-0.783,0.193-0.842,0.459
		c0.008,0.117,0.082,0.176,0.207,0.162c0.369-0.244,0.546-0.385,0.546-0.428c0.709-0.127,2.673-1.16,5.901-3.096l0.015,0.186
		C1254.35,491.725,1254.077,491.961,1253.522,492.367L1253.522,492.367z M1248.575,493.99c0.48-0.043,0.886-0.229,1.226-0.553
		c0.125-0.008,0.199,0.045,0.207,0.162c-0.222,0.021-0.657,0.207-1.314,0.561l-0.104,0.008L1248.575,493.99L1248.575,493.99z
		 M1256.565,487.854l-2.459,1.98c-1.839,1.203-2.836,1.809-2.991,1.824c-2.925,1.609-4.742,2.443-5.458,2.502l-0.104,0.008
		c0.089-0.332,1.396-2.998,3.922-8.005c1.101-0.097,2.844-0.62,5.236-1.565l0.599-0.053c1.203-0.103,2.104,0.134,2.695,0.702
		l0.029,0.362C1257.585,486.878,1257.098,487.625,1256.565,487.854L1256.565,487.854z M1251.735,485.136l0.385-0.037l0.007,0.096
		l-0.384,0.037L1251.735,485.136z M1257.326,484.183l0.296-0.021c0.273,0.133,0.413,0.25,0.421,0.347l0.007,0.081
		C1257.792,484.611,1257.548,484.478,1257.326,484.183z M1258.102,479.685c-0.258,0.311-0.96,0.842-2.104,1.581
		c-0.384,0.036-1.802,0.583-4.254,1.646c-0.118-0.044-0.251-0.059-0.392-0.052l-0.015-0.185c-0.029-0.354,0.125-0.798,0.465-1.337
		c0.192-1.02,0.406-1.588,0.628-1.721l2.061-4.608c-0.022-0.273,0.414-0.495,1.3-0.665l0.296-0.021l0.021,0.28
		c0.872-0.14,1.418-0.222,1.64-0.243c1.625-0.141,2.475,0.184,2.541,0.982l0.192-0.016l-0.037-0.443l0.191-0.014
		c0.473,0.258,0.725,0.568,0.754,0.938c0.021,0.266-0.111,0.591-0.392,0.967c-0.126,0.016-0.199-0.073-0.214-0.266l-0.192,0.016
		l-0.059,0.553c-0.82,1.249-1.419,1.891-1.795,1.921C1258.404,479.449,1258.198,479.678,1258.102,479.685L1258.102,479.685z
		 M1258.966,482.757l-0.021-0.28l0.191-0.015l0.414,0.251c0.007,0.118-0.052,0.185-0.178,0.199
		C1259.195,482.802,1259.063,482.75,1258.966,482.757L1258.966,482.757z M1224.586,500.697l-0.192,0.045l-0.163,0.139
		c0.03,0.119,0.104,0.164,0.229,0.135c0.125-0.031,0.177-0.104,0.147-0.223L1224.586,500.697L1224.586,500.697z M1223.855,499.242
		l0.022,0.096c0.125-0.029,0.177-0.104,0.148-0.221l-0.022-0.096C1223.885,499.051,1223.833,499.125,1223.855,499.242
		L1223.855,499.242z M1229.084,489.42l0.141-0.09c-0.03,0-0.052-0.006-0.074-0.014
		C1229.099,489.33,1229.077,489.367,1229.084,489.42z M1229.055,486.872l0.222-0.052l-0.044-0.192l-0.222,0.052L1229.055,486.872z
		 M1281.248,494.33l-0.502-0.059l-0.089,0.191l0.008,0.098l2.991-0.252l-0.016-0.184L1281.248,494.33z M1283.98,494.102l0.015,0.186
		h0.03l-0.015-0.186H1283.98z M1296.528,492.463l0.016,0.184l0.324,0.059l-0.015-0.184L1296.528,492.463z M1296.071,492.5
		c-2.245,0.502-2.526,0.412-2.999,0.449l0.015,0.186l0.207-0.016l0.11-0.008l-0.029-0.021l0.244-0.096
		c2.223-0.244,2.481-0.154,2.459-0.406L1296.071,492.5z M1282.593,489.234l-0.2-0.066c-0.162,0.436-0.243,0.695-0.236,0.77
		l0.008,0.08C1282.319,490.01,1282.459,489.744,1282.593,489.234z M1279.89,487.78l-0.008-0.096l-0.104,0.007l-0.185,0.119
		l0.104,0.177C1279.838,487.972,1279.904,487.906,1279.89,487.78L1279.89,487.78z M1285.761,493.852l-0.015-0.186l-0.06,0.008
		l0.015,0.184L1285.761,493.852z M1297.947,491.104l0.14-0.016c0.081-0.006,0.118-0.072,0.111-0.191l-0.082-0.178
		c-0.509,0.045-0.745,0.066-1.159,0.297l-0.007-0.098l-0.613,0.061c-0.015-0.186-0.066-0.281-0.147-0.273l-0.318,0.029
		c-0.369,0.029-0.546,0.014-0.73,0.154c-0.008-0.066-0.03-0.096-0.066-0.096l-0.354,0.029l-0.207,0.119
		c-0.008-0.066-0.029-0.096-0.066-0.096l-0.126,0.109l-0.007-0.096l-0.495-0.037l-0.118,0.008l0.015,0.186l0.251,0.066l0.236-0.016
		c0.081,0.051,0.17,0.066,0.273,0.059l0.207-0.104l0.007,0.082c-1.159,0.287-1.151,0.236-1.949,0.369
		c-0.089-0.059-0.155-0.088-0.199-0.082l-0.016,0.016c-0.088-0.008-0.14-0.066-0.147-0.162l0.414-0.053
		c0.029,0,0.052,0.029,0.28,0.074c0.332-0.162,0.348-0.229,0.524-0.244l-0.015-0.184c-1.138,0.221-0.68,0.074-2.104,0.199
		l-0.067,0.008l-0.015-0.186c1.832-0.221,1.219-0.096,1.847-0.273c0.008,0.066,0.029,0.096,0.066,0.096
		c0.067-0.068,0.156-0.111,0.251-0.125l0.126-0.008c0.643-0.051,0.856,0.074,2.127-0.279l0.007,0.08l0.207-0.104l0.192-0.014
		c-0.015-0.186,0.266-0.215,0.361-0.223l-0.015-0.199c-2.23,0.451-2.813,0.326-3.434,0.502l-0.008-0.08
		c-0.583,0.104-0.605,0.059-0.753,0.066c-0.045,0.008-0.111,0.045-0.185,0.117c-0.008-0.066-0.03-0.096-0.074-0.096
		c-0.022,0-0.029,0.008-0.037,0.008l-1.891,0.311c-0.007-0.053-0.029-0.082-0.074-0.074c-0.981,0.207-0.716,0.244-2.03,0.361
		c-0.06,0.008-0.141,0.037-0.244,0.104c-0.007-0.051-0.037-0.08-0.104-0.074l-0.805,0.066l-0.539,0.133
		c-0.008-0.051-0.037-0.08-0.104-0.072c-0.303,0.08-0.568,0.133-0.783,0.146h-0.015c-0.133,0.016,0.066-0.037-0.037-0.08
		l-0.162,0.096c-0.236,0.021-0.11-0.016-0.923-0.008c-1.426,0.178-1.271,0.199-1.426,0.207l-0.532-0.037
		c0.008,0.051-0.021,0.088-0.081,0.088c-0.605-0.08-0.915-0.176-0.923-0.287c0.081-0.576,0.222-0.871,0.421-0.887l0.104-0.008
		l-0.089,0.193l0.104-0.008c0.192-0.104,0.28-0.199,0.273-0.289l-0.015-0.199l-0.192,0.016l-0.015-0.186
		c-0.015-0.139,0.008-0.266,0.059-0.369l0.436-0.702l0.016,0.186l0.207-0.016l-0.016-0.184l-0.118-0.17
		c0.155-0.134,0.273-0.207,0.37-0.215l-0.008-0.096l-0.281,0.021l-0.021-0.28c0.562-1.167,0.827-1.847,0.813-2.038l0.199,0.081
		c0.125-0.007,0.185-0.081,0.178-0.214l-0.192,0.015l-0.008-0.081c-0.014-0.135,0.013-0.271,0.074-0.392
		c0.303-0.317,0.443-0.636,0.413-0.968c0.06-0.008,0.089,0.022,0.097,0.089c0.259-0.147,0.458-0.54,0.605-1.189
		c0.458-0.827,1.107-2.481,1.957-4.956c1.625-4.371,1.559-4.837,1.787-5.871l-0.192,0.015c0.016,0.134-0.014,0.259-0.073,0.377
		c-0.133-0.052-0.236-0.081-0.311-0.073l-0.007-0.082c-0.029-0.377,0.125-0.827,0.479-1.359l0.089-0.007l0.162,0.636l0.192-0.016
		c-0.007-0.044,0.044-0.295,0.147-0.76c-0.007-0.097-0.081-0.156-0.229-0.163l-0.185,0.118c-0.015-0.133-0.008-0.48,0.015-1.034
		l-0.096,0.008c-0.163-0.163-0.244-0.296-0.252-0.406l-1.056,0.103c-0.007-0.073-0.044-0.184-0.118-0.324
		c-0.008-0.096,0.229-0.192,0.717-0.288l0.214,0.081l0.199-0.118c0.008,0.066,0.044,0.097,0.118,0.089l0.199-0.118
		c0.008,0.066,0.045,0.096,0.118,0.089l0.097-0.008l-0.016-0.214c-0.147,0.015-0.539,0.015-1.159-0.008l-0.199,0.134l-0.008-0.119
		c-4.955,0.406-7.77,0.636-8.441,0.702c-0.089,0.007-0.436,0-1.049-0.015c0.008,0.081-0.066,0.125-0.214,0.141l-0.214-0.097
		l-0.724,0.185c-0.17,0.015-0.458,0.008-0.857-0.037c-0.11,0.089-0.243,0.141-0.406,0.155c-0.088,0.007,1.057-0.06,2.12-0.133
		c-0.111,0.089-0.281,0.14-0.518,0.163c-0.162,0.014-0.303-0.008-0.421-0.074c-0.162,0.074-0.687,0.191-1.565,0.369l-0.214-0.082
		l-3.457,0.532c-0.133-0.066-0.288-0.089-0.465-0.073c-0.185,0.014-0.495,0.081-0.923,0.199l-1.67,0.693l0.126,0.207
		c0.081-0.007,0.199-0.051,0.34-0.133l0.591,0.052l-0.074,0.554c-0.546,0.244-0.864,0.605-0.952,1.064
		c-0.82,0.361-1.227,0.62-1.227,0.775l0.008,0.096l0.125-0.008l0.222-0.117l0.259,0.31l0.037,0.429
		c0.015,0.133-1.366,3.035-4.129,8.707c-2.393,5.465-3.648,8.458-3.767,8.997c-0.819,0.229-1.292,0.561-1.433,1.004
		c0.015,0.141,0.259,0.236,0.731,0.273l0.021,0.213l-0.214,0.355l0.037,0.428c0.021,0.223,0.62,0.393,1.795,0.51
		c-0.008-0.074,0.029-0.117,0.11-0.125c0.022,0.266-0.052,0.783-0.222,1.551l0.125-0.008c0.488-0.664,0.717-1.123,0.695-1.373
		l0.103-0.008c0.118-0.008,0.244,0.125,0.392,0.414c-0.147,0.059-0.664,1.232-1.551,3.529l0.125,0.207l0.126-0.008
		c1.086-2.746,1.766-4.268,2.046-4.557c1.426-0.125,3.893-0.377,7.393-0.752l0.222-0.135c0.008,0.074,0.052,0.111,0.133,0.104
		l0.229-0.021l0.222-0.133c0.007,0.074,0.052,0.111,0.133,0.104l2.651-0.229c0.701-0.061,1.034-0.273,1.004-0.635
		c-0.007-0.098,0.406-0.207,1.241-0.326c0.081-0.008,0.199,0.016,0.362,0.066c-0.008-0.066,0.413-0.133,1.255-0.207
		c0.022-0.443,0.163-0.68,0.414-0.701l-0.022-0.215c-0.236,0.023-0.502,0.082-0.813,0.186c-0.554-0.029-0.908-0.074-1.056-0.125
		c-0.148,0.08-0.259,0.125-0.34,0.133l-1.847,0.059l-0.222,0.117c-0.007-0.066-0.052-0.096-0.133-0.088l-0.104,0.008l-0.236,0.117
		c-0.007-0.066-0.199-0.117-0.583-0.17l-0.236,0.141l-0.458,0.037l-0.008-0.117c2.378-0.26,3.553-0.584,3.523-0.969
		c0.155-0.014,0.236,0.061,0.251,0.215l0.694-0.178l-0.022-0.213l-5.694,0.154c0.008,0.074-0.029,0.117-0.11,0.125l-0.694-0.059
		c-0.178,0.016-0.325,0.066-0.443,0.154l-0.259-0.096c-0.716,0.061-1.248,0.148-1.603,0.26c-0.487-0.037-1.026-0.031-1.625,0.021
		l-1.277,0.111l-0.591-0.066c-0.029-0.377,0.701-2.23,2.208-5.555c0.437-1.122,0.835-1.824,1.219-2.09
		c0.081-0.007,0.199,0.022,0.362,0.089l0.908-0.31l0.465,0.073c0.783-0.066,1.691-0.288,2.733-0.672
		c0.258-0.022,0.45-0.007,0.591,0.052l0.693-0.162l2.068-0.178c0.879-0.074,1.832-0.266,2.865-0.584l-0.021-0.214
		c-0.385,0.037-0.584-0.029-0.599-0.185c-0.022-0.288-0.303-0.406-0.842-0.361l-0.022-0.215l0.569-0.162l1.491-0.126l-0.021-0.214
		c-0.06,0.008-0.362,0-0.924-0.022l-0.021-0.229l0.576-0.052c0.154-0.015,0.221-0.089,0.206-0.236
		c-0.775,0.021-1.167-0.016-1.174-0.118c-5.406,0.266-8.117,0.317-8.132,0.147c-0.081,0.008-0.191,0.059-0.34,0.148l-0.14-0.223
		c1.433-3.043,2.274-4.578,2.519-4.601c0.007,0.118-0.053,0.31-0.178,0.568l0.008,0.097l0.229-0.022
		c0.568-1.359,1.049-2.061,1.447-2.091c1.699-0.147-0.236-0.258,3.397-0.826c0.147,0.066,0.251,0.096,0.325,0.088
		c1.426-0.288,3.412-0.591,5.96-0.9l-0.015-0.215l-1.359,0.126l-0.015-0.214c0.163-0.016,0.296-0.066,0.406-0.156l0.008,0.119
		c0.073-0.008,0.177-0.06,0.31-0.148c0.236-0.021,0.414,0,0.539,0.066c0.473-0.125,0.857-0.199,1.138-0.229l0.85-0.081
		c0.207-0.133,0.303-0.251,0.296-0.362l-0.008-0.096c-0.215,0.021-0.458,0.008-0.746-0.045c-0.008-0.117,0.052-0.199,0.192-0.236
		l1.58-0.146l0.724-0.186c0.008,0.082,0.045,0.111,0.104,0.111c0.074-0.008,0.178-0.06,0.311-0.148
		c0.037,0.008,0.081,0.008,0.118,0.016c-0.097,0.199-0.207,0.487-0.317,0.863l-0.207,0.016c-0.015-0.141-0.052-0.267-0.118-0.377
		l-0.104,0.008c-1.92,5.347-2.777,7.836-4.55,11.941c-0.324,1.049-0.598,1.633-0.834,1.758c0.007,0.119,0.081,0.178,0.207,0.163
		c0.044,0.517-0.074,1.026-0.362,1.528c-0.82,2.364-1.366,3.657-1.647,3.893l0.186,1.115c0.007,0.117-0.053,0.184-0.178,0.199
		l-0.192,0.014c-0.029-0.311-0.14-0.457-0.339-0.436l-0.104,0.008c-0.252,0.391-0.443,0.842-0.569,1.367l0.192-0.016
		c0.258-0.17,0.377-0.369,0.354-0.598l0.384-0.037l0.222,0.08c-0.177,0.281-0.259,0.504-0.243,0.672l0.103,0.178l-0.251,0.592
		l0.008,0.096c0.222-0.021,0.465,0.051,0.724,0.207c0.177-0.016,0.369-0.096,0.583-0.236c0.222-0.023,1.049-0.029,2.475-0.029
		l0.717-0.244c0.871-0.008,1.012,0.014,1.765-0.053l0.31-0.029l0.163-0.109l0.007,0.096c0.791-0.066,0.843-0.016,1.463,0.059
		l0.008,0.096l-0.437,0.037l0.015,0.186c0.133-0.016,0.252-0.053,0.348-0.135c0.11-0.006,0.177,0.053,0.185,0.186
		c-0.177,0.016-0.377,0.059-0.599,0.133l-0.191-0.066c-0.303,0.082-0.236,0.104-0.443,0.119l-0.303-0.061
		c0.008,0.053-0.022,0.09-0.074,0.09c0.008,0.117,0.074,0.176,0.185,0.17l0.311-0.029l1.617-0.141l0.613-0.133
		c0.007,0.051,0.029,0.08,0.081,0.072l0.296-0.109l0.554-0.045c0.428-0.037,0.421-0.066,1.352-0.215
		c-0.008-0.059,0.015-0.08,0.059-0.088l0.008,0.082c1.514-0.26,1.609-0.273,1.854-0.355l0.022,0.045
		c0.376-0.09,0.162-0.066,0.266-0.141c0.008,0.066,0.029,0.096,0.066,0.096l0.267-0.021l-0.016-0.199l-0.539-0.008l-0.007-0.016
		c-0.022,0.008-0.037,0.008-0.06,0.016h-0.074v0.014c-0.361,0.074-0.369,0.023-0.605,0.045l-1.352,0.074l-0.007-0.096l0.753-0.104
		l0.273-0.023l0.155-0.109l0.007,0.096c1.064-0.088,1.44,0.178,6.359-0.871c0.266-0.023,0.244-0.244,0.414-0.703
		c-0.091,0.008-0.181-0.014-0.259-0.059c-0.406,0.156-0.62,0.082-1.403,0.207c-0.066,0.008-0.118-0.051-0.141-0.17l-0.008-0.08
		l0.754,0.021c0.141-0.016,0.414-0.037,0.82-0.266C1298.014,491.074,1297.858,491.111,1297.947,491.104L1297.947,491.104
		L1297.947,491.104z M1261.58,491.688l-0.347,0.029c-0.015-0.141,0.17-0.672,0.554-1.58l0.229-0.023
		C1262.023,490.328,1261.883,490.852,1261.58,491.688z M1262.002,490.004l-0.008-0.098c-0.008-0.117,0.066-0.199,0.229-0.236
		l0.008,0.098C1262.238,489.906,1262.164,489.988,1262.002,490.004z M1266.617,493.57l0.008,0.096l-0.576,0.053l-0.008-0.098
		L1266.617,493.57z M1265.923,493.512c0.008,0.117-0.17,0.25-0.554,0.383l-0.709-0.051l-0.229,0.021l-0.022-0.215L1265.923,493.512z
		 M1270.591,472.027l-0.347,0.029l-0.008-0.118c-0.008-0.118,0.06-0.199,0.207-0.236l0.125-0.007l0.236,0.096
		C1270.813,471.931,1270.746,472.011,1270.591,472.027z M1275.871,470.993l0.111-0.007l0.015,0.213l-0.317,0.03
		C1275.672,471.111,1275.731,471.03,1275.871,470.993L1275.871,470.993z M1274.542,471.458l-0.524-0.06l-0.007-0.097
		c0.687-0.059,0.915-0.133,1.336-0.25c0.008,0.08,0.082,0.11,0.215,0.096l0.015,0.214l-0.207,0.022
		c-0.162,0.015-0.303-0.008-0.421-0.074C1274.822,471.391,1274.689,471.443,1274.542,471.458z M1275.199,473.371l-0.007-0.096
		l0.849-0.082l0.008,0.097L1275.199,473.371z M1276.107,472.632l-0.007-0.118l0.413-0.037l0.008,0.118L1276.107,472.632z
		 M1276.204,471.185l-0.111,0.007l0.097-0.229l0.945-0.088l0.007,0.118C1276.898,471.015,1276.58,471.082,1276.204,471.185z
		 M1276.684,473.223l-0.015-0.214l0.414-0.037c0.14-0.016,0.214,0.051,0.222,0.199L1276.684,473.223L1276.684,473.223z
		 M1279.188,469.811l-0.531,0.147l-0.097,0.008c-0.251,0.021-0.576,0.015-0.96-0.022
		C1278.286,469.9,1278.944,469.847,1279.188,469.811L1279.188,469.811z M1278.619,472.174l0.007,0.096l-0.73,0.067l-0.008-0.097
		L1278.619,472.174z M1279.815,472.743c-0.008-0.089-0.147-0.147-0.436-0.177l-0.731,0.207l-0.562,0.021
		c-0.125-0.088-0.191-0.147-0.199-0.191l0.65,0.037l1.462-0.236l0.746,0.029l0.008,0.117
		C1280.384,472.587,1280.074,472.654,1279.815,472.743L1279.815,472.743z M1287.341,470.8c0.089,0.008,0.148,0.008,0.17,0.008
		c0.259-0.252,0.547-0.451,0.879-0.591c-0.266,1.167-0.679,2.03-1.248,2.593l-0.413-0.252
		C1287.075,471.679,1287.282,471.096,1287.341,470.8z M1286.071,472.979l0.103-0.007c-0.14,0.266-0.266,0.406-0.369,0.413
		l-0.021-0.28C1285.85,473.105,1285.945,473.06,1286.071,472.979z M1285.251,474.937c0.2-0.799,0.392-1.248,0.569-1.367l0.007,0.096
		c-0.104,0.739-0.266,1.131-0.479,1.16l0.036,0.465c-0.177,0.252-0.258,0.443-0.251,0.592l-0.104,0.007l-0.059-0.643
		C1285.089,475.232,1285.185,475.128,1285.251,474.937z M1284.934,476c0.007,0.111-0.066,0.369-0.214,0.769l-0.104,0.007
		l-0.022-0.28C1284.734,476.169,1284.853,476.007,1284.934,476L1284.934,476z M1278.974,493.297l-0.008-0.082l0.192-0.014
		l0.022,0.281C1279.077,493.488,1279.003,493.43,1278.974,493.297L1278.974,493.297z M1287.489,493.518
		c-0.008-0.066-0.037-0.096-0.104-0.088l-0.48,0.045l-0.007-0.096h0.044l1.138-0.098l0.007,0.098
		C1287.755,493.393,1287.556,493.445,1287.489,493.518z M1286.92,493.281c0.045,0.023,0.022,0.045,0,0.061
		C1286.898,493.334,1286.868,493.313,1286.92,493.281z M1286.979,491.953l-0.636,0.051l-0.007-0.096l0.576-0.051l0.502-0.127
		c0.008,0.061,0.037,0.082,0.104,0.074c0.599-0.104,0.539-0.133,0.827-0.154c0.096-0.008,0.155,0.051,0.162,0.17L1286.979,491.953z
		 M1289.202,491.76c-0.354-0.035-0.376-0.066-0.628-0.043l-0.007-0.082l0.568-0.051l0.008,0.08
		C1289.084,491.672,1289.299,491.688,1289.202,491.76z M1289.247,491.658l-0.008-0.082l0.311-0.029l0.007,0.08L1289.247,491.658z
		 M1289.934,491.598l-0.008-0.08c0.052-0.008,0.126-0.045,0.222-0.119c0.155-0.014,0.236,0.09,0.251,0.207L1289.934,491.598
		L1289.934,491.598z M1290.813,491.488l-0.008-0.098l0.377-0.029l0.008,0.096L1290.813,491.488z M1291.337,491.443
		c-0.008-0.111,0.037-0.178,0.133-0.191l0.126,0.162c-0.008-0.053,0.015-0.082,0.059-0.09l0.096,0.178L1291.337,491.443
		L1291.337,491.443z M1298.604,490.586l0.007-0.006v-0.008C1298.611,490.572,1298.604,490.58,1298.604,490.586L1298.604,490.586z
		 M1298.737,490.49c0.059-0.037,0.089-0.074-0.052-0.096c-0.066,0.074,0.073,0.096-0.074,0.104l0.008,0.066
		c0.015-0.016,0.052-0.037,0.081-0.059l-0.081,0.066v0.008l-0.155,0.199l0.311-0.111h0.036l-0.015-0.186L1298.737,490.49z
		 M1299.276,490.912l-0.06,0.006l0.015,0.186l0.437-0.037C1299.66,490.949,1299.372,490.912,1299.276,490.912z"/>
</g>
</svg>
