<?xml version="1.0" encoding="utf-8"?>
<!-- Generator: Adobe Illustrator 16.0.0, SVG Export Plug-In . SVG Version: 6.00 Build 0)  -->
<!DOCTYPE svg PUBLIC "-//W3C//DTD SVG 1.1//EN" "http://www.w3.org/Graphics/SVG/1.1/DTD/svg11.dtd">
<svg version="1.1" id="Layer_1" xmlns="http://www.w3.org/2000/svg" xmlns:xlink="http://www.w3.org/1999/xlink" x="0px" y="0px"
	 width="100px" height="100px" viewBox="0 0 100 100" enable-background="new 0 0 100 100" xml:space="preserve">
<g>
	<path fill-rule="evenodd" clip-rule="evenodd" fill="#FDFCFB" d="M34.051,99.808c-2.214,0-4.428,0-6.642,0
		c1.266-0.866,1.581-2.054,1.098-3.456c-0.464-1.346-1.623-1.27-2.747-1.269c-7.549,0.008-15.098,0.022-22.646-0.016
		c-1.163-0.006-2.163,0.169-2.938,1.087c0-2.325,0-4.649,0-6.975c0.623,0.748,1.371,1.234,2.39,1.231
		c3.146-0.009,6.292,0.034,9.436-0.019c1.676-0.028,2.45-0.891,2.432-2.471c-0.018-1.63-0.743-2.352-2.483-2.366
		c-2.869-0.024-5.74,0.034-8.608-0.027c-1.203-0.026-2.276,0.138-3.167,0.995c0-2.325,0-4.649,0-6.975
		c0.603,0.867,1.368,1.338,2.489,1.334c7.859-0.028,15.718-0.018,23.577-0.012c1.019,0.001,1.886-0.269,2.276-1.3
		c0.375-0.99,0.316-1.984-0.403-2.808c-0.683-0.78-1.665-0.792-2.61-0.793c-7.472-0.006-14.943,0.01-22.415-0.017
		c-1.196-0.004-2.144,0.388-2.915,1.271c0-2.325,0-4.649,0-6.975c0.585,0.596,1.192,1.075,2.124,1.049
		c1.758-0.051,3.519,0.012,5.277-0.023c1.451-0.029,2.171-0.818,2.175-2.302c0.004-1.432-0.659-2.318-2.144-2.37
		c-1.483-0.052-2.972,0.048-4.452-0.036c-1.168-0.066-2.153,0.2-2.98,1.026c0-2.215,0-4.429,0-6.643
		c0.971,0.841,2.104,0.998,3.362,0.988c5.849-0.046,11.698-0.017,17.547-0.022c1.924-0.003,2.862-0.776,2.911-2.362
		c0.052-1.66-0.924-2.527-2.929-2.531C15.054,57.012,9.039,57.04,3.024,57c-1.201-0.008-2.151,0.306-2.848,1.295
		c0-2.325,0-4.649,0-6.975c0.657,0.449,1.17,1.093,2.126,1.054c1.757-0.073,3.52-0.008,5.28-0.025
		c1.542-0.017,2.131-0.951,2.131-2.356c0-1.406-0.589-2.338-2.131-2.357c-1.485-0.018-2.973,0.053-4.455-0.025
		c-1.164-0.062-2.155,0.177-2.952,1.054c0-2.325,0-4.649,0-6.974c0.564,0.708,1.195,1.286,2.185,1.285
		c8.02-0.003,16.04,0.017,24.059-0.016c1.567-0.006,2.284-0.863,2.29-2.43c0.006-1.748-0.768-2.463-2.758-2.466
		c-7.522-0.009-15.044,0.019-22.565-0.026c-1.221-0.007-2.274,0.229-3.21,0.996c0-2.214,0-4.428,0-6.642
		c0.712,0.471,1.314,1.053,2.314,1.031c3.194-0.068,6.391-0.007,9.587-0.033c1.678-0.014,2.377-0.786,2.351-2.468
		c-0.025-1.566-0.699-2.23-2.382-2.242c-3.031-0.021-6.063,0.042-9.091-0.031c-1.134-0.027-2.025,0.278-2.778,1.086
		c0-2.325,0-4.649,0-6.974c0.768,1.021,1.801,1.27,3.046,1.262c6.693-0.042,13.387-0.02,20.081-0.02
		c4.093,0,8.187,0.022,12.281-0.011c1.997-0.016,2.98-1.276,2.564-3.134c-0.339-1.517-1.425-1.758-2.766-1.756
		c-10.732,0.02-21.464,0.026-32.196-0.011c-1.168-0.004-2.161,0.216-3.011,1.012c0-2.325,0-4.65,0-6.974
		c0.541,0.722,1.119,1.315,2.146,1.31c4.92-0.025,9.84-0.012,14.76-0.011c0.929,0,1.613-0.422,1.948-1.274
		c0.755-1.925-0.267-3.505-2.349-3.524c-4.698-0.042-9.397,0-14.096-0.023C1.55,9.601,0.823,10.09,0.177,10.804
		c0-2.324,0-4.649,0-6.974c0.795,0.901,1.804,1.067,2.971,1.064c14.222-0.03,28.443-0.02,42.665-0.02
		c4.538,0,9.075-0.014,13.612,0.009c1.021,0.005,1.9-0.167,2.279-1.239c0.394-1.113,0.356-2.175-0.592-3.042
		c-0.161-0.146-0.329-0.285-0.493-0.427c2.214,0,4.428,0,6.643,0c-0.033,0.161-0.031,0.341-0.104,0.481
		c-1.388,2.697-0.494,4.169,2.542,4.169c8.767,0.001,17.534-0.003,26.301,0.004c1.313,0.001,2.636,0.11,3.807-0.669
		c0,2.103,0,4.206,0,6.31c-1.171-0.782-2.494-0.675-3.807-0.671c-4.191,0.011-8.382-0.001-12.573,0.006
		c-1.926,0.003-2.569,0.618-2.551,2.388c0.019,1.654,0.673,2.256,2.514,2.26c3.97,0.008,7.94-0.019,11.911,0.014
		c1.547,0.013,3.072,0.01,4.506-0.675c0,1.993,0,3.985,0,5.978c-0.833-0.055-1.47-0.695-2.356-0.682
		c-3.2,0.047-6.4-0.013-9.601,0.032c-1.633,0.023-2.362,0.89-2.322,2.551c0.034,1.419,0.753,2.074,2.36,2.083
		c2.703,0.016,5.406-0.004,8.11,0.009c1.313,0.006,2.638,0.113,3.809-0.671c0,2.104,0,4.207,0,6.31
		c-0.768-0.06-1.287-0.746-2.153-0.695c-1.758,0.102-3.526,0.048-5.29,0.024c-1.104-0.015-1.806,0.366-1.86,1.576
		c-0.06,1.312-0.092,2.913,1.533,2.982c2.583,0.11,5.262,0.653,7.771-0.566c0,1.993,0,3.985,0,5.978
		c-2.313-1.091-4.775-0.613-7.177-0.63c-1.478-0.01-2.529,1.186-2.412,2.622c0.113,1.395,1.008,2.267,2.391,2.292
		c2.413,0.042,4.866,0.335,7.198-0.631c0,1.993,0,3.985,0,5.978c-0.77-0.059-1.295-0.715-2.157-0.695
		c-3.313,0.078-6.63,0.016-9.944,0.039c-1.413,0.01-2.177,0.862-2.177,2.317s0.764,2.305,2.177,2.316
		c2.762,0.025,5.525-0.001,8.287,0.012c1.315,0.006,2.641,0.115,3.814-0.668c0,1.993,0,3.985,0,5.978
		c-0.931-0.114-1.74-0.673-2.714-0.669c-4.474,0.019-8.949-0.018-13.424,0.02c-2.136,0.017-2.843,0.776-2.793,2.779
		c0.039,1.565,0.813,2.179,2.814,2.184c3.867,0.01,7.735-0.02,11.602,0.015c1.55,0.013,3.077,0.008,4.515-0.675
		c0,1.992,0,3.985,0,5.979c-0.734-0.011-1.189-0.704-1.992-0.689c-3.313,0.061-6.628-0.003-9.941,0.038
		c-1.646,0.021-2.377,0.872-2.346,2.532c0.027,1.435,0.737,2.091,2.346,2.101c2.707,0.016,5.413-0.005,8.12,0.008
		c1.314,0.006,2.64,0.116,3.813-0.669c0,2.104,0,4.207,0,6.311c-1.135-0.675-2.378-0.681-3.651-0.68
		c-13.547,0.02-27.094,0.012-40.641,0.013c-0.442,0-0.888-0.029-1.326,0.009c-1.157,0.103-1.789,0.743-1.871,1.911
		c-0.133,1.904,0.701,2.728,2.828,2.729c13.381,0.006,26.762-0.004,40.143,0.013c1.55,0.002,3.081,0.02,4.519-0.674
		c0,1.993,0,3.985,0,5.979c-0.962-0.176-1.798-0.705-2.855-0.694c-6.072,0.063-12.146,0.025-18.219,0.033
		c-1.898,0.002-2.5,0.603-2.508,2.436c-0.009,1.935,0.28,2.211,2.38,2.212c5.797,0.004,11.594-0.003,17.391,0.006
		c1.314,0.002,2.64,0.113,3.812-0.671c0,2.103,0,4.206,0,6.31c-0.812-0.092-1.403-0.709-2.322-0.702
		c-7.953,0.063-15.907,0.03-23.861,0.041c-1.767,0.002-2.776,1.393-2.279,3.104c0.152,0.524,0.375,1.028,0.565,1.542
		c-1.992,0-3.984,0-5.978,0c0.033-0.162,0.02-0.355,0.105-0.48c1.326-1.934,0.52-4.311-2.387-4.246
		c-9.213,0.204-18.435,0.14-27.651,0.03c-2.347-0.027-2.994,1.586-2.484,3.517C33.623,99.034,34.072,99.32,34.051,99.808z
		 M49.825,14.43c1.272,0,2.546,0,3.818,0c6.64,0,13.28,0.007,19.92-0.005c1.786-0.003,2.52-0.689,2.569-2.299
		c0.056-1.829-0.806-2.515-3.231-2.516C57.629,9.606,42.356,9.607,27.084,9.612c-0.497,0-0.996,0.028-1.487,0.093
		c-1.02,0.135-1.547,0.797-1.723,1.757c-0.341,1.864,0.581,2.959,2.544,2.962C34.221,14.438,42.023,14.43,49.825,14.43z
		 M38.165,71.31c7.077,0,14.154,0.008,21.231-0.004c1.789-0.004,2.497-0.691,2.506-2.329c0.011-1.704-0.776-2.386-2.81-2.387
		c-12.164-0.004-24.328-0.002-36.493-0.002c-1.99,0-3.981-0.009-5.971,0.005c-1.491,0.009-2.215,0.771-2.222,2.271
		c-0.007,1.802,0.603,2.439,2.525,2.442C24.01,71.317,31.087,71.31,38.165,71.31z M59.422,52.345c6.246,0,12.491,0.005,18.737-0.002
		c1.959-0.002,2.68-0.63,2.703-2.3c0.024-1.747-0.715-2.401-2.768-2.402c-12.437-0.004-24.872-0.004-37.307,0.001
		c-1.938,0.001-2.688,0.654-2.712,2.3c-0.025,1.715,0.752,2.399,2.777,2.401C47.042,52.349,53.232,52.345,59.422,52.345z
		 M71.24,38.073c-3.76,0-7.52-0.005-11.28,0.002c-2.116,0.004-2.948,0.718-2.925,2.477c0.021,1.644,0.894,2.392,2.865,2.395
		c7.631,0.008,15.262,0.009,22.892-0.001c2.068-0.002,2.774-0.637,2.786-2.413c0.011-1.799-0.694-2.45-2.727-2.456
		C78.981,38.065,75.111,38.073,71.24,38.073z M71.267,28.671c-3.872,0-7.746-0.008-11.618,0.004
		c-1.817,0.005-2.565,0.669-2.602,2.245c-0.038,1.668,0.764,2.468,2.571,2.471c7.801,0.011,15.602,0.011,23.403,0
		c1.902-0.003,2.575-0.674,2.553-2.436c-0.022-1.669-0.666-2.272-2.522-2.279C79.123,28.661,75.195,28.671,71.267,28.671z
		 M40.465,61.909c3.148,0,6.297,0.02,9.445-0.008c1.753-0.015,2.438-0.72,2.449-2.385c0.01-1.693-0.659-2.458-2.377-2.466
		c-6.296-0.031-12.593-0.028-18.889-0.002c-1.744,0.007-2.474,0.772-2.485,2.396c-0.012,1.707,0.734,2.447,2.578,2.46
		C34.279,61.926,37.373,61.91,40.465,61.909z M54.809,19.115c-3.04,0-6.078-0.005-9.117,0.002c-2.041,0.005-2.68,0.538-2.728,2.239
		c-0.054,1.943,0.583,2.603,2.692,2.651c1.877,0.043,3.757,0.01,5.636,0.01c4.199-0.001,8.399,0.044,12.598-0.024
		c2.065-0.034,2.795-0.862,2.718-2.707c-0.064-1.566-0.833-2.162-2.848-2.168C60.775,19.108,57.792,19.115,54.809,19.115z
		 M45.294,90.18c3.205,0,6.41-0.028,9.615,0.013c1.345,0.018,2.079-0.415,2.075-1.889c-0.005-1.888-0.522-2.755-2.023-2.762
		c-6.41-0.032-12.82-0.033-19.23-0.001c-1.701,0.009-2.391,0.815-2.344,2.479c0.044,1.542,0.72,2.15,2.458,2.157
		C38.995,90.188,42.145,90.18,45.294,90.18z M66.636,61.924c2.373,0,4.747,0.028,7.119-0.01c1.688-0.027,2.43-0.821,2.422-2.456
		c-0.006-1.458-0.849-2.424-2.323-2.435c-4.801-0.037-9.603-0.045-14.403,0.004c-1.606,0.017-2.465,0.999-2.441,2.509
		c0.025,1.594,0.795,2.358,2.509,2.38C61.89,61.946,64.264,61.924,66.636,61.924z M42.881,38.038c-2.269,0-4.537-0.013-6.806,0.004
		c-1.888,0.014-2.645,0.699-2.688,2.373c-0.044,1.709,0.657,2.55,2.493,2.576c4.647,0.064,9.296,0.067,13.943,0
		c1.9-0.028,2.533-0.842,2.493-2.739c-0.032-1.536-0.787-2.191-2.629-2.208C47.419,38.022,45.15,38.037,42.881,38.038z
		 M42.992,28.736c-2.377,0-4.753-0.008-7.13,0.003c-1.822,0.009-2.47,0.625-2.475,2.307c-0.004,1.69,0.649,2.333,2.444,2.337
		c4.698,0.01,9.396,0.012,14.095-0.001c1.763-0.004,2.41-0.673,2.39-2.389c-0.019-1.607-0.663-2.241-2.36-2.253
		C47.635,28.724,45.313,28.736,42.992,28.736z M23.926,52.352c2.375,0,4.75,0.02,7.125-0.007c1.665-0.019,2.327-0.697,2.347-2.294
		c0.02-1.7-0.644-2.404-2.396-2.411c-4.75-0.019-9.5-0.019-14.25,0.001c-1.672,0.007-2.32,0.682-2.338,2.294
		c-0.019,1.705,0.64,2.395,2.388,2.412C19.176,52.367,21.551,52.351,23.926,52.352z M73.657,71.247c1.655,0,3.311,0.018,4.965-0.005
		c1.543-0.021,2.259-0.735,2.255-2.186c-0.005-1.627-0.704-2.441-2.204-2.452c-3.311-0.022-6.62-0.025-9.931,0.002
		c-1.494,0.013-2.138,0.746-2.145,2.291c-0.008,1.569,0.623,2.308,2.096,2.341C70.347,71.275,72.003,71.246,73.657,71.247z
		 M40.487,80.874c1.655,0,3.312,0.047,4.964-0.014c1.522-0.056,2.229-0.908,2.215-2.49c-0.013-1.456-0.709-2.13-2.301-2.14
		c-3.2-0.018-6.399,0.013-9.599-0.014c-1.443-0.012-2.328,0.536-2.377,2.074c-0.053,1.668,0.674,2.522,2.299,2.574
		C37.286,80.916,38.887,80.876,40.487,80.874z M76.018,19.113c-0.717,0-1.435-0.009-2.151,0.002
		c-1.774,0.028-2.523,0.689-2.587,2.271c-0.066,1.644,0.75,2.541,2.488,2.603c1.542,0.055,3.089,0.043,4.632,0.004
		c1.783-0.045,2.503-0.826,2.47-2.575c-0.031-1.612-0.748-2.269-2.536-2.301C77.562,19.102,76.789,19.114,76.018,19.113z
		 M23.989,85.553c-0.829,0-1.658-0.019-2.486,0.004c-1.635,0.045-2.347,0.744-2.382,2.302c-0.036,1.594,0.634,2.424,2.204,2.494
		c1.709,0.077,3.427,0.073,5.136,0.003c1.546-0.064,2.266-0.934,2.233-2.485c-0.033-1.542-0.767-2.265-2.385-2.313
		C25.536,85.534,24.762,85.554,23.989,85.553z M23.908,28.688c-0.828,0-1.655-0.018-2.482,0.003
		c-1.638,0.043-2.304,0.726-2.307,2.331c-0.002,1.592,0.685,2.335,2.287,2.368c1.654,0.035,3.311,0.031,4.965,0.001
		c1.575-0.028,2.329-0.815,2.331-2.35c0.002-1.571-0.71-2.306-2.311-2.35C25.563,28.669,24.736,28.688,23.908,28.688z
		 M66.665,90.179c0.826,0,1.653-0.024,2.479,0.006c1.189,0.045,2.053-0.221,2.115-1.66c0.081-1.858-0.391-2.833-1.842-2.939
		c-1.862-0.136-3.748-0.132-5.612-0.004c-1.455,0.1-1.937,1.066-1.87,2.914c0.052,1.429,0.88,1.736,2.087,1.69
		C64.901,90.152,65.783,90.18,66.665,90.179z"/>
	<path fill-rule="evenodd" clip-rule="evenodd" fill="#57B4B5" d="M60.619,0.177c0.164,0.142,0.332,0.281,0.493,0.427
		c0.948,0.867,0.985,1.929,0.592,3.042c-0.379,1.072-1.258,1.244-2.279,1.239c-4.537-0.023-9.075-0.009-13.612-0.009
		c-14.222,0-28.443-0.011-42.665,0.02C1.981,4.897,0.972,4.731,0.177,3.83c0-1.218-0.476-2.911,0.133-3.52s2.302-0.133,3.52-0.133
		C22.76,0.177,41.689,0.177,60.619,0.177z"/>
	<path fill-rule="evenodd" clip-rule="evenodd" fill="#E6E7E9" d="M99.808,80.213c-1.438,0.693-2.969,0.676-4.519,0.674
		c-13.381-0.017-26.762-0.007-40.143-0.013c-2.127-0.001-2.961-0.824-2.828-2.729c0.082-1.168,0.714-1.809,1.871-1.911
		c0.438-0.038,0.884-0.009,1.326-0.009c13.547-0.001,27.094,0.007,40.641-0.013c1.273-0.001,2.517,0.005,3.651,0.68
		C99.808,77.999,99.808,79.106,99.808,80.213z"/>
	<path fill-rule="evenodd" clip-rule="evenodd" fill="#5FB7B8" d="M0.177,20.103c0.85-0.796,1.843-1.017,3.011-1.012
		c10.732,0.038,21.464,0.031,32.196,0.011c1.341-0.002,2.427,0.239,2.766,1.756c0.416,1.858-0.568,3.118-2.564,3.134
		c-4.094,0.033-8.188,0.011-12.281,0.011c-6.694,0-13.388-0.022-20.081,0.02C1.978,24.03,0.944,23.78,0.177,22.76
		C0.177,21.874,0.177,20.988,0.177,20.103z"/>
	<path fill-rule="evenodd" clip-rule="evenodd" fill="#E6E7E9" d="M99.808,4.162c-1.171,0.78-2.493,0.67-3.807,0.669
		C87.234,4.824,78.467,4.828,69.7,4.827c-3.036,0-3.93-1.472-2.542-4.169c0.072-0.141,0.07-0.32,0.104-0.481
		c10.461,0,20.922,0.017,31.383-0.028c0.991-0.004,1.3,0.191,1.186,1.193C99.724,2.271,99.808,3.221,99.808,4.162z"/>
	<path fill-rule="evenodd" clip-rule="evenodd" fill="#E6E7E9" d="M34.051,99.808c0.021-0.487-0.428-0.773-0.535-1.18
		c-0.51-1.931,0.137-3.544,2.484-3.517c9.216,0.109,18.438,0.174,27.651-0.03c2.906-0.064,3.713,2.313,2.387,4.246
		c-0.086,0.125-0.072,0.318-0.105,0.48C55.306,99.808,44.679,99.808,34.051,99.808z"/>
	<path fill-rule="evenodd" clip-rule="evenodd" fill="#C28BBD" d="M0.177,39.033c0.936-0.767,1.989-1.003,3.21-0.996
		c7.521,0.045,15.043,0.017,22.565,0.026c1.99,0.002,2.764,0.718,2.758,2.466c-0.006,1.567-0.723,2.424-2.29,2.43
		c-8.02,0.032-16.039,0.012-24.059,0.016c-0.99,0-1.621-0.578-2.185-1.285C0.177,40.804,0.177,39.918,0.177,39.033z"/>
	<path fill-rule="evenodd" clip-rule="evenodd" fill="#C188BC" d="M0.177,77.225c0.771-0.883,1.719-1.274,2.915-1.271
		c7.471,0.026,14.943,0.011,22.415,0.017c0.946,0.001,1.928,0.013,2.61,0.793c0.719,0.823,0.778,1.817,0.403,2.808
		c-0.39,1.031-1.257,1.301-2.276,1.3c-7.859-0.006-15.718-0.017-23.577,0.012c-1.121,0.004-1.886-0.467-2.489-1.334
		C0.177,78.774,0.177,77.999,0.177,77.225z"/>
	<path fill-rule="evenodd" clip-rule="evenodd" fill="#E6E7E9" d="M71.91,99.808c-0.19-0.514-0.413-1.018-0.565-1.542
		c-0.497-1.712,0.513-3.103,2.279-3.104c7.954-0.011,15.908,0.022,23.861-0.041c0.919-0.007,1.511,0.61,2.322,0.702
		c0,1.328,0.519,3.175-0.146,3.839c-0.664,0.665-2.511,0.146-3.839,0.146C87.852,99.808,79.881,99.808,71.91,99.808z"/>
	<path fill-rule="evenodd" clip-rule="evenodd" fill="#EB6060" d="M0.177,96.154c0.774-0.918,1.775-1.093,2.938-1.087
		c7.548,0.038,15.097,0.023,22.646,0.016c1.125-0.001,2.283-0.077,2.747,1.269c0.482,1.402,0.167,2.59-1.098,3.456
		c-8.644,0-17.288-0.03-25.931,0.035c-1.172,0.01-1.471-0.279-1.322-1.379C0.26,97.707,0.177,96.925,0.177,96.154z"/>
	<path fill-rule="evenodd" clip-rule="evenodd" fill="#5FB7B8" d="M0.177,58.295C0.874,57.306,1.824,56.992,3.024,57
		c6.015,0.04,12.03,0.012,18.044,0.023c2.004,0.004,2.98,0.871,2.929,2.531c-0.049,1.586-0.987,2.359-2.911,2.362
		c-5.85,0.006-11.699-0.023-17.547,0.022c-1.258,0.01-2.391-0.147-3.362-0.988C0.177,60.065,0.177,59.18,0.177,58.295z"/>
	<path fill-rule="evenodd" clip-rule="evenodd" fill="#E6E7E9" d="M99.808,89.513c-1.172,0.784-2.497,0.673-3.812,0.671
		c-5.797-0.009-11.594-0.002-17.391-0.006c-2.1-0.001-2.389-0.277-2.38-2.212c0.008-1.833,0.609-2.434,2.508-2.436
		c6.073-0.008,12.146,0.029,18.219-0.033c1.058-0.011,1.894,0.519,2.855,0.694C99.808,87.298,99.808,88.405,99.808,89.513z"/>
	<path fill-rule="evenodd" clip-rule="evenodd" fill="#E6E7E9" d="M99.808,61.283c-1.438,0.683-2.965,0.688-4.515,0.675
		c-3.866-0.034-7.734-0.005-11.602-0.015c-2.002-0.005-2.775-0.618-2.814-2.184c-0.05-2.003,0.657-2.763,2.793-2.779
		c4.475-0.037,8.95-0.001,13.424-0.02c0.974-0.004,1.783,0.555,2.714,0.669C99.808,58.848,99.808,60.065,99.808,61.283z"/>
	<path fill-rule="evenodd" clip-rule="evenodd" fill="#EB6261" d="M0.177,10.804C0.823,10.09,1.55,9.601,2.586,9.606
		c4.699,0.024,9.398-0.019,14.096,0.023c2.082,0.019,3.104,1.599,2.349,3.524c-0.334,0.852-1.019,1.274-1.948,1.274
		c-4.92,0-9.84-0.014-14.76,0.011c-1.028,0.005-1.606-0.588-2.146-1.31C0.177,12.354,0.177,11.579,0.177,10.804z"/>
	<path fill-rule="evenodd" clip-rule="evenodd" fill="#E6E7E9" d="M99.808,13.793c-1.434,0.685-2.959,0.688-4.506,0.675
		c-3.971-0.033-7.941-0.005-11.911-0.014c-1.841-0.004-2.495-0.605-2.514-2.26c-0.019-1.77,0.625-2.384,2.551-2.388
		C87.619,9.799,91.81,9.811,96.001,9.8c1.313-0.003,2.636-0.111,3.807,0.671C99.808,11.579,99.808,12.686,99.808,13.793z"/>
	<path fill-rule="evenodd" clip-rule="evenodd" fill="#5BB6B6" d="M0.177,86.523c0.892-0.857,1.964-1.021,3.167-0.995
		c2.868,0.062,5.739,0.003,8.608,0.027c1.74,0.015,2.465,0.736,2.483,2.366c0.018,1.58-0.756,2.442-2.432,2.471
		c-3.145,0.053-6.291,0.01-9.436,0.019c-1.019,0.003-1.768-0.483-2.39-1.231C0.177,88.295,0.177,87.409,0.177,86.523z"/>
	<path fill-rule="evenodd" clip-rule="evenodd" fill="#E6E7E9" d="M99.808,70.582c-1.174,0.785-2.499,0.675-3.813,0.669
		c-2.707-0.013-5.413,0.008-8.12-0.008c-1.608-0.01-2.318-0.666-2.346-2.101c-0.031-1.66,0.699-2.512,2.346-2.532
		c3.313-0.041,6.629,0.022,9.941-0.038c0.803-0.015,1.258,0.679,1.992,0.689C99.808,68.368,99.808,69.475,99.808,70.582z"/>
	<path fill-rule="evenodd" clip-rule="evenodd" fill="#E6E7E9" d="M99.808,51.652c-1.174,0.783-2.499,0.674-3.814,0.668
		c-2.762-0.013-5.525,0.014-8.287-0.012c-1.413-0.012-2.177-0.861-2.177-2.316s0.764-2.308,2.177-2.317
		c3.314-0.023,6.631,0.039,9.944-0.039c0.862-0.02,1.388,0.637,2.157,0.695C99.808,49.438,99.808,50.545,99.808,51.652z"/>
	<path fill-rule="evenodd" clip-rule="evenodd" fill="#F7BC40" d="M0.177,29.734c0.752-0.808,1.644-1.113,2.778-1.086
		c3.029,0.073,6.061,0.01,9.091,0.031c1.683,0.012,2.357,0.675,2.382,2.242c0.026,1.682-0.673,2.454-2.351,2.468
		c-3.196,0.026-6.393-0.035-9.587,0.033c-1,0.021-1.602-0.56-2.314-1.031C0.177,31.505,0.177,30.62,0.177,29.734z"/>
	<path fill-rule="evenodd" clip-rule="evenodd" fill="#E6E7E9" d="M99.808,23.092c-1.171,0.784-2.495,0.677-3.809,0.671
		c-2.704-0.013-5.407,0.007-8.11-0.009c-1.607-0.009-2.326-0.664-2.36-2.083c-0.04-1.661,0.689-2.528,2.322-2.551
		c3.2-0.044,6.4,0.016,9.601-0.032c0.887-0.013,1.523,0.627,2.356,0.682C99.808,20.878,99.808,21.985,99.808,23.092z"/>
	<path fill-rule="evenodd" clip-rule="evenodd" fill="#E6E7E9" d="M99.808,42.354c-2.332,0.966-4.785,0.673-7.198,0.631
		c-1.383-0.025-2.277-0.896-2.391-2.292c-0.117-1.436,0.935-2.632,2.412-2.622c2.401,0.017,4.864-0.461,7.177,0.63
		C99.808,39.918,99.808,41.136,99.808,42.354z"/>
	<path fill-rule="evenodd" clip-rule="evenodd" fill="#C188BC" d="M0.177,67.594c0.827-0.826,1.812-1.093,2.98-1.026
		c1.479,0.084,2.969-0.016,4.452,0.036c1.485,0.052,2.148,0.938,2.144,2.37c-0.004,1.483-0.725,2.272-2.175,2.302
		c-1.758,0.035-3.519-0.027-5.277,0.023c-0.932,0.026-1.538-0.453-2.124-1.049C0.177,69.364,0.177,68.479,0.177,67.594z"/>
	<path fill-rule="evenodd" clip-rule="evenodd" fill="#EB6261" d="M0.177,48.664c0.797-0.876,1.788-1.116,2.952-1.054
		c1.481,0.079,2.97,0.007,4.455,0.025c1.542,0.019,2.131,0.951,2.131,2.357c0,1.405-0.589,2.34-2.131,2.356
		c-1.76,0.018-3.522-0.048-5.28,0.025c-0.956,0.039-1.469-0.604-2.126-1.054C0.177,50.435,0.177,49.549,0.177,48.664z"/>
	<path fill-rule="evenodd" clip-rule="evenodd" fill="#E6E7E9" d="M99.808,32.723c-2.509,1.219-5.188,0.676-7.771,0.566
		c-1.625-0.069-1.593-1.67-1.533-2.982c0.055-1.21,0.756-1.591,1.86-1.576c1.764,0.024,3.532,0.078,5.29-0.024
		c0.866-0.051,1.386,0.636,2.153,0.695C99.808,30.509,99.808,31.616,99.808,32.723z"/>
	<path fill-rule="evenodd" clip-rule="evenodd" fill="#F7BC41" d="M49.825,14.43c-7.802,0-15.604,0.008-23.407-0.005
		c-1.964-0.003-2.886-1.099-2.544-2.962c0.176-0.959,0.703-1.622,1.723-1.757c0.491-0.065,0.991-0.093,1.487-0.093
		C42.356,9.607,57.629,9.606,72.901,9.61c2.426,0,3.287,0.687,3.231,2.516c-0.05,1.61-0.783,2.295-2.569,2.299
		c-6.64,0.012-13.28,0.005-19.92,0.005C52.371,14.43,51.098,14.43,49.825,14.43z"/>
	<path fill-rule="evenodd" clip-rule="evenodd" fill="#F7BB3F" d="M38.165,71.31c-7.078,0-14.155,0.008-21.232-0.004
		c-1.923-0.003-2.533-0.641-2.525-2.442c0.006-1.5,0.73-2.262,2.222-2.271c1.99-0.014,3.981-0.005,5.971-0.005
		c12.165,0,24.329-0.002,36.493,0.002c2.033,0.001,2.82,0.683,2.81,2.387c-0.009,1.638-0.717,2.325-2.506,2.329
		C52.319,71.317,45.242,71.31,38.165,71.31z"/>
	<path fill-rule="evenodd" clip-rule="evenodd" fill="#57B4B5" d="M59.422,52.345c-6.189,0-12.38,0.004-18.57-0.002
		c-2.024-0.002-2.802-0.687-2.777-2.401c0.024-1.646,0.774-2.299,2.712-2.3c12.435-0.005,24.871-0.005,37.307-0.001
		c2.053,0.001,2.792,0.655,2.768,2.402c-0.023,1.67-0.744,2.298-2.703,2.3C71.913,52.35,65.668,52.345,59.422,52.345z"/>
	<path fill-rule="evenodd" clip-rule="evenodd" fill="#F8BE46" d="M71.24,38.073c3.871,0,7.741-0.008,11.611,0.003
		c2.032,0.006,2.737,0.657,2.727,2.456c-0.012,1.776-0.718,2.411-2.786,2.413c-7.63,0.01-15.261,0.009-22.892,0.001
		c-1.972-0.002-2.844-0.75-2.865-2.395c-0.023-1.759,0.809-2.473,2.925-2.477C63.721,38.067,67.48,38.073,71.24,38.073z"/>
	<path fill-rule="evenodd" clip-rule="evenodd" fill="#EB6060" d="M71.267,28.671c3.929,0,7.856-0.01,11.785,0.005
		c1.856,0.007,2.5,0.61,2.522,2.279c0.022,1.762-0.65,2.433-2.553,2.436c-7.802,0.011-15.603,0.011-23.403,0
		c-1.808-0.003-2.609-0.803-2.571-2.471c0.036-1.575,0.784-2.239,2.602-2.245C63.521,28.663,67.395,28.671,71.267,28.671z"/>
	<path fill-rule="evenodd" clip-rule="evenodd" fill="#EC6764" d="M40.465,61.909c-3.093,0.001-6.186,0.017-9.279-0.005
		c-1.844-0.013-2.59-0.753-2.578-2.46c0.011-1.623,0.741-2.389,2.485-2.396c6.296-0.026,12.593-0.029,18.889,0.002
		c1.718,0.008,2.387,0.772,2.377,2.466c-0.011,1.665-0.696,2.37-2.449,2.385C46.762,61.929,43.614,61.909,40.465,61.909z"/>
	<path fill-rule="evenodd" clip-rule="evenodd" fill="#C188BC" d="M54.809,19.115c2.983,0,5.967-0.006,8.951,0.003
		c2.015,0.006,2.783,0.602,2.848,2.168c0.077,1.845-0.652,2.673-2.718,2.707c-4.198,0.068-8.398,0.023-12.598,0.024
		c-1.878,0-3.758,0.033-5.636-0.01c-2.11-0.048-2.747-0.708-2.692-2.651c0.048-1.701,0.687-2.234,2.728-2.239
		C48.73,19.109,51.769,19.115,54.809,19.115z"/>
	<path fill-rule="evenodd" clip-rule="evenodd" fill="#E6E7E9" d="M45.294,90.18c-3.15,0-6.299,0.008-9.449-0.003
		c-1.738-0.007-2.415-0.615-2.458-2.157c-0.047-1.663,0.643-2.47,2.344-2.479c6.41-0.032,12.82-0.031,19.23,0.001
		c1.501,0.007,2.019,0.874,2.023,2.762c0.004,1.474-0.73,1.906-2.075,1.889C51.704,90.151,48.5,90.18,45.294,90.18z"/>
	<path fill-rule="evenodd" clip-rule="evenodd" fill="#C28BBD" d="M66.636,61.924c-2.372,0-4.746,0.022-7.118-0.008
		c-1.714-0.021-2.483-0.786-2.509-2.38c-0.023-1.51,0.835-2.492,2.441-2.509c4.801-0.049,9.603-0.041,14.403-0.004
		c1.475,0.011,2.317,0.977,2.323,2.435c0.008,1.635-0.733,2.429-2.422,2.456C71.383,61.952,69.009,61.924,66.636,61.924z"/>
	<path fill-rule="evenodd" clip-rule="evenodd" fill="#E6E7E9" d="M42.881,38.037c2.269,0,4.538-0.015,6.806,0.005
		c1.842,0.017,2.597,0.671,2.629,2.208c0.04,1.897-0.593,2.711-2.493,2.739c-4.647,0.068-9.296,0.065-13.943,0
		c-1.836-0.025-2.537-0.866-2.493-2.576c0.043-1.674,0.8-2.358,2.688-2.373C38.344,38.024,40.613,38.038,42.881,38.037z"/>
	<path fill-rule="evenodd" clip-rule="evenodd" fill="#E6E7E9" d="M42.992,28.736c2.321,0,4.643-0.012,6.964,0.004
		c1.697,0.012,2.341,0.646,2.36,2.253c0.02,1.715-0.627,2.384-2.39,2.389c-4.698,0.013-9.396,0.011-14.095,0.001
		c-1.795-0.004-2.448-0.647-2.444-2.337c0.004-1.682,0.652-2.298,2.475-2.307C38.239,28.728,40.615,28.736,42.992,28.736z"/>
	<path fill-rule="evenodd" clip-rule="evenodd" fill="#F7BB3F" d="M23.926,52.352c-2.375-0.001-4.75,0.016-7.125-0.006
		c-1.748-0.017-2.407-0.707-2.388-2.412c0.019-1.612,0.667-2.287,2.338-2.294c4.75-0.02,9.5-0.02,14.25-0.001
		c1.752,0.007,2.416,0.711,2.396,2.411c-0.02,1.597-0.682,2.276-2.347,2.294C28.675,52.371,26.3,52.352,23.926,52.352z"/>
	<path fill-rule="evenodd" clip-rule="evenodd" fill="#E6E7E9" d="M73.657,71.247c-1.654-0.001-3.311,0.028-4.964-0.009
		c-1.473-0.033-2.104-0.771-2.096-2.341c0.007-1.545,0.65-2.278,2.145-2.291c3.311-0.027,6.62-0.024,9.931-0.002
		c1.5,0.011,2.199,0.825,2.204,2.452c0.004,1.45-0.712,2.165-2.255,2.186C76.968,71.265,75.313,71.247,73.657,71.247z"/>
	<path fill-rule="evenodd" clip-rule="evenodd" fill="#E6E7E9" d="M40.487,80.875c-1.6,0.001-3.201,0.041-4.799-0.01
		c-1.625-0.052-2.352-0.906-2.299-2.574c0.049-1.538,0.935-2.086,2.377-2.074c3.199,0.026,6.399-0.004,9.599,0.014
		c1.592,0.01,2.289,0.684,2.301,2.14c0.014,1.582-0.693,2.435-2.215,2.49C43.799,80.921,42.142,80.874,40.487,80.875z"/>
	<path fill-rule="evenodd" clip-rule="evenodd" fill="#5FB7B8" d="M76.018,19.114c0.771,0,1.544-0.012,2.315,0.002
		c1.788,0.032,2.505,0.689,2.536,2.301c0.033,1.75-0.687,2.53-2.47,2.575c-1.543,0.039-3.09,0.05-4.632-0.004
		c-1.738-0.062-2.555-0.959-2.488-2.603c0.063-1.581,0.813-2.242,2.587-2.271C74.583,19.104,75.301,19.113,76.018,19.114z"/>
	<path fill-rule="evenodd" clip-rule="evenodd" fill="#F8BD43" d="M23.989,85.553c0.773,0.001,1.547-0.019,2.32,0.005
		c1.618,0.048,2.352,0.771,2.385,2.313c0.033,1.552-0.687,2.421-2.233,2.485c-1.709,0.07-3.427,0.074-5.136-0.003
		c-1.57-0.07-2.24-0.9-2.204-2.494c0.035-1.558,0.748-2.257,2.382-2.302C22.331,85.534,23.16,85.553,23.989,85.553z"/>
	<path fill-rule="evenodd" clip-rule="evenodd" fill="#5BB6B6" d="M23.908,28.688c0.828,0,1.656-0.019,2.483,0.004
		c1.601,0.044,2.313,0.779,2.311,2.35c-0.002,1.535-0.756,2.322-2.331,2.35c-1.655,0.03-3.311,0.033-4.965-0.001
		c-1.602-0.033-2.289-0.776-2.287-2.368c0.003-1.604,0.669-2.288,2.307-2.331C22.252,28.67,23.08,28.688,23.908,28.688z"/>
	<path fill-rule="evenodd" clip-rule="evenodd" fill="#E6E7E9" d="M66.665,90.18c-0.882,0-1.764-0.027-2.644,0.006
		c-1.207,0.046-2.035-0.262-2.087-1.69c-0.066-1.848,0.415-2.814,1.87-2.914c1.864-0.128,3.75-0.132,5.612,0.004
		c1.451,0.106,1.923,1.081,1.842,2.939c-0.063,1.439-0.926,1.705-2.115,1.66C68.318,90.154,67.491,90.179,66.665,90.18z"/>
</g>
</svg>
