<?xml version="1.0" encoding="utf-8"?>
<!-- Generator: Adobe Illustrator 16.0.0, SVG Export Plug-In . SVG Version: 6.00 Build 0)  -->
<!DOCTYPE svg PUBLIC "-//W3C//DTD SVG 1.1//EN" "http://www.w3.org/Graphics/SVG/1.1/DTD/svg11.dtd">
<svg version="1.1" id="Layer_1" xmlns="http://www.w3.org/2000/svg" xmlns:xlink="http://www.w3.org/1999/xlink" x="0px" y="0px"
	 width="100px" height="100px" viewBox="0 0 100 100" enable-background="new 0 0 100 100" xml:space="preserve">
<g>
	<path fill-rule="evenodd" clip-rule="evenodd" fill="#62D9FA" d="M80.869,20.554c-0.037,4.072-0.67,8.065-1.641,12.008
		c-0.132,0.537,0.012,0.675,0.49,0.813c3.406,0.985,6.722,2.215,9.869,3.863c2.596,1.359,5.023,2.957,7.039,5.112
		c1.588,1.696,2.803,3.614,3.217,5.942c0.502,2.837-0.227,5.392-1.873,7.716c-1.802,2.541-4.223,4.371-6.875,5.917
		c-3.506,2.043-7.264,3.494-11.147,4.635c-0.146,0.043-0.288,0.104-0.437,0.134c-0.338,0.067-0.412,0.254-0.327,0.575
		c0.506,1.913,0.88,3.854,1.163,5.811c0.65,4.51,0.895,9.016-0.402,13.465c-0.795,2.725-2.167,5.072-4.633,6.639
		c-2.046,1.301-4.303,1.69-6.678,1.419c-4.192-0.479-7.762-2.444-11.17-4.769c-2.557-1.743-4.895-3.754-7.127-5.888
		c-0.314-0.301-0.463-0.209-0.725,0.039c-2.965,2.811-6.099,5.406-9.636,7.478c-2.412,1.412-4.938,2.557-7.718,3.02
		c-3.594,0.6-6.83-0.108-9.426-2.82c-1.708-1.785-2.61-4.002-3.128-6.38c-0.688-3.154-0.698-6.336-0.386-9.538
		c0.277-2.845,0.774-5.647,1.471-8.415c0.125-0.494-0.115-0.575-0.477-0.682c-3.643-1.069-7.189-2.384-10.525-4.216
		c-2.944-1.615-5.655-3.523-7.667-6.283c-3.022-4.144-2.795-9.105,0.551-13.027c2.154-2.524,4.821-4.354,7.722-5.88
		c3.162-1.663,6.497-2.894,9.924-3.88c0.481-0.139,0.551-0.321,0.437-0.794c-0.788-3.256-1.36-6.545-1.556-9.899
		c-0.202-3.47-0.02-6.887,1.167-10.186c1.005-2.794,2.691-5.037,5.465-6.286c2.447-1.103,4.992-1.072,7.547-0.443
		c3.63,0.894,6.797,2.737,9.805,4.881c2.283,1.628,4.415,3.442,6.425,5.396c0.303,0.295,0.456,0.3,0.766,0.003
		c2.892-2.777,5.972-5.319,9.432-7.368c2.438-1.443,4.982-2.643,7.801-3.12c3.693-0.625,7.02,0.062,9.658,2.921
		c1.634,1.771,2.502,3.936,3.016,6.253C80.707,16.638,80.88,18.588,80.869,20.554z M49.772,66.211
		c3.021,0.047,5.875-0.068,8.726-0.234c0.444-0.026,0.719-0.154,0.973-0.529c3.233-4.791,6.106-9.787,8.645-14.979
		c0.172-0.354,0.162-0.631-0.007-0.958c-0.561-1.082-1.099-2.175-1.663-3.256c-2.123-4.073-4.479-8.008-7.059-11.81
		c-0.145-0.214-0.283-0.366-0.578-0.388c-2.487-0.188-4.98-0.266-7.473-0.309c-3.37-0.059-6.737,0.09-10.102,0.306
		c-0.342,0.022-0.499,0.19-0.667,0.438c-3.262,4.816-6.164,9.84-8.703,15.075c-0.16,0.329-0.158,0.581,0.01,0.9
		c0.902,1.72,1.754,3.467,2.678,5.175c1.849,3.419,3.877,6.73,6.066,9.943c0.163,0.239,0.333,0.365,0.64,0.381
		C44.148,66.122,47.039,66.271,49.772,66.211z M23.352,79.657c0.047,1.429,0.128,2.983,0.453,4.516
		c0.331,1.563,0.846,3.055,1.887,4.292c1.585,1.884,3.681,2.206,5.967,1.809c2.225-0.387,4.235-1.328,6.165-2.463
		c3.136-1.845,5.899-4.17,8.551-6.638c0.645-0.601,0.64-0.604,0.037-1.253c-0.104-0.111-0.202-0.228-0.303-0.341
		c-2.647-2.948-5.112-6.043-7.4-9.277c-0.171-0.241-0.377-0.322-0.668-0.349c-1.116-0.101-2.232-0.212-3.343-0.362
		c-3.124-0.423-6.237-0.919-9.31-1.633c-0.241-0.057-0.373-0.05-0.445,0.247C24.031,71.926,23.432,75.689,23.352,79.657z
		 M76.646,79.525c-0.029-0.447-0.078-0.997-0.099-1.547c-0.124-3.301-0.729-6.525-1.493-9.728c-0.073-0.305-0.177-0.358-0.464-0.293
		c-4.209,0.963-8.472,1.589-12.768,2.003c-0.266,0.025-0.411,0.16-0.547,0.351c-2.472,3.479-5.128,6.809-8.025,9.943
		c-0.234,0.253-0.183,0.409,0.041,0.607c0.37,0.327,0.729,0.668,1.092,1.005c2.248,2.094,4.628,4.019,7.252,5.622
		c2.284,1.396,4.66,2.559,7.381,2.866c2.809,0.317,4.912-0.776,6.179-3.287C76.378,84.724,76.531,82.184,76.646,79.525z
		 M4.249,49.569c-0.017,1.368,0.26,2.29,0.732,3.154c1.182,2.158,3.04,3.635,5.063,4.922c3.497,2.225,7.338,3.666,11.283,4.861
		c0.715,0.216,0.712,0.214,0.927-0.478c0.113-0.363,0.235-0.724,0.356-1.084c1.172-3.501,2.511-6.938,4.045-10.296
		c0.156-0.342,0.31-0.651,0.114-1.072c-1.768-3.817-3.287-7.734-4.543-11.75c-0.135-0.431-0.311-0.516-0.734-0.389
		c-3.379,1.013-6.672,2.236-9.776,3.93c-2.05,1.119-3.967,2.419-5.527,4.184C5.081,46.807,4.295,48.214,4.249,49.569z
		 M23.342,20.516c0.026,0.386,0.077,0.917,0.095,1.448c0.109,3.205,0.699,6.338,1.412,9.453c0.164,0.716,0.169,0.705,0.882,0.548
		c4.066-0.896,8.176-1.52,12.321-1.899c0.326-0.03,0.506-0.167,0.685-0.417c2.464-3.436,5.07-6.758,7.963-9.847
		c0.315-0.336,0.157-0.5-0.086-0.732c-2.164-2.067-4.424-4.021-6.914-5.688c-2.621-1.753-5.349-3.27-8.554-3.716
		c-2.967-0.413-5.338,0.878-6.538,3.621C23.617,15.55,23.44,17.949,23.342,20.516z M95.739,50.441
		c-0.003-1.473-0.327-2.566-0.933-3.525c-1.305-2.066-3.172-3.525-5.219-4.777c-3.433-2.1-7.161-3.51-10.997-4.671
		c-0.545-0.165-0.718-0.029-0.876,0.479c-1.207,3.892-2.688,7.681-4.385,11.383c-0.219,0.477-0.225,0.86-0.006,1.336
		c1.737,3.77,3.234,7.633,4.463,11.598c0.107,0.349,0.246,0.435,0.612,0.325c3.231-0.966,6.394-2.111,9.382-3.69
		c2.199-1.161,4.279-2.494,5.951-4.371C94.885,53.233,95.711,51.783,95.739,50.441z M76.633,20.229
		c0.049-0.559-0.067-1.297-0.121-2.036c-0.129-1.732-0.442-3.432-1.189-5.019c-1.109-2.357-2.916-3.647-5.585-3.581
		c-1.503,0.037-2.935,0.413-4.312,0.983c-4.711,1.951-8.531,5.169-12.185,8.621c-0.229,0.216-0.169,0.366,0.019,0.567
		c2.924,3.138,5.572,6.499,8.061,9.988c0.147,0.208,0.32,0.288,0.569,0.309c0.852,0.07,1.704,0.145,2.552,0.25
		c3.394,0.424,6.768,0.967,10.105,1.716c0.299,0.068,0.427,0.053,0.51-0.29C75.967,28.016,76.555,24.251,76.633,20.229z
		 M35.37,34.631c-2.98,0.382-5.803,0.866-8.608,1.458c-0.475,0.101-0.596,0.21-0.435,0.692c0.635,1.894,1.293,3.779,2.02,5.639
		c0.315,0.805,0.592,1.629,1.071,2.504C31.273,41.38,33.206,38.006,35.37,34.631z M64.625,34.636
		c2.16,3.373,4.084,6.751,5.918,10.232c0.094-0.107,0.141-0.141,0.161-0.187c1.157-2.651,2.12-5.375,3.015-8.125
		c0.096-0.291-0.029-0.374-0.274-0.424C70.564,35.533,67.672,35.006,64.625,34.636z M29.407,55.038
		c-0.106,0.213-0.163,0.31-0.205,0.412c-1.055,2.546-2,5.133-2.866,7.749c-0.151,0.456-0.07,0.616,0.405,0.715
		c2.025,0.423,4.058,0.809,6.104,1.111c0.775,0.114,1.55,0.326,2.448,0.238C33.182,61.928,31.235,58.587,29.407,55.038z
		 M70.639,55.119c-0.094,0.061-0.139,0.073-0.152,0.101c-1.725,3.33-3.596,6.575-5.606,9.738c-0.188,0.295-0.085,0.373,0.212,0.333
		c0.865-0.114,1.73-0.227,2.594-0.354c1.897-0.282,3.779-0.647,5.652-1.057c0.202-0.044,0.516-0.016,0.378-0.444
		C72.814,60.63,71.802,57.867,70.639,55.119z M55.793,29.624c-0.023-0.136-0.018-0.18-0.037-0.206
		c-1.733-2.266-3.547-4.466-5.471-6.575c-0.271-0.297-0.419-0.182-0.627,0.048c-1.483,1.634-2.913,3.313-4.274,5.05
		c-0.412,0.525-0.823,1.051-1.322,1.69C48.076,29.435,51.914,29.435,55.793,29.624z M44.181,70.472
		c0.074,0.125,0.113,0.211,0.169,0.284c1.674,2.168,3.43,4.268,5.252,6.313c0.308,0.346,0.482,0.337,0.784-0.003
		c1.729-1.949,3.415-3.935,5.002-6.003c0.143-0.187,0.37-0.332,0.366-0.592C51.908,70.472,48.076,70.472,44.181,70.472z"/>
	<path fill-rule="evenodd" clip-rule="evenodd" fill="#61D9FA" d="M58.93,50.016c0,4.971-4.002,8.975-8.964,8.969
		c-4.924-0.007-8.908-4.016-8.91-8.967c-0.002-5,3.959-8.98,8.936-8.981C54.969,41.037,58.93,45.015,58.93,50.016z"/>
</g>
</svg>
