<?xml version="1.0" encoding="utf-8"?>
<!-- Generator: Adobe Illustrator 16.0.0, SVG Export Plug-In . SVG Version: 6.00 Build 0)  -->
<!DOCTYPE svg PUBLIC "-//W3C//DTD SVG 1.1//EN" "http://www.w3.org/Graphics/SVG/1.1/DTD/svg11.dtd">
<svg version="1.1" id="Layer_1" xmlns="http://www.w3.org/2000/svg" xmlns:xlink="http://www.w3.org/1999/xlink" x="0px" y="0px"
	 width="100px" height="100px" viewBox="0 0 100 100" enable-background="new 0 0 100 100" xml:space="preserve">
<g>
	<path fill-rule="evenodd" clip-rule="evenodd" fill="#FFD45E" d="M17.272,53.699c0.099-0.258,0.281-0.353,0.55-0.287
		c1.284-0.161,2.138-0.85,2.551-2.077c0,0-0.084,0.051-0.083,0.051c1.646,0.013,3.292,0.025,4.938,0.037
		c0.47,0.743,0.939,1.487,1.41,2.229c0.288,0.87,0.577,1.743,0.866,2.616c0.153,2.006-0.648,3.58-2.185,4.82
		C17.52,67.383,9.287,73.026,0.37,77.639c-0.002-2.031-0.005-4.063-0.007-6.094c5.687-4.098,10.142-9.328,13.947-15.157
		l-0.043,0.073c0.362-0.337,0.725-0.675,1.086-1.011l-0.015,0.014c0.345-0.306,0.69-0.61,1.036-0.916l0.093-0.077
		C16.735,54.214,17.004,53.957,17.272,53.699z"/>
	<path fill-rule="evenodd" clip-rule="evenodd" fill="#D68EBA" d="M91.897,0.209c0.685-0.003,1.37-0.006,2.055-0.01
		c-1.333,6.027-2.665,12.055-3.998,18.083c-2.139,9.326-4.278,18.653-6.418,27.98c-3.178,5.121-6.376,10.233-7.799,16.199
		L75.7,62.514c-2.266,0.479-4.232,2.706-6.842,1.169c-0.064-0.402-0.13-0.804-0.194-1.205c0.013-1.458,2.579-1.212,2.031-3.044
		c5.063-4.789,7.532-11.228,9.838-17.423c2.464-6.622,3.277-13.846,5.03-20.752c0.621-2.448,0.132-4.179-1.82-5.62
		c0.973-5.124,2.14-10.219,2.068-15.481c0.671,0,1.343-0.001,2.014-0.002c-0.461,3.922-0.83,7.859-1.436,11.76
		c-0.202,1.302-0.359,2.482,1.054,2.809c1.365,0.316,1.413-1.101,1.647-1.988C90.184,8.597,91.672,4.543,91.897,0.209z"/>
	<path fill-rule="evenodd" clip-rule="evenodd" fill="#DC9628" d="M0.339,92.743c0.013-1.995,0.026-3.99,0.04-5.986
		c1.248-0.058,2.094-0.876,3.045-1.546c10.835-7.622,20.609-16.484,30.094-25.687c0-0.686-0.001-1.372-0.003-2.058
		c-0.002-0.311-0.026-0.62-0.073-0.927c0.943-0.408,1.887-0.816,2.83-1.224c0.377-0.259,0.754-0.518,1.131-0.775
		c3.337-2.792,6.675-5.583,10.011-8.375c0.194,1.329,0.389,2.659,0.58,3.977c0.199,2.104-1.726,3.323-2.182,5.162
		c-0.123,0.667-0.247,1.334-0.37,2.002c-2.136-2.469-2.96-0.207-4.042,1.123c-6.651,5.043-13.026,10.41-18.975,16.274
		c-0.332,0.302-0.664,0.604-0.996,0.905c-2.071,1.256-3.672,3.002-5.11,4.916c-4.15,1.398-7.211,4.03-9.075,8.017
		C3.867,88.177,2.759,91.538,0.339,92.743z"/>
	<path fill-rule="evenodd" clip-rule="evenodd" fill="#FFD45E" d="M38.533,99.593c-1.696-0.01-3.392-0.019-5.087-0.027
		c-0.253-3.705,4.054-5.242,4.168-8.772c0.332-0.327,0.664-0.655,0.997-0.982c0.339-0.33,0.68-0.661,1.019-0.991
		c0.337-0.335,0.673-0.67,1.01-1.005c0.341-0.343,0.682-0.686,1.021-1.03c0.331-0.327,0.663-0.654,0.995-0.98
		c0.339-0.332,0.678-0.665,1.017-0.997c0.337-0.334,0.674-0.669,1.011-1.003c0.336-0.335,0.673-0.67,1.009-1.005
		c3.89,0.383,5.066-4.989,9.104-4.292l-0.139,0.012c0.345,0.364,0.69,0.729,1.034,1.093l-0.039-0.051
		c0.302,0.356,0.604,0.714,0.905,1.069c0.188,0.225,0.25,0.48,0.189,0.768c-1.45,7.584-6.016,12.225-13.307,14.571
		C41.561,96.574,39.082,96.936,38.533,99.593z"/>
	<path fill-rule="evenodd" clip-rule="evenodd" fill="#DCA8CC" d="M45.441,57.305c0.123-0.666,0.247-1.333,0.37-1.999
		c6.255-4.281,11.618-9.567,16.858-14.99l-0.051,0.042c1.503,0.082,2.414-0.753,3.07-1.982c2.717-2.252,5.186-2.878,6.956,1.064
		c-2.731,0.099-3.83,2.489-5.466,4.032c-6.269,5.914-12.201,12.202-19.485,16.944c-0.336-0.099-0.674-0.198-1.011-0.298
		c0.05-0.253-0.029-0.456-0.236-0.609C46.111,58.774,45.776,58.039,45.441,57.305z"/>
	<path fill-rule="evenodd" clip-rule="evenodd" fill="#9B6086" d="M83.536,46.263c2.14-9.327,4.279-18.654,6.418-27.981
		c1.928-0.491,3.393-1.87,3.794-3.574c1.133-4.807,3.206-9.423,3.183-14.483c1.878-0.416,3.172-0.125,3.004,2.257
		C99.8,4.401,99.798,6.33,99.737,8.253c-2.29,3.247-2.79,6.958-2.797,10.796c-1.324,0.086-2.649,0.172-3.974,0.258
		c-0.334,0.354-0.667,0.709-1.001,1.064c0.142,8.197-3.484,15.545-5.34,23.289c-0.388,1.616-1.028,3.142-0.87,4.842
		C85.016,47.755,84.276,47.009,83.536,46.263z"/>
	<path fill-rule="evenodd" clip-rule="evenodd" fill="#FECA3E" d="M0.339,92.743c2.42-1.205,3.528-4.566,6.904-4.2
		c-0.141,0.645-0.18,1.332-0.442,1.92c-0.689,1.539-3.567,2.644-1.908,4.545c1.775,2.033,3.64-0.129,5.215-1.188
		c10.493-7.059,21.401-13.504,31.454-21.214c0.007,1.01,0.014,2.019,0.021,3.029c-0.022,0.327-0.036,0.654-0.04,0.983
		c-4.212,0.846-5.693,5.405-9.57,6.875c-8.326,3.157-15.101,9.063-22.808,13.337c-1.108,0.614-1.79,1.467-1.831,2.765
		C-0.034,99.97-0.034,99.97,0.339,92.743z"/>
	<path fill-rule="evenodd" clip-rule="evenodd" fill="#DCA8CC" d="M26.639,53.653c-0.471-0.743-0.94-1.487-1.41-2.23
		c0.438-1.03,0.876-2.059,1.313-3.088c6.036-3.812,10.91-8.961,15.979-13.886c2.924-3.931,5.884-4.309,9.115-1.165
		c-4.038,3.703-8.075,7.406-12.113,11.108c-1.507,0.013-3.027,0.007-2.895,2.188C33.806,49.656,31.129,52.935,26.639,53.653z"/>
	<path fill-rule="evenodd" clip-rule="evenodd" fill="#DC9628" d="M23.522,99.595c-1.376,0.004-2.753,0.007-4.129,0.011
		c1.152-2.725,3.83-3.759,5.933-5.456c1.939-1.564,4.949-2.193,5.164-5.421l0.003-0.01c2.806,0.078,4.554-1.177,5.056-4.006
		c3.554-0.478,4.316-3.734,6.021-6.053c2.867-0.462,4.08-2.242,4.018-5.04l0.01-0.001c1.666-0.033,2.875-1.005,3.525-2.332
		c1.771-3.612,4.971-4.428,8.509-4.747c-1.442,3.421-6.387,4.547-6.002,9.163l0.012-0.081c-0.344,0.344-0.687,0.688-1.03,1.03
		l0.021-0.031c-0.727,0.255-0.983,0.824-1.029,1.536c-0.036,0.289-0.199,0.449-0.489,0.481c-0.512,0.345-1.023,0.69-1.535,1.035
		l0.043-0.031c-0.347,0.348-0.694,0.694-1.042,1.042l0.038-0.02c-4.532,2.445-8.686,5.307-11.092,10.089l0.009-0.02
		c-0.917-0.133-1.679,0.041-2.036,1.022l0.029-0.017c-2.72,0.646-4.673,2.058-5.046,5.048l0.008-0.01
		C26.047,96.328,24.674,97.768,23.522,99.595z"/>
	<path fill-rule="evenodd" clip-rule="evenodd" fill="#DC9628" d="M75.804,70.578c0.828,11.126-6.891,25.014-16.139,29.039
		c1.193-4.582,4.507-7.67,7.566-10.993c3.943-4.283,3.961-7.761,0.347-10.071C70.32,75.895,73.062,73.236,75.804,70.578z"/>
	<path fill-rule="evenodd" clip-rule="evenodd" fill="#FECA3E" d="M33.516,57.466c0.001,0.687,0.002,1.373,0.002,2.059
		c-2.553-0.401-4.438,0.634-6.14,2.504c-2.238,2.462-4.541,4.9-7.063,7.061C14.297,74.244,8.181,79.305,0.383,81.664
		c-0.004-1.342-0.008-2.684-0.013-4.025c8.917-4.612,17.149-10.256,24.95-16.551c1.536-1.24,2.338-2.814,2.185-4.82
		c0.622,0.006,1.243,0.012,1.864,0.018c0.965,0.378,1.929,0.756,2.893,1.134C32.68,57.435,33.098,57.45,33.516,57.466z"/>
	<path fill-rule="evenodd" clip-rule="evenodd" fill="#FFD14F" d="M38.533,99.593c0.549-2.657,3.027-3.019,4.907-3.624
		c7.291-2.347,11.856-6.987,13.306-14.572c0.94,0.473,2.276-0.403,2.98,0.875c-0.133,0.973-0.344,1.942-0.385,2.92
		c-0.24,5.746-5.016,9.365-6.721,14.419C47.925,99.604,43.229,99.599,38.533,99.593z"/>
	<path fill-rule="evenodd" clip-rule="evenodd" fill="#F4BA2A" d="M41.57,78.66c-1.705,2.318-2.468,5.575-6.022,6.052
		c-2.611,0.168-3.832,2.088-5.055,4.007l-0.003,0.01c-5.923,2.795-11.853,5.574-17.76,8.403c-0.966,0.463-1.315,1.428-1.381,2.474
		c-1.339-0.003-2.679-0.006-4.017-0.01c0.041-1.298,0.723-2.15,1.831-2.765c7.707-4.274,14.481-10.18,22.808-13.337
		c3.877-1.47,5.358-6.029,9.57-6.875C41.552,77.3,41.561,77.979,41.57,78.66z"/>
	<path fill-rule="evenodd" clip-rule="evenodd" fill="#B661A0" d="M47.694,60.416c7.284-4.742,13.217-11.031,19.485-16.944
		c1.636-1.543,2.734-3.934,5.466-4.032c0.435,1.516-0.14,2.785-0.979,3.989c-1.313,1.248-2.84,2.337-3.902,3.771
		c-4.521,6.104-10.371,10.726-16.412,15.158c-1.242-0.421-2.485-0.843-3.729-1.265C47.703,60.873,47.727,60.647,47.694,60.416z"/>
	<path fill-rule="evenodd" clip-rule="evenodd" fill="#F4BA2A" d="M0.383,81.664c7.798-2.359,13.914-7.42,19.932-12.575
		c2.522-2.16,4.825-4.599,7.063-7.061c1.701-1.87,3.587-2.905,6.14-2.504c-9.484,9.202-19.259,18.064-30.094,25.687
		c-0.951,0.67-1.797,1.488-3.045,1.546C0.38,85.06,0.382,83.361,0.383,81.664z"/>
	<path fill-rule="evenodd" clip-rule="evenodd" fill="#F4BA2A" d="M67.578,78.553c3.614,2.311,3.597,5.788-0.347,10.071
		c-3.06,3.323-6.373,6.411-7.566,10.993c-1.007,0.002-2.014,0.003-3.021,0.004c2.24-5.018,4.321-10.116,6.813-15.005
		c0.794-1.557,1.086-2.613,0.053-3.956c0.236-0.382,0.472-0.762,0.708-1.143C65.56,79.967,66.579,79.294,67.578,78.553z"/>
	<path fill-rule="evenodd" clip-rule="evenodd" fill="#7D4465" d="M32.262,57.419c-0.964-0.378-1.928-0.756-2.892-1.134
		c2.41-1.745,4.747-3.604,7.244-5.215c6.111-3.94,9.826-10.329,15.36-14.845c0.217,4.112-2.82,6.731-4.562,9.943
		c-3.336,2.789-6.674,5.581-10.01,8.373c-0.376,0.258-0.754,0.517-1.132,0.775c-0.943,0.407-1.887,0.815-2.829,1.224
		C33.049,56.833,32.655,57.126,32.262,57.419z"/>
	<path fill-rule="evenodd" clip-rule="evenodd" fill="#B661A0" d="M51.975,36.225c-5.534,4.516-9.249,10.905-15.36,14.845
		c-2.497,1.61-4.834,3.47-7.244,5.215c-0.622-0.006-1.243-0.012-1.865-0.018c-0.289-0.873-0.578-1.746-0.866-2.616
		c4.49-0.717,7.167-3.996,9.987-7.073c1.361-0.203,2.386-0.853,2.896-2.186c4.038-3.703,8.075-7.405,12.113-11.108
		C52.245,34.207,52.665,35.152,51.975,36.225z"/>
	<path fill-rule="evenodd" clip-rule="evenodd" fill="#7D4465" d="M51.351,62.358c6.043-4.433,11.894-9.055,16.414-15.158
		c1.063-1.434,2.589-2.523,3.902-3.771c0.765,3.921-2.667,5.912-4.068,8.837c-3.815,1.897-5.75,5.859-9.086,8.279
		C56.133,61.175,54.215,63.638,51.351,62.358z"/>
	<path fill-rule="evenodd" clip-rule="evenodd" fill="#B661A0" d="M83.536,46.263c0.74,0.747,1.479,1.493,2.22,2.24
		c-0.179,4.348-1.995,7.938-5.063,10.947c-2.298-0.06-2.559,3.234-4.955,3.012C77.16,56.496,80.358,51.384,83.536,46.263z"/>
	<path fill-rule="evenodd" clip-rule="evenodd" fill="#D16BA6" d="M85.812,0.158c0.071,5.262-1.096,10.357-2.068,15.481
		c-6.238-3.323-2.681-8.431-2.323-12.934C81.647-0.155,83.642-0.207,85.812,0.158z"/>
	<path fill-rule="evenodd" clip-rule="evenodd" fill="#ECAC24" d="M11.35,99.605c0.065-1.046,0.415-2.011,1.381-2.474
		c5.907-2.829,11.837-5.608,17.76-8.403c-0.215,3.228-3.225,3.856-5.164,5.421c-2.103,1.697-4.78,2.731-5.933,5.456
		C16.712,99.605,14.031,99.605,11.35,99.605z"/>
	<path fill-rule="evenodd" clip-rule="evenodd" fill="#FECA3E" d="M63.509,80.661c1.035,1.342,0.743,2.398-0.051,3.955
		c-2.492,4.889-4.573,9.987-6.813,15.005c-1.341-0.004-2.682-0.008-4.023-0.011c1.705-5.054,6.48-8.673,6.721-14.419
		c0.041-0.978,0.252-1.947,0.385-2.92C60.987,81.735,62.248,81.198,63.509,80.661z"/>
	<path fill-rule="evenodd" clip-rule="evenodd" fill="#884479" d="M75.737,62.462c2.396,0.223,2.657-3.071,4.955-3.012
		c0.729,4.743-2.758,7.633-4.888,11.124c-2.743,2.662-5.484,5.32-8.227,7.979c-0.999,0.741-2.019,1.414-3.355,0.965
		c2.937-5.31,8.441-8.371,11.71-13.457c1.076-1.673,0.976-2.429-0.232-3.547L75.737,62.462z"/>
	<path fill-rule="evenodd" clip-rule="evenodd" fill="#B06A97" d="M96.931,0.225c0.023,5.06-2.05,9.676-3.183,14.483
		c-0.401,1.704-1.866,3.083-3.794,3.574c1.333-6.027,2.665-12.055,3.998-18.082C94.945,0.208,95.938,0.217,96.931,0.225z"/>
	<path fill-rule="evenodd" clip-rule="evenodd" fill="#B7682B" d="M51.629,75.704c-0.384-4.617,4.561-5.743,6.003-9.164
		c0.676-0.664,1.353-1.328,2.028-1.992c3.43-1.512,4.614-5.584,8.066-7.069c0.033,0.688,0.066,1.374,0.099,2.061
		c-0.377,0.979-0.753,1.96-1.13,2.939l-0.026,0.046c-2.173,0.702-3.872,1.984-4.953,4.027l-0.045,0.043
		c-3.113,1.953-5.842,4.263-7.216,7.82c-0.32,0.335-0.64,0.669-0.959,1.003C52.874,75.514,52.252,75.608,51.629,75.704z"/>
	<path fill-rule="evenodd" clip-rule="evenodd" fill="#FECA3E" d="M14.311,56.388c-3.806,5.829-8.261,11.06-13.947,15.157
		c-0.518-1.668-0.69-3.276,0.922-4.496C5.764,63.661,9.325,59.154,14.311,56.388z"/>
	<path fill-rule="evenodd" clip-rule="evenodd" fill="#DCA8CC" d="M91.897,0.209c-0.226,4.333-1.714,8.387-2.807,12.527
		c-0.234,0.887-0.282,2.304-1.647,1.988c-1.413-0.327-1.256-1.507-1.054-2.809c0.605-3.901,0.975-7.837,1.436-11.76
		C89.183,0.174,90.54,0.192,91.897,0.209z"/>
	<path fill-rule="evenodd" clip-rule="evenodd" fill="#B661A0" d="M62.67,40.315c-5.24,5.423-10.604,10.709-16.858,14.99
		c0.456-1.84,2.381-3.059,2.182-5.163c3.965-1.272,6.105-5.022,9.539-7.029C59.218,42.129,60.443,40.308,62.67,40.315z"/>
	<path fill-rule="evenodd" clip-rule="evenodd" fill="#DC9628" d="M67.727,57.479c-3.452,1.485-4.637,5.558-8.066,7.069
		c0.102-1.474-0.231-2.821-1.149-4.002c3.338-2.421,5.272-6.383,9.088-8.28C67.938,53.996,69.527,55.695,67.727,57.479z"/>
	<path fill-rule="evenodd" clip-rule="evenodd" fill="#D16BA6" d="M42.52,34.449c-5.068,4.925-9.942,10.074-15.978,13.887
		c0.289-0.579,0.578-1.16,0.867-1.74C31.657,41.565,35.837,36.45,42.52,34.449z"/>
	<path fill-rule="evenodd" clip-rule="evenodd" fill="#FECA3E" d="M37.616,90.794c-0.116,3.529-4.423,5.066-4.17,8.771
		c-2.314,0.03-4.628,0.061-6.943,0.092c0.662-0.96,1.324-1.92,1.986-2.879l-0.008,0.01c2.577-0.788,4.637-2.093,5.046-5.048
		l-0.029,0.017c1.034,0.367,1.699-0.002,2.036-1.022l-0.009,0.02c0.604-0.084,1.209-0.168,1.813-0.252L37.616,90.794z"/>
	<path fill-rule="evenodd" clip-rule="evenodd" fill="#884479" d="M96.94,19.049c0.007-3.838,0.507-7.549,2.797-10.796
		c0.055,2.276-0.069,4.575,0.212,6.823C100.258,17.548,99.158,18.646,96.94,19.049z"/>
	<path fill-rule="evenodd" clip-rule="evenodd" fill="#FECA3E" d="M27.409,46.596c-0.289,0.58-0.578,1.161-0.867,1.74
		c-0.438,1.028-0.876,2.057-1.313,3.087c-1.646-0.012-3.292-0.024-4.938-0.037C22.426,49.438,23.981,46.626,27.409,46.596z"/>
	<path fill-rule="evenodd" clip-rule="evenodd" fill="#B7682B" d="M28.489,96.778c-0.662,0.959-1.324,1.919-1.986,2.879
		c-0.993-0.021-1.987-0.042-2.981-0.063C24.674,97.768,26.047,96.328,28.489,96.778z"/>
	<path fill-rule="evenodd" clip-rule="evenodd" fill="#B06A97" d="M66.695,62.479c0.377-0.979,0.753-1.96,1.13-2.939
		c0.957-0.034,1.913-0.07,2.87-0.105c0.548,1.832-2.019,1.586-2.03,3.044C68.009,62.479,67.352,62.479,66.695,62.479z"/>
	<path fill-rule="evenodd" clip-rule="evenodd" fill="#B661A0" d="M65.689,38.375c-0.656,1.229-1.567,2.064-3.07,1.982
		C63.187,38.992,64.434,38.676,65.689,38.375z"/>
	<path fill-rule="evenodd" clip-rule="evenodd" fill="#FECA3E" d="M20.373,51.335c-0.413,1.228-1.267,1.916-2.551,2.077
		C18.42,52.41,19.178,51.604,20.373,51.335z"/>
	<path fill-rule="evenodd" clip-rule="evenodd" fill="#B06A97" d="M91.966,20.372c0.334-0.355,0.667-0.71,1.001-1.064
		C92.633,19.662,92.3,20.017,91.966,20.372z"/>
	<path fill-rule="evenodd" clip-rule="evenodd" fill="#FECA3E" d="M15.354,55.45c-0.361,0.336-0.724,0.674-1.086,1.011
		C14.63,56.124,14.991,55.787,15.354,55.45z"/>
	<path fill-rule="evenodd" clip-rule="evenodd" fill="#FECA3E" d="M16.375,54.548c-0.346,0.306-0.691,0.61-1.036,0.916
		C15.684,55.158,16.029,54.854,16.375,54.548z"/>
	<path fill-rule="evenodd" clip-rule="evenodd" fill="#FECA3E" d="M17.272,53.699c-0.269,0.258-0.537,0.515-0.805,0.771
		C16.736,54.214,17.005,53.957,17.272,53.699z"/>
	<path fill-rule="evenodd" clip-rule="evenodd" fill="#B661A0" d="M75.7,62.514c1.208,1.118,1.309,1.874,0.232,3.547
		c-3.269,5.086-8.773,8.147-11.71,13.457c-0.24,0.381-0.476,0.761-0.712,1.143c-1.263,0.538-2.523,1.075-3.784,1.611
		c-0.704-1.278-2.04-0.402-2.98-0.875c0.062-0.286-0.001-0.542-0.188-0.767c0.144-0.315,0.149-0.634,0.019-0.955
		c3.741-3.229,7.375-6.596,11.262-9.64c2.51-1.966,2.94-3.87,1.021-6.353C71.468,65.22,73.435,62.993,75.7,62.514z"/>
	<path fill-rule="evenodd" clip-rule="evenodd" fill="#DCA8CC" d="M68.858,63.683c1.92,2.482,1.489,4.387-1.021,6.353
		c-3.887,3.044-7.521,6.41-11.262,9.64c-0.312-0.013-0.619-0.05-0.924-0.114l0.039,0.051c-0.344-0.364-0.689-0.729-1.034-1.093
		c0,0,0.139-0.012,0.138-0.012c-0.434-1.029-0.866-2.06-1.299-3.089c0.319-0.334,0.639-0.668,0.958-1.002
		c2.979-2.077,6.043-4.077,7.217-7.821l0.045-0.043c2.409-0.409,4.561-1.137,4.953-4.027l0.026-0.046c0.656,0,1.313,0,1.97-0.001
		C68.729,62.879,68.794,63.28,68.858,63.683z"/>
	<path fill-rule="evenodd" clip-rule="evenodd" fill="#FFD45E" d="M46.447,59.509c0.207,0.153,0.286,0.356,0.236,0.609
		c0.476,3.121-1.136,5.724-2.104,8.485c-0.066,1.268-0.729,1.935-2.001,1.992c-1.362-0.078-2.599,0.109-3.681,1.116
		c-5.003,4.656-11.159,7.651-16.745,11.468c-3.141,2.146-5.717,2.237-5.835-2.654c1.438-1.914,3.039-3.66,5.11-4.916
		c0.331-0.302,0.664-0.604,0.996-0.905C28.373,68.84,34.748,63.473,41.4,58.43C43.084,58.79,44.765,59.149,46.447,59.509z"/>
	<path fill-rule="evenodd" clip-rule="evenodd" fill="#FFD14F" d="M16.318,80.525c0.118,4.892,2.694,4.8,5.835,2.654
		c5.586-3.816,11.742-6.812,16.745-11.468c1.082-1.007,2.318-1.194,3.681-1.116c-0.34,0.67-0.678,1.34-1.017,2.011
		c-10.054,7.71-20.962,14.155-31.455,21.214c-1.575,1.059-3.439,3.221-5.215,1.188c-1.659-1.901,1.219-3.006,1.908-4.545
		c0.263-0.588,0.302-1.275,0.442-1.92C9.107,84.556,12.168,81.924,16.318,80.525z"/>
	<path fill-rule="evenodd" clip-rule="evenodd" fill="#FFD14F" d="M46.447,59.509c-1.683-0.359-3.363-0.719-5.047-1.079
		c1.081-1.33,1.905-3.592,4.041-1.123C45.776,58.039,46.111,58.774,46.447,59.509z"/>
	<path fill-rule="evenodd" clip-rule="evenodd" fill="#F4BA2A" d="M36.271,55.316c0.378-0.259,0.756-0.518,1.132-0.775
		C37.025,54.799,36.648,55.058,36.271,55.316z"/>
	<path fill-rule="evenodd" clip-rule="evenodd" fill="#FFD14F" d="M22.425,74.704c-0.332,0.302-0.665,0.604-0.996,0.905
		C21.761,75.308,22.093,75.006,22.425,74.704z"/>
	<path fill-rule="evenodd" clip-rule="evenodd" fill="#F4BA2A" d="M32.262,57.419c0.394-0.293,0.787-0.586,1.181-0.879
		c0.046,0.307,0.07,0.616,0.072,0.927C33.098,57.45,32.68,57.435,32.262,57.419z"/>
	<path fill-rule="evenodd" clip-rule="evenodd" fill="#FECA3E" d="M53.496,75.418c0.433,1.029,0.865,2.06,1.299,3.089
		c-4.036-0.697-5.213,4.675-9.103,4.292l-0.117-0.134c0.347-0.667,0.694-1.334,1.042-2l-0.038,0.02
		c0.348-0.348,0.695-0.694,1.042-1.042l-0.043,0.031c0.512-0.345,1.023-0.69,1.535-1.035c0.29-0.032,0.453-0.192,0.489-0.482
		c0.344-0.513,0.687-1.023,1.029-1.535l-0.021,0.031c0.643-0.044,0.987-0.386,1.03-1.03l-0.012,0.081
		C52.252,75.608,52.874,75.514,53.496,75.418z"/>
	<path fill-rule="evenodd" clip-rule="evenodd" fill="#FECA3E" d="M54.657,78.519c0.345,0.364,0.69,0.729,1.034,1.093
		C55.348,79.247,55.002,78.883,54.657,78.519z"/>
	<path fill-rule="evenodd" clip-rule="evenodd" fill="#FECA3E" d="M55.652,79.561c0.305,0.064,0.612,0.102,0.924,0.114
		c0.131,0.321,0.125,0.64-0.019,0.955C56.256,80.274,55.954,79.917,55.652,79.561z"/>
	<path fill-rule="evenodd" clip-rule="evenodd" fill="#FECA3E" d="M45.692,82.799c-0.336,0.335-0.673,0.67-1.009,1.005l-0.12-0.137
		c0.337-0.334,0.674-0.668,1.012-1.002L45.692,82.799z"/>
	<path fill-rule="evenodd" clip-rule="evenodd" fill="#FECA3E" d="M44.684,83.804c-0.337,0.334-0.674,0.669-1.011,1.003
		l-0.128-0.146c0.339-0.331,0.679-0.662,1.019-0.993L44.684,83.804z"/>
	<path fill-rule="evenodd" clip-rule="evenodd" fill="#FECA3E" d="M43.673,84.807c-0.339,0.332-0.678,0.665-1.017,0.997
		l-0.146-0.165c0.344-0.326,0.688-0.652,1.034-0.979L43.673,84.807z"/>
	<path fill-rule="evenodd" clip-rule="evenodd" fill="#FECA3E" d="M41.663,86.785c-0.342,0.344-0.683,0.687-1.023,1.029
		c0,0-0.19-0.211-0.189-0.211c0.347-0.324,0.693-0.648,1.039-0.973L41.663,86.785z"/>
	<path fill-rule="evenodd" clip-rule="evenodd" fill="#FECA3E" d="M40.64,87.814c-0.337,0.335-0.673,0.67-1.01,1.005
		c0,0-0.236-0.26-0.235-0.26c0.353-0.318,0.704-0.637,1.055-0.956L40.64,87.814z"/>
	<path fill-rule="evenodd" clip-rule="evenodd" fill="#FECA3E" d="M39.63,88.819c-0.339,0.33-0.68,0.661-1.019,0.991
		c0,0-0.247-0.267-0.246-0.266c0.344-0.328,0.687-0.656,1.028-0.985L39.63,88.819z"/>
	<path fill-rule="evenodd" clip-rule="evenodd" fill="#FECA3E" d="M38.611,89.811c-0.333,0.327-0.665,0.655-0.997,0.982
		c0.002,0.001-0.275-0.291-0.274-0.29c0.342-0.318,0.684-0.639,1.024-0.959L38.611,89.811z"/>
	<path fill-rule="evenodd" clip-rule="evenodd" fill="#FECA3E" d="M42.656,85.804c-0.332,0.326-0.664,0.653-0.995,0.98
		c0.002,0.001-0.172-0.153-0.171-0.152c0.34-0.331,0.68-0.662,1.021-0.993L42.656,85.804z"/>
	<path fill-rule="evenodd" clip-rule="evenodd" fill="#FFD14F" d="M44.58,68.604c0.968-2.762,2.579-5.364,2.104-8.485
		c0.337,0.1,0.675,0.199,1.011,0.298c0.032,0.231,0.009,0.457-0.07,0.68c0.294,0.505,0.588,1.01,0.882,1.513
		c0.032,1.317,0.064,2.635,0.097,3.951c-0.799,0.415-1.012,1.144-1.048,1.966C46.563,68.552,45.571,68.577,44.58,68.604z"/>
	<path fill-rule="evenodd" clip-rule="evenodd" fill="#F4BA2A" d="M44.58,68.604c0.991-0.026,1.983-0.052,2.976-0.078
		c0.007,1.952-2.694,2.861-1.958,5.094l-0.01,0.001c-1.422,0.498-2.273,2.131-4.006,2.016c-0.007-1.011-0.014-2.02-0.021-3.029
		c0.34-0.671,0.678-1.341,1.018-2.011C43.851,70.538,44.514,69.871,44.58,68.604z"/>
	<path fill-rule="evenodd" clip-rule="evenodd" fill="#ECAC24" d="M41.582,75.636c1.732,0.115,2.584-1.518,4.006-2.016
		c0.063,2.798-1.15,4.578-4.018,5.04c-0.01-0.681-0.019-1.36-0.028-2.041C41.546,76.29,41.56,75.963,41.582,75.636z"/>
	<path fill-rule="evenodd" clip-rule="evenodd" fill="#D68EBA" d="M39.521,44.393c-0.51,1.333-1.534,1.983-2.896,2.186
		C36.494,44.399,38.015,44.405,39.521,44.393z"/>
	<path fill-rule="evenodd" clip-rule="evenodd" fill="#ECAC24" d="M45.598,73.619c-0.736-2.232,1.965-3.142,1.958-5.094
		c0.035-0.822,0.248-1.551,1.046-1.966c1.438-0.214,2.831-0.503,3.626-2.031c-0.887-1.392-2.551-1.195-3.722-1.92
		c-0.294-0.503-0.588-1.008-0.882-1.513c1.243,0.42,2.486,0.842,3.729,1.263c2.862,1.279,4.78-1.184,7.16-1.813
		c0.916,1.182,1.249,2.529,1.147,4.003c-0.676,0.664-1.353,1.328-2.028,1.992c-3.538,0.319-6.737,1.135-8.509,4.747
		C48.473,72.614,47.264,73.586,45.598,73.619z"/>
	<path fill-rule="evenodd" clip-rule="evenodd" fill="#B7682B" d="M42.511,85.639c-0.341,0.331-0.681,0.662-1.021,0.993
		c-0.347,0.323-0.693,0.647-1.04,0.972c-0.352,0.319-0.703,0.638-1.056,0.956c-0.343,0.329-0.686,0.657-1.029,0.985
		c-0.342,0.319-0.684,0.64-1.025,0.958c-0.605,0.083-1.21,0.167-1.814,0.251c2.406-4.782,6.56-7.644,11.092-10.089
		c-0.348,0.666-0.695,1.333-1.042,2c-0.338,0.334-0.675,0.668-1.012,1.002c-0.34,0.331-0.68,0.662-1.019,0.993
		C43.199,84.986,42.854,85.313,42.511,85.639z"/>
	<path fill-rule="evenodd" clip-rule="evenodd" fill="#B7682B" d="M33.527,91.74c-0.409,2.955-2.469,4.26-5.046,5.048
		C28.854,93.798,30.808,92.387,33.527,91.74z"/>
	<path fill-rule="evenodd" clip-rule="evenodd" fill="#ECAC24" d="M30.493,88.719c1.223-1.919,2.443-3.839,5.055-4.007
		C35.047,87.542,33.299,88.797,30.493,88.719z"/>
	<path fill-rule="evenodd" clip-rule="evenodd" fill="#B7682B" d="M35.534,90.734c-0.337,1.021-1.002,1.39-2.036,1.022
		C33.855,90.775,34.617,90.602,35.534,90.734z"/>
	<path fill-rule="evenodd" clip-rule="evenodd" fill="#B7682B" d="M49.113,78.639c-0.512,0.345-1.023,0.69-1.535,1.035
		C48.09,79.329,48.602,78.983,49.113,78.639z"/>
	<path fill-rule="evenodd" clip-rule="evenodd" fill="#B7682B" d="M50.632,76.621c-0.343,0.512-0.686,1.022-1.029,1.535
		C49.648,77.445,49.905,76.876,50.632,76.621z"/>
	<path fill-rule="evenodd" clip-rule="evenodd" fill="#B7682B" d="M51.642,75.622c-0.043,0.645-0.388,0.986-1.03,1.03
		C50.955,76.31,51.298,75.966,51.642,75.622z"/>
	<path fill-rule="evenodd" clip-rule="evenodd" fill="#B7682B" d="M47.621,79.643c-0.347,0.348-0.694,0.694-1.042,1.042
		C46.927,80.337,47.274,79.99,47.621,79.643z"/>
	<path fill-rule="evenodd" clip-rule="evenodd" fill="#B06A97" d="M61.671,66.595c-1.174,3.744-4.238,5.744-7.217,7.821
		C55.829,70.857,58.558,68.548,61.671,66.595z"/>
	<path fill-rule="evenodd" clip-rule="evenodd" fill="#B06A97" d="M66.669,62.524c-0.393,2.891-2.544,3.618-4.953,4.027
		C62.797,64.509,64.496,63.227,66.669,62.524z"/>
	<path fill-rule="evenodd" clip-rule="evenodd" fill="#F4BA2A" d="M48.506,62.608c1.171,0.725,2.835,0.528,3.722,1.92
		c-0.795,1.528-2.188,1.817-3.626,2.031C48.57,65.243,48.538,63.926,48.506,62.608z"/>
</g>
</svg>
