<?xml version="1.0" encoding="utf-8"?>
<!-- Generator: Adobe Illustrator 16.0.0, SVG Export Plug-In . SVG Version: 6.00 Build 0)  -->
<!DOCTYPE svg PUBLIC "-//W3C//DTD SVG 1.1//EN" "http://www.w3.org/Graphics/SVG/1.1/DTD/svg11.dtd">
<svg version="1.1" id="Layer_1" xmlns="http://www.w3.org/2000/svg" xmlns:xlink="http://www.w3.org/1999/xlink" x="0px" y="0px"
	 width="100px" height="100px" viewBox="1200 438.5 100 100" enable-background="new 1200 438.5 100 100" xml:space="preserve">
<g>
	<path fill-rule="evenodd" clip-rule="evenodd" fill="#1D78BF" d="M1274.968,472.563c-3.182,1.836-6.287,3.629-9.394,5.422
		c-5.025,2.9-10.055,5.794-15.07,8.711c-0.411,0.239-0.695,0.228-1.099-0.006c-7.99-4.627-15.989-9.238-23.985-13.852
		c-0.136-0.078-0.267-0.163-0.403-0.247c-0.003-0.185,0.163-0.199,0.267-0.256c8.087-4.452,16.176-8.9,24.264-13.352
		c0.254-0.14,0.463-0.2,0.756-0.038c8.136,4.486,16.278,8.96,24.419,13.437C1274.787,472.417,1274.843,472.47,1274.968,472.563z"/>
	<path fill-rule="evenodd" clip-rule="evenodd" fill="#1D78BF" d="M1251.73,516.563c0-0.241,0-0.393,0-0.544
		c0-8.462,0.003-16.924-0.01-25.386c0-0.408,0.132-0.621,0.482-0.823c7.937-4.568,15.865-9.149,23.796-13.727
		c0.684-0.395,0.685-0.393,0.685,0.368c0.001,8.619-0.001,17.238,0.006,25.857c0,0.355-0.046,0.598-0.412,0.798
		c-8.049,4.406-16.088,8.828-24.129,13.247C1252.047,516.409,1251.94,516.457,1251.73,516.563z"/>
	<path fill-rule="evenodd" clip-rule="evenodd" fill="#1D78BF" d="M1223.213,489.324c0-4.319,0-8.639,0-12.959
		c0-0.683,0.003-0.685,0.611-0.334c7.932,4.577,15.862,9.157,23.802,13.722c0.412,0.236,0.553,0.491,0.552,0.962
		c-0.015,8.384-0.011,16.769-0.011,25.152c0,0.707,0,0.707-0.628,0.361c-7.92-4.355-15.839-8.715-23.767-13.058
		c-0.411-0.226-0.575-0.463-0.572-0.946C1223.222,497.925,1223.213,493.625,1223.213,489.324z"/>
	<path fill-rule="evenodd" clip-rule="evenodd" fill="#8ED4F9" d="M1295.149,513.081c-2.21-1.274-4.297-2.478-6.384-3.682
		c-2.666-1.539-5.326-3.087-8.001-4.607c-0.391-0.223-0.554-0.46-0.554-0.919c0.013-9.874,0.015-19.749-0.003-29.623
		c-0.001-0.502,0.214-0.741,0.598-0.962c3.162-1.815,6.319-3.64,9.479-5.46c1.444-0.832,2.889-1.662,4.335-2.49
		c0.146-0.083,0.286-0.276,0.464-0.16c0.138,0.09,0.063,0.292,0.064,0.443c0.003,2.179,0.002,4.358,0.002,6.537
		c0,13.369,0,26.737,0,40.106C1295.149,512.494,1295.149,512.725,1295.149,513.081z"/>
	<path fill-rule="evenodd" clip-rule="evenodd" fill="#8ED4F9" d="M1204.833,465.078c1.047,0.599,2.031,1.157,3.01,1.722
		c3.787,2.183,7.57,4.374,11.364,6.544c0.34,0.195,0.449,0.407,0.449,0.788c-0.01,9.952-0.01,19.903,0,29.855
		c0,0.355-0.099,0.558-0.418,0.74c-3.996,2.293-7.982,4.602-11.97,6.906c-0.792,0.458-1.584,0.914-2.435,1.404
		C1204.833,497.021,1204.833,481.099,1204.833,465.078z"/>
	<path fill-rule="evenodd" clip-rule="evenodd" fill="#8ED4F9" d="M1293.256,462.002c-1.373,0.794-2.744,1.588-4.115,2.381
		c-3.259,1.884-6.524,3.756-9.771,5.661c-0.535,0.314-0.945,0.325-1.498,0.017c-4.898-2.729-9.813-5.428-14.727-8.131
		c-3.642-2.004-7.283-4.009-10.936-5.992c-0.386-0.209-0.514-0.44-0.512-0.867c0.013-5.339,0.008-10.679,0.009-16.019
		c0-0.656,0.012-0.67,0.587-0.346c3.364,1.896,6.726,3.799,10.087,5.7c3.516,1.988,7.03,3.977,10.545,5.966
		c4.947,2.801,9.894,5.604,14.842,8.405c1.638,0.927,3.279,1.848,4.918,2.773C1292.886,461.665,1293.128,461.726,1293.256,462.002z"
		/>
	<path fill-rule="evenodd" clip-rule="evenodd" fill="#8ED4F9" d="M1206.591,461.918c1.269-0.721,2.507-1.427,3.748-2.129
		c4.674-2.646,9.348-5.293,14.024-7.936c3.806-2.151,7.615-4.295,11.422-6.445c3.96-2.236,7.923-4.466,11.873-6.721
		c0.508-0.29,0.51-0.1,0.509,0.331c-0.008,5.378-0.009,10.757,0.002,16.135c0,0.381-0.115,0.605-0.457,0.792
		c-4.886,2.67-9.766,5.351-14.645,8.034c-3.728,2.05-7.456,4.099-11.17,6.173c-0.468,0.262-0.797,0.192-1.229-0.059
		c-4.627-2.689-9.266-5.357-13.9-8.033C1206.722,462.034,1206.683,461.993,1206.591,461.918z"/>
	<path fill-rule="evenodd" clip-rule="evenodd" fill="#8ED4F9" d="M1251.707,529.581c0-2.768,0.01-5.536-0.01-8.304
		c-0.004-0.454,0.143-0.702,0.544-0.922c5.796-3.173,11.583-6.362,17.372-9.548c2.336-1.286,4.675-2.567,7.007-3.86
		c0.292-0.162,0.529-0.16,0.818,0.008c4.784,2.771,9.57,5.538,14.363,8.293c0.437,0.251,0.438,0.385,0.004,0.629
		c-2.838,1.594-5.668,3.2-8.5,4.804c-4.351,2.463-8.698,4.931-13.051,7.391c-4.079,2.306-8.163,4.603-12.244,6.905
		c-1.93,1.089-3.863,2.17-5.778,3.283c-0.467,0.271-0.535,0.17-0.533-0.315C1251.714,535.156,1251.707,532.369,1251.707,529.581z"/>
	<path fill-rule="evenodd" clip-rule="evenodd" fill="#8ED4F9" d="M1207.587,515.574c1.224-0.708,2.374-1.375,3.524-2.039
		c3.684-2.126,7.374-4.242,11.047-6.388c0.486-0.283,0.851-0.363,1.385-0.065c4.915,2.738,9.848,5.444,14.777,8.157
		c3.143,1.73,6.285,3.462,9.434,5.181c0.294,0.16,0.416,0.336,0.415,0.681c-0.011,5.652-0.007,11.306-0.008,16.959
		c0,0.112-0.015,0.225-0.029,0.44C1234.601,530.849,1221.132,523.232,1207.587,515.574z"/>
</g>
</svg>
